<svg width="42" height="42" viewBox="0 0 42 42" fill="none" xmlns="http://www.w3.org/2000/svg">
<path d="M30.044 21.9219C30.0853 26.3822 33.9573 27.8667 34 27.8857C33.9673 27.9901 33.3815 30.0011 31.9603 32.0777C30.7318 33.8733 29.4566 35.6622 27.4483 35.6996C25.4748 35.7357 24.8401 34.529 22.5836 34.529C20.3278 34.529 19.6229 35.6622 17.7546 35.7357C15.8157 35.8093 14.3393 33.7938 13.1006 32.0051C10.5696 28.3457 8.63526 21.6645 11.2325 17.1545C12.5227 14.9148 14.8288 13.4968 17.3315 13.4602C19.2353 13.4239 21.0322 14.7409 22.1959 14.7409C23.359 14.7409 25.5426 13.157 27.8383 13.3895C28.7994 13.4296 31.497 13.7777 33.2292 16.3134C33.0899 16.4 30.0106 18.1927 30.044 21.9219ZM26.3351 10.9688C27.3643 9.72303 28.057 7.98824 27.8682 6.2627C26.3844 6.32225 24.5903 7.25133 23.5262 8.49667C22.5725 9.59919 21.7373 11.3643 21.9625 13.0557C23.6164 13.1838 25.3056 12.2154 26.3351 10.9688Z" fill="black"/>
</svg>
