<svg width="20" height="20" viewBox="0 0 20 20" fill="none" xmlns="http://www.w3.org/2000/svg">
<g clip-path="url(#clip0_271_788)">
<path d="M10 18.3335C10.9167 18.3335 11.6667 17.5835 11.6667 16.6668H8.33338C8.33338 17.5835 9.07504 18.3335 10 18.3335ZM15 13.3335V9.16683C15 6.6085 13.6334 4.46683 11.25 3.90016V3.3335C11.25 2.64183 10.6917 2.0835 10 2.0835C9.30838 2.0835 8.75004 2.64183 8.75004 3.3335V3.90016C6.35838 4.46683 5.00004 6.60016 5.00004 9.16683V13.3335L3.92504 14.4085C3.40004 14.9335 3.76671 15.8335 4.50838 15.8335H15.4834C16.225 15.8335 16.6 14.9335 16.075 14.4085L15 13.3335Z" fill="#6000AC"/>
</g>
<defs>
<clipPath id="clip0_271_788">
<rect width="20" height="20" fill="white"/>
</clipPath>
</defs>
</svg>
