<svg width="682" height="329" viewBox="0 0 682 329" fill="none" xmlns="http://www.w3.org/2000/svg">
<path d="M658.318 44.85C667.945 39.3325 671.275 27.0561 665.758 17.4298C660.24 7.80353 647.964 4.47268 638.338 9.99016C628.711 15.5076 625.381 27.7841 630.898 37.4104C636.415 47.0367 648.692 50.3675 658.318 44.85Z" fill="#7E57C2"/>
<path d="M634.88 35.7497L629.74 35.1697L627.63 41.3497L634.03 41.0197L634.88 35.7497Z" fill="#7E57C2"/>
<path d="M672.76 26.6898C672.696 26.6847 672.636 26.6548 672.593 26.6063C672.55 26.5578 672.527 26.4945 672.53 26.4298C672.667 23.1995 672.009 19.985 670.615 17.0681C669.22 14.1512 667.131 11.6212 664.53 9.69984C664.498 9.6834 664.47 9.66021 664.448 9.63185C664.425 9.6035 664.409 9.57064 664.401 9.53556C664.393 9.50047 664.392 9.46399 664.399 9.4286C664.406 9.39321 664.42 9.35976 664.442 9.33055C664.463 9.30134 664.49 9.27707 664.522 9.25939C664.553 9.2417 664.588 9.23103 664.624 9.22811C664.66 9.2252 664.696 9.2301 664.73 9.24248C664.764 9.25486 664.795 9.27443 664.82 9.29984C667.492 11.2673 669.639 13.8614 671.072 16.8537C672.506 19.8461 673.181 23.1449 673.04 26.4598C673.038 26.4936 673.028 26.5266 673.013 26.5567C672.997 26.5868 672.976 26.6134 672.949 26.6349C672.923 26.6564 672.893 26.6724 672.86 26.6818C672.828 26.6913 672.794 26.694 672.76 26.6898Z" fill="#7E57C2"/>
<path d="M671.94 32.5898C671.908 32.6005 671.873 32.6005 671.84 32.5898C671.809 32.579 671.781 32.5618 671.757 32.5393C671.734 32.5168 671.715 32.4895 671.703 32.4592C671.691 32.4289 671.685 32.3964 671.686 32.3637C671.687 32.331 671.696 32.299 671.71 32.2698C672.075 31.375 672.255 30.4159 672.24 29.4498C672.237 29.4171 672.242 29.3842 672.252 29.3532C672.263 29.3222 672.281 29.2939 672.303 29.2703C672.326 29.2466 672.354 29.228 672.384 29.2159C672.415 29.2037 672.447 29.1983 672.48 29.1998C672.513 29.197 672.547 29.2012 672.578 29.212C672.61 29.2228 672.639 29.24 672.663 29.2626C672.688 29.2852 672.707 29.3126 672.72 29.3431C672.734 29.3736 672.74 29.4065 672.74 29.4398C672.755 30.468 672.561 31.4885 672.17 32.4398C672.151 32.4845 672.119 32.5226 672.078 32.5492C672.037 32.5759 671.989 32.59 671.94 32.5898Z" fill="#7E57C2"/>
<path d="M648.82 27.4897C649.611 27.4897 650.385 27.2552 651.043 26.8156C651.7 26.3761 652.213 25.7514 652.516 25.0205C652.819 24.2896 652.898 23.4853 652.743 22.7094C652.589 21.9335 652.208 21.2207 651.649 20.6613C651.089 20.1019 650.377 19.7209 649.601 19.5666C648.825 19.4123 648.02 19.4915 647.29 19.7942C646.559 20.097 645.934 20.6097 645.494 21.2675C645.055 21.9253 644.82 22.6986 644.82 23.4897C644.82 24.5506 645.242 25.568 645.992 26.3182C646.742 27.0683 647.759 27.4897 648.82 27.4897Z" fill="white"/>
<path d="M648.82 27.9597C647.975 27.9597 647.138 28.1264 646.357 28.4501C645.576 28.7739 644.867 29.2484 644.27 29.8466C643.673 30.4447 643.199 31.1547 642.877 31.936C642.554 32.7173 642.389 33.5545 642.39 34.3997H655.26C655.26 32.6917 654.582 31.0537 653.374 29.8459C652.166 28.6382 650.528 27.9597 648.82 27.9597Z" fill="white"/>
<path d="M244.583 71.917C248.678 61.605 243.638 49.9256 233.327 45.8303C223.015 41.735 211.335 46.7746 207.24 57.0866C203.145 67.3986 208.184 79.0779 218.496 83.1732C228.808 87.2685 240.487 82.2289 244.583 71.917Z" fill="#7E57C2"/>
<path d="M233.81 78.1396L232.42 83.1297L238.18 86.1897L238.88 79.8197L233.81 78.1396Z" fill="#7E57C2"/>
<path d="M250.36 63.8096C250.293 63.8045 250.23 63.7735 250.185 63.7231C250.14 63.6727 250.117 63.607 250.12 63.5396C250.259 60.3105 249.602 57.0967 248.207 54.1811C246.812 51.2656 244.721 48.7376 242.12 46.8196C242.065 46.7812 242.029 46.7227 242.017 46.657C242.006 46.5914 242.021 46.524 242.06 46.4696C242.098 46.4152 242.157 46.3784 242.222 46.3671C242.288 46.3559 242.355 46.3712 242.41 46.4096C245.082 48.3764 247.23 50.9704 248.663 53.9629C250.097 56.9554 250.772 60.2546 250.63 63.5696C250.625 63.6368 250.594 63.6994 250.543 63.7442C250.493 63.7889 250.427 63.8124 250.36 63.8096Z" fill="#7E57C2"/>
<path d="M249.54 69.7096H249.44C249.381 69.6812 249.334 69.6314 249.31 69.5702C249.286 69.5089 249.286 69.4408 249.31 69.3796C249.678 68.4894 249.859 67.5327 249.84 66.5696C249.84 66.5033 249.866 66.4397 249.913 66.3928C249.96 66.3459 250.024 66.3196 250.09 66.3196C250.156 66.3196 250.22 66.3459 250.267 66.3928C250.314 66.4397 250.34 66.5033 250.34 66.5696C250.356 67.5979 250.162 68.6187 249.77 69.5696C249.749 69.6124 249.716 69.6484 249.676 69.6732C249.635 69.698 249.588 69.7106 249.54 69.7096Z" fill="#7E57C2"/>
<path d="M225.92 65.0995C228.145 65.0995 229.95 63.2953 229.95 61.0695C229.95 58.8438 228.145 57.0396 225.92 57.0396C223.694 57.0396 221.89 58.8438 221.89 61.0695C221.89 63.2953 223.694 65.0995 225.92 65.0995Z" fill="white"/>
<path d="M225.92 65.5696C224.214 65.5696 222.579 66.247 221.373 67.4529C220.167 68.6587 219.49 70.2942 219.49 71.9996H232.36C232.36 71.1543 232.193 70.3174 231.869 69.5366C231.546 68.7558 231.071 68.0466 230.473 67.4493C229.875 66.8521 229.165 66.3787 228.383 66.0562C227.602 65.7336 226.765 65.5683 225.92 65.5696Z" fill="white"/>
<path d="M653.34 283.71L663.18 275.96C669.46 283.11 674.53 290.23 678.35 294.48L675.98 300.05L669.54 298.77C664.441 293.436 659.032 288.407 653.34 283.71Z" fill="#B97964"/>
<path d="M662.77 293.98L666.6 291.54C670.52 293.54 671.3 291.94 671.78 288.42C672.78 287.58 673.92 288.67 674.23 288.95L681.14 295.2C681.421 295.449 681.591 295.8 681.613 296.175C681.636 296.55 681.509 296.918 681.26 297.2C681.166 297.303 681.058 297.394 680.94 297.47L671.75 303.35L658.87 311.55C655.36 313.79 652.38 310.72 653.62 309.47C659.21 303.89 662.62 299.05 663.4 295.87C663.54 295.27 663.02 295.26 662.77 293.98Z" fill="#7E57C2"/>
<path d="M665.54 297.63C665.504 297.639 665.466 297.639 665.43 297.63C664.941 297.405 664.409 297.289 663.87 297.289C663.332 297.289 662.8 297.405 662.31 297.63C662.28 297.643 662.248 297.65 662.215 297.651C662.182 297.651 662.149 297.645 662.118 297.633C662.088 297.621 662.06 297.603 662.036 297.58C662.012 297.557 661.993 297.53 661.98 297.5C661.965 297.47 661.957 297.438 661.955 297.405C661.953 297.372 661.957 297.339 661.969 297.309C661.98 297.278 661.997 297.249 662.02 297.225C662.043 297.201 662.07 297.182 662.1 297.17C662.657 296.915 663.263 296.783 663.875 296.783C664.488 296.783 665.093 296.915 665.65 297.17C665.71 297.198 665.756 297.248 665.778 297.31C665.8 297.372 665.798 297.44 665.77 297.5C665.746 297.539 665.712 297.571 665.672 297.593C665.631 297.616 665.586 297.629 665.54 297.63Z" fill="#263238"/>
<path d="M664.64 300.03H664.53C664.041 299.805 663.509 299.689 662.97 299.689C662.432 299.689 661.9 299.805 661.41 300.03C661.381 300.045 661.349 300.053 661.316 300.055C661.283 300.057 661.25 300.053 661.219 300.041C661.188 300.03 661.16 300.013 661.136 299.99C661.112 299.967 661.093 299.94 661.08 299.91C661.065 299.88 661.057 299.848 661.055 299.815C661.053 299.782 661.057 299.749 661.069 299.719C661.08 299.688 661.097 299.659 661.12 299.635C661.143 299.611 661.17 299.593 661.2 299.58C661.757 299.322 662.362 299.189 662.975 299.189C663.588 299.189 664.194 299.322 664.75 299.58C664.81 299.608 664.856 299.658 664.878 299.72C664.901 299.782 664.898 299.85 664.87 299.91C664.845 299.947 664.811 299.978 664.771 299.999C664.731 300.02 664.686 300.031 664.64 300.03Z" fill="#263238"/>
<path d="M663.18 302.5C663.147 302.509 663.113 302.509 663.08 302.5C662.588 302.277 662.055 302.163 661.515 302.163C660.975 302.163 660.442 302.277 659.95 302.5C659.92 302.514 659.887 302.521 659.854 302.522C659.821 302.524 659.788 302.518 659.757 302.507C659.726 302.495 659.697 302.477 659.673 302.455C659.649 302.432 659.629 302.405 659.615 302.375C659.601 302.345 659.594 302.312 659.592 302.279C659.591 302.246 659.597 302.212 659.608 302.181C659.62 302.15 659.638 302.122 659.66 302.097C659.683 302.073 659.71 302.054 659.74 302.04C660.297 301.785 660.903 301.653 661.515 301.653C662.128 301.653 662.733 301.785 663.29 302.04C663.32 302.053 663.348 302.072 663.37 302.095C663.393 302.119 663.411 302.148 663.422 302.179C663.433 302.21 663.438 302.243 663.436 302.275C663.434 302.308 663.425 302.34 663.41 302.37C663.389 302.412 663.355 302.446 663.315 302.469C663.274 302.492 663.227 302.503 663.18 302.5Z" fill="#263238"/>
<path opacity="0.7" d="M681.26 297.19C681.166 297.293 681.058 297.384 680.94 297.46L671.75 303.35L658.87 311.55C658.203 312.047 657.398 312.323 656.566 312.341C655.735 312.359 654.918 312.117 654.23 311.65C654.77 311.31 680.48 295.21 680.74 294.88L681.24 295.36C681.465 295.611 681.59 295.934 681.594 296.271C681.598 296.607 681.479 296.934 681.26 297.19Z" fill="white"/>
<path d="M595.271 283.43L610.541 292.84C609.401 304.29 606.541 314.69 607.651 320.31L602.731 323.84L596.021 316.84C596.021 316.84 596.591 296.35 595.271 283.43Z" fill="#B97964"/>
<path d="M595.41 311.79L599.95 311.7C602.27 315.42 603.76 314.48 605.95 311.7C607.27 311.52 607.65 313.02 607.77 313.43L610.43 322.35C610.54 322.708 610.504 323.095 610.33 323.426C610.155 323.758 609.857 324.007 609.5 324.12C609.367 324.159 609.229 324.179 609.09 324.18L598.19 324.41L582.93 324.74C578.77 324.82 577.82 320.65 579.53 320.23C587.2 318.36 592.6 315.98 594.94 313.68C595.41 313.35 594.95 313.02 595.41 311.79Z" fill="#7E57C2"/>
<path d="M596.01 316.35C595.969 316.351 595.928 316.342 595.891 316.322C595.854 316.303 595.823 316.275 595.8 316.24C595.502 315.791 595.109 315.413 594.65 315.131C594.191 314.85 593.676 314.672 593.14 314.61C593.108 314.606 593.076 314.596 593.047 314.58C593.018 314.563 592.992 314.542 592.972 314.516C592.951 314.49 592.936 314.46 592.927 314.428C592.919 314.396 592.916 314.363 592.92 314.33C592.923 314.296 592.932 314.264 592.948 314.234C592.964 314.204 592.985 314.178 593.012 314.157C593.038 314.137 593.068 314.122 593.101 314.114C593.133 314.105 593.167 314.104 593.2 314.11C593.805 314.186 594.386 314.392 594.903 314.713C595.421 315.034 595.863 315.462 596.2 315.97C596.235 316.024 596.247 316.09 596.234 316.154C596.221 316.217 596.184 316.273 596.13 316.31C596.095 316.334 596.053 316.348 596.01 316.35Z" fill="#263238"/>
<path d="M593.99 317.97C593.949 317.969 593.909 317.959 593.872 317.94C593.836 317.921 593.804 317.893 593.78 317.86C593.48 317.411 593.088 317.033 592.629 316.75C592.17 316.467 591.655 316.286 591.12 316.22C591.056 316.212 590.997 316.18 590.956 316.129C590.915 316.079 590.895 316.014 590.9 315.95C590.903 315.916 590.912 315.883 590.928 315.854C590.943 315.824 590.965 315.798 590.992 315.777C591.018 315.757 591.048 315.742 591.081 315.733C591.113 315.725 591.147 315.724 591.18 315.73C591.783 315.806 592.363 316.011 592.881 316.33C593.398 316.649 593.841 317.075 594.18 317.58C594.216 317.636 594.228 317.703 594.215 317.768C594.202 317.834 594.165 317.891 594.11 317.93C594.075 317.954 594.033 317.968 593.99 317.97Z" fill="#263238"/>
<path d="M591.47 319.35C591.427 319.352 591.385 319.342 591.347 319.321C591.31 319.3 591.28 319.268 591.26 319.23C590.961 318.782 590.568 318.405 590.109 318.123C589.65 317.842 589.135 317.663 588.6 317.6C588.567 317.596 588.536 317.586 588.507 317.57C588.478 317.554 588.452 317.532 588.432 317.506C588.411 317.48 588.396 317.45 588.387 317.418C588.379 317.386 588.376 317.353 588.38 317.32C588.381 317.287 588.389 317.254 588.404 317.225C588.419 317.195 588.439 317.169 588.465 317.148C588.491 317.127 588.52 317.112 588.552 317.104C588.584 317.095 588.618 317.094 588.65 317.1C589.255 317.176 589.835 317.382 590.353 317.703C590.871 318.024 591.313 318.452 591.65 318.96C591.672 318.997 591.685 319.04 591.686 319.084C591.687 319.127 591.677 319.171 591.657 319.21C591.637 319.248 591.608 319.282 591.572 319.306C591.536 319.331 591.494 319.346 591.45 319.35H591.47Z" fill="#263238"/>
<path opacity="0.7" d="M609.54 324.14C609.407 324.179 609.269 324.199 609.13 324.2L598.23 324.43L582.97 324.76C582.143 324.833 581.314 324.647 580.597 324.228C579.88 323.809 579.312 323.177 578.97 322.42C579.6 322.42 609.97 322.01 610.33 321.86L610.51 322.53C610.573 322.87 610.508 323.222 610.33 323.518C610.151 323.815 609.87 324.036 609.54 324.14Z" fill="white"/>
<path d="M615.89 64.8197C615.89 64.8197 614.18 59.1797 615.98 48.6597L615.41 48.4597C615.66 46.9897 615.94 45.6197 616.22 44.4597C616.222 44.443 616.222 44.4263 616.22 44.4097L603.22 54.5997C603.92 57.8197 603.46 64.2497 603.07 66.9897C603.07 66.9897 601.85 71.9897 608.28 71.4897C613.02 71.0897 615.89 64.8197 615.89 64.8197Z" fill="#B97964"/>
<path opacity="0.2" d="M603.54 59.1897L611.36 56.4697C610.91 59.0497 609.04 62.2597 603.49 63.1297C603.613 61.8199 603.63 60.5023 603.54 59.1897Z" fill="black"/>
<path d="M615.54 37.6097C615.6 46.5497 615.81 51.6097 611.61 56.4297C605.3 63.6997 594.28 60.4297 591.54 51.6897C589.08 43.7897 589.39 30.4997 597.89 26.4397C599.773 25.5419 601.854 25.1363 603.936 25.2608C606.019 25.3852 608.036 26.0357 609.799 27.1515C611.562 28.2672 613.013 29.8117 614.017 31.6407C615.021 33.4696 615.545 35.5233 615.54 37.6097Z" fill="#B97964"/>
<path d="M615.97 26.8196C614.41 21.9996 602.11 22.8196 598.85 25.5196C598.36 25.9296 605.85 29.0996 605.44 28.9696L608.95 29.9196C609.47 29.7696 610.55 30.3096 611.2 31.9196C611.2 31.9196 611.74 45.5996 615.88 49.2896C618.88 47.5596 618.7 42.1296 619.46 38.8496C620.59 33.9396 621.87 26.7896 615.97 26.8196Z" fill="#263238"/>
<path d="M619.59 44.7896C619.325 45.8682 618.848 46.8834 618.187 47.7761C617.526 48.6688 616.695 49.4212 615.74 49.9896C613.17 51.4896 611.98 48.6496 612.04 45.8296C612.1 43.2896 612.63 40.1596 615.52 39.8296C618.41 39.4996 620.23 42.1096 619.59 44.7896Z" fill="#B97964"/>
<path d="M603 41.0497C603.06 41.9597 602.63 42.7197 602 42.7597C601.37 42.7997 600.87 42.0797 600.81 41.1697C600.75 40.2597 601.18 39.4897 601.81 39.4597C602.44 39.4297 602.94 40.1397 603 41.0497Z" fill="#263238"/>
<path d="M594.071 41.8297C594.131 42.7397 593.701 43.5097 593.071 43.5497C592.441 43.5897 591.941 42.8697 591.881 41.9597C591.821 41.0497 592.251 40.2797 592.881 40.2497C593.511 40.2197 594.011 40.9197 594.071 41.8297Z" fill="#263238"/>
<path d="M596.95 41.1296C596.95 41.1296 594.37 45.8496 593.57 47.7596C594.92 48.8196 597.07 48.1396 597.07 48.1396L596.95 41.1296Z" fill="#A24E3F"/>
<path d="M604.93 36.5997C604.865 36.6384 604.791 36.6589 604.715 36.6589C604.64 36.6589 604.566 36.6384 604.5 36.5997C604.064 36.2853 603.559 36.078 603.028 35.9946C602.496 35.9112 601.952 35.9541 601.44 36.1197C601.336 36.1629 601.218 36.163 601.113 36.1199C601.008 36.0769 600.925 35.9941 600.881 35.8897C600.857 35.8386 600.845 35.7834 600.843 35.7273C600.842 35.6712 600.852 35.6155 600.872 35.5633C600.893 35.5111 600.924 35.4635 600.963 35.4234C601.002 35.3833 601.049 35.3514 601.1 35.3297C601.746 35.1111 602.435 35.0487 603.109 35.1478C603.784 35.2469 604.425 35.5046 604.98 35.8997C605.028 35.93 605.068 35.9695 605.1 36.0158C605.132 36.0621 605.154 36.1143 605.165 36.1693C605.176 36.2243 605.176 36.281 605.165 36.3361C605.154 36.3911 605.132 36.4433 605.1 36.4897C605.053 36.5385 604.995 36.5761 604.93 36.5997Z" fill="#263238"/>
<path d="M600.25 51.2197C600.161 51.2051 600.08 51.1594 600.022 51.0907C599.964 51.022 599.932 50.9348 599.932 50.8447C599.932 50.7546 599.964 50.6674 600.022 50.5987C600.08 50.53 600.161 50.4843 600.25 50.4697C600.922 50.3864 601.57 50.166 602.153 49.8219C602.736 49.4778 603.242 49.0176 603.64 48.4697C603.675 48.4343 603.716 48.4062 603.761 48.387C603.807 48.3678 603.856 48.3579 603.905 48.3579C603.955 48.3579 604.003 48.3678 604.049 48.387C604.095 48.4062 604.136 48.4343 604.17 48.4697C604.239 48.5406 604.278 48.6357 604.278 48.7347C604.278 48.8337 604.239 48.9288 604.17 48.9997C603.702 49.6113 603.115 50.1222 602.445 50.5019C601.775 50.8816 601.035 51.1223 600.27 51.2097L600.25 51.2197Z" fill="#263238"/>
<path opacity="0.2" d="M613.54 45.6596C613.507 45.6598 613.474 45.653 613.443 45.6397C613.413 45.6264 613.386 45.6069 613.363 45.5824C613.34 45.558 613.323 45.5291 613.312 45.4976C613.302 45.4662 613.297 45.4328 613.3 45.3996C613.331 44.5825 613.579 43.7883 614.02 43.0996C614.381 42.4903 614.938 42.0214 615.6 41.7696C615.95 41.6539 616.326 41.6433 616.681 41.7393C617.037 41.8353 617.356 42.0336 617.6 42.3097C617.646 42.3564 617.672 42.4192 617.672 42.4846C617.672 42.5501 617.646 42.6129 617.6 42.6596C617.578 42.6836 617.551 42.7026 617.52 42.7157C617.49 42.7287 617.458 42.7354 617.425 42.7354C617.392 42.7354 617.36 42.7287 617.33 42.7157C617.3 42.7026 617.273 42.6836 617.25 42.6596C617.068 42.4582 616.83 42.3155 616.566 42.2496C616.303 42.1837 616.026 42.1976 615.77 42.2896C615.222 42.4991 614.763 42.8911 614.47 43.3996C614.073 44.0159 613.849 44.7272 613.82 45.4596C613.808 45.5225 613.772 45.5783 613.72 45.6155C613.668 45.6527 613.604 45.6685 613.54 45.6596Z" fill="black"/>
<path d="M589.87 38.2596C589.786 38.2418 589.707 38.2041 589.64 38.1496C589.562 38.0693 589.519 37.9616 589.519 37.8495C589.519 37.7375 589.562 37.6298 589.64 37.5495C590.077 37.034 590.631 36.6311 591.256 36.3752C591.881 36.1193 592.558 36.0179 593.23 36.0795C593.287 36.0868 593.341 36.1054 593.39 36.1343C593.439 36.1631 593.482 36.2016 593.515 36.2475C593.549 36.2933 593.573 36.3454 593.586 36.4008C593.599 36.4562 593.6 36.5136 593.59 36.5696C593.583 36.6246 593.565 36.6777 593.537 36.7255C593.508 36.7732 593.47 36.8147 593.426 36.8475C593.381 36.8802 593.33 36.9035 593.275 36.9159C593.221 36.9283 593.165 36.9295 593.11 36.9196C592.577 36.8749 592.04 36.9609 591.547 37.1699C591.054 37.379 590.619 37.7049 590.28 38.1196C590.23 38.1763 590.166 38.219 590.094 38.2435C590.022 38.268 589.945 38.2736 589.87 38.2596Z" fill="#263238"/>
<path d="M617.54 22.8296C616.71 20.8896 614.091 20.6697 612.171 21.2397C612.051 18.7997 608.76 17.6597 606.77 17.8997C605.745 17.9143 604.764 18.3224 604.03 19.0397C604.19 19.0397 603.29 17.8896 602.76 17.4396C601.795 16.6241 600.607 16.1167 599.351 15.983C598.094 15.8493 596.826 16.0954 595.71 16.6896C594.603 17.3584 593.706 18.3256 593.122 19.4804C592.538 20.6353 592.292 21.9311 592.41 23.2196C592.062 22.934 591.661 22.7207 591.229 22.592C590.797 22.4634 590.344 22.4221 589.896 22.4705C589.449 22.5189 589.015 22.6561 588.621 22.874C588.226 23.0919 587.88 23.3862 587.6 23.7397C587.078 24.5169 586.855 25.4579 586.975 26.387C587.094 27.3162 587.548 28.1701 588.251 28.7897C587.475 28.951 586.794 29.4128 586.358 30.0742C585.921 30.7356 585.764 31.5428 585.921 32.3197C586.087 33.0876 586.547 33.7598 587.204 34.1918C587.86 34.6238 588.659 34.781 589.431 34.6297C589.681 36.4197 590.061 38.6297 590.311 40.4497L592.14 33.6197C593.34 33.0797 593.53 32.4897 593.66 31.1197C594.72 32.7397 596.14 32.4796 597.97 32.2496C598.906 32.1079 599.785 31.7109 600.51 31.1022C601.235 30.4936 601.779 29.6969 602.08 28.7997C602.592 29.6585 603.327 30.3619 604.208 30.834C605.089 31.3062 606.082 31.5294 607.08 31.4797C608.068 31.346 608.97 30.8485 609.61 30.0846C610.25 29.3207 610.582 28.3454 610.54 27.3497C611.177 28.1466 612.08 28.6867 613.084 28.8705C614.087 29.0543 615.123 28.8693 616.001 28.3497C616.838 27.7349 617.445 26.8567 617.725 25.8558C618.004 24.8549 617.939 23.7893 617.54 22.8296Z" fill="#263238"/>
<path d="M631.07 64.2498C631.07 64.2498 639.07 64.4698 642.22 73.3398C645.22 81.5098 652.66 99.5298 652.66 99.5298L634.75 104.77L627.62 83.4398L631.07 64.2498Z" fill="#7E57C2"/>
<path d="M601.83 149.35L612.62 172.35C612.62 172.35 595.48 223.94 594.45 229.35C593.42 234.76 592.94 302.47 592.94 302.47H612.01L619.54 236.35C619.54 236.35 642.69 180.23 644.39 175.67C647.57 167.13 644.24 155.67 644.24 155.67L638.34 147.17L601.83 149.35Z" fill="#263238"/>
<path d="M591.35 160.88C591.35 162.97 598.79 234.43 600.01 234.69C601.23 234.95 655.13 293.89 655.13 293.89L670.43 280.45L630.89 226.83L626.54 178.65L624.97 148.35L590.54 150.92L591.35 160.88Z" fill="#263238"/>
<path opacity="0.4" d="M617.51 253.33L618.46 236.54L629.54 211.99L621.22 237.95L620.43 255.72L617.51 253.33Z" fill="black"/>
<path opacity="0.4" d="M597.53 218.39L612.62 172.36L607.36 167.56L609.03 174.16L596.87 212.93L597.53 218.39Z" fill="black"/>
<path d="M545.37 86.6296L568.72 108.06L579.6 87.7996C579.6 87.7996 591.48 99.5296 591.07 99.6996C590.66 99.8696 577.07 129.59 567.3 124.26C557.53 118.93 540.96 92.1096 540.96 92.1096L545.37 86.6296Z" fill="#B97964"/>
<path opacity="0.2" d="M568.72 108.06C568.72 108.06 570.72 111.3 570.49 114.36C571.1 113.146 571.32 111.773 571.12 110.43C570.957 108.962 570.457 107.552 569.66 106.31L568.72 108.06Z" fill="black"/>
<path d="M590.21 69.5697C596.59 72.8397 599.15 84.4597 585.45 112.48L569.09 99.8497C571.71 92.8497 574.37 89.2297 578.57 80.7397C585.22 67.5697 590.21 69.5697 590.21 69.5697Z" fill="#7E57C2"/>
<path d="M590.01 69.1498C594.51 68.1498 612.39 63.4697 631.51 64.2697L641.62 135.51C641.62 135.51 643.62 144.85 646.27 154.1C628.05 164.65 602.77 166.35 589.21 160.6C589.39 160.88 588.96 152.99 588.38 141.43C587.38 121.06 585.84 89.2798 586.31 70.7298C586.33 70.2798 589.54 69.2498 590.01 69.1498Z" fill="#7E57C2"/>
<path opacity="0.2" d="M586.93 109.38L586.29 86.3396L583.38 110.88L585.45 112.48L586.93 109.38Z" fill="black"/>
<path opacity="0.2" d="M635.75 104.48L634.75 104.77L628.23 87.2996L633.12 107.29L636.45 107.31L635.75 104.48Z" fill="black"/>
<path d="M547.62 90.3497C547.62 90.3497 549.41 87.5197 548.77 84.8297C548.13 82.1397 548.34 79.8297 547.77 77.8297C547.2 75.8297 546.04 78.4097 545.77 79.8897C545.5 81.3697 545.08 83.0397 544 82.6297C542.92 82.2197 536.72 74.5097 535.17 74.0997C533.62 73.6897 534.23 75.2497 534.23 75.2497C534.23 75.2497 532.67 73.4197 531.78 73.8397C531.55 73.9497 531.19 74.5797 531.78 75.5197C533.08 77.6497 536.05 81.9697 536.05 81.9697C535.88 81.7197 531.84 76.6497 531.13 75.9697C530.21 75.0797 529.33 75.1297 528.83 75.6797C528.12 76.4597 532.92 82.9197 532.93 83.3397C532.93 83.3397 530.29 79.5197 528.93 79.6697C527.57 79.8197 529.11 82.2997 530.87 84.2397C532.49 86.0197 535.2 89.9297 537.02 91.5697C539.27 93.5697 541.23 94.4597 543.83 93.3297C545.329 92.6784 546.634 91.6521 547.62 90.3497Z" fill="#B97964"/>
<path opacity="0.3" d="M537.83 80.2298C537.81 80.2301 537.789 80.2247 537.772 80.2141C537.754 80.2035 537.74 80.1881 537.73 80.1698C536.66 78.5698 535.51 77.0097 534.31 75.5297C534.297 75.5185 534.287 75.5046 534.28 75.4891C534.273 75.4736 534.27 75.4568 534.27 75.4397C534.27 75.4227 534.273 75.4059 534.28 75.3904C534.287 75.3749 534.297 75.361 534.31 75.3497C534.321 75.3386 534.335 75.3297 534.349 75.3236C534.364 75.3176 534.379 75.3145 534.395 75.3145C534.411 75.3145 534.427 75.3176 534.441 75.3236C534.456 75.3297 534.469 75.3386 534.48 75.3497C535.69 76.8397 536.84 78.4098 537.92 80.0098C537.941 80.035 537.953 80.0668 537.953 80.0997C537.953 80.1327 537.941 80.1645 537.92 80.1897L537.83 80.2298Z" fill="black"/>
<path opacity="0.3" d="M533.81 84.9796C533.788 84.9872 533.763 84.9872 533.74 84.9796C533.729 84.9684 533.72 84.9552 533.714 84.9406C533.708 84.926 533.705 84.9104 533.705 84.8946C533.705 84.8788 533.708 84.8631 533.714 84.8486C533.72 84.834 533.729 84.8207 533.74 84.8096C535.228 82.7593 537.282 81.1883 539.65 80.2896C539.679 80.287 539.709 80.2943 539.733 80.3103C539.758 80.3264 539.776 80.3502 539.785 80.378C539.794 80.4057 539.794 80.4358 539.784 80.4633C539.774 80.4908 539.755 80.5142 539.73 80.5296C537.412 81.4095 535.4 82.9454 533.94 84.9496C533.925 84.9681 533.904 84.9811 533.88 84.9865C533.857 84.992 533.832 84.9895 533.81 84.9796Z" fill="black"/>
<path opacity="0.3" d="M543.331 89.5596C543.311 89.5585 543.293 89.5536 543.275 89.545C543.258 89.5364 543.243 89.5243 543.231 89.5096C542.598 88.6656 542.28 87.6274 542.331 86.5741C542.383 85.5208 542.8 84.5184 543.511 83.7395C543.536 83.7184 543.568 83.7068 543.601 83.7068C543.633 83.7068 543.665 83.7184 543.691 83.7395C543.714 83.7638 543.727 83.796 543.727 83.8295C543.727 83.8631 543.714 83.8953 543.691 83.9196C543.017 84.6537 542.621 85.6005 542.571 86.5958C542.522 87.5911 542.823 88.5724 543.421 89.3696C543.432 89.3807 543.441 89.3939 543.447 89.4085C543.453 89.4231 543.456 89.4388 543.456 89.4545C543.456 89.4703 543.453 89.486 543.447 89.5006C543.441 89.5152 543.432 89.5284 543.421 89.5396C543.394 89.557 543.362 89.5641 543.331 89.5596Z" fill="black"/>
<path d="M651.31 99.9197C651.31 99.9197 656.7 112.68 658.98 124.13C659.98 129.33 655.86 132.67 651.61 133.69C638.21 136.93 608.01 136.94 608.01 136.94L607.22 127.73L642 120.21L635.75 104.48L651.31 99.9197Z" fill="#B97964"/>
<path d="M607.941 138.91L596.54 140.19C596.347 140.21 596.152 140.188 595.969 140.124C595.785 140.06 595.619 139.956 595.48 139.82L578.131 122.67C577.968 122.509 577.851 122.307 577.791 122.087C577.731 121.866 577.73 121.633 577.789 121.412C577.848 121.19 577.964 120.989 578.126 120.827C578.288 120.665 578.489 120.549 578.71 120.49L588.71 117.91C588.926 117.852 589.154 117.851 589.37 117.909C589.586 117.967 589.783 118.081 589.941 118.24L608.67 136.69C608.845 136.859 608.969 137.075 609.027 137.312C609.085 137.548 609.075 137.796 608.999 138.028C608.923 138.259 608.783 138.465 608.596 138.621C608.409 138.776 608.182 138.877 607.941 138.91Z" fill="#263238"/>
<path d="M609 127.78C609 127.78 608.68 126.44 603.64 124.9C599.81 123.73 596 120.15 595.38 120.27C594.76 120.39 594.09 122.35 595.68 124.07C597.27 125.79 598.92 126.77 598.5 127.43C597.5 129.02 585.02 127.72 584.8 129.08C584.58 130.44 586.97 134.34 593.64 136.94C600.31 139.54 609.47 136.94 609.47 136.94L609 127.78Z" fill="#B97964"/>
<path d="M546.08 279.41L20.23 291.73V201.79H551.14L546.08 279.41Z" fill="#263238"/>
<path opacity="0.5" d="M546.08 279.41L20.23 291.73V201.79H551.14L546.08 279.41Z" fill="black"/>
<path d="M0 224.87V270.48C0.000761769 275.24 1.52529 279.874 4.35039 283.705C7.17549 287.536 11.1528 290.362 15.7 291.77L19.42 292.9C21.7065 293.616 24.0946 293.953 26.49 293.9L51.05 293.32C48.4365 284.179 47.9522 274.561 49.6345 265.205C51.3167 255.848 55.1206 247.001 60.7542 239.343C66.3879 231.686 73.7013 225.421 82.1331 221.03C90.565 216.639 99.8909 214.238 109.395 214.012C118.899 213.786 128.328 215.741 136.959 219.727C145.59 223.713 153.193 229.624 159.184 237.005C165.175 244.387 169.394 253.043 171.519 262.309C173.644 271.575 173.617 281.205 171.44 290.46L421.34 284.52C420.939 281.6 420.742 278.656 420.75 275.71C420.688 267.477 422.26 259.313 425.376 251.692C428.491 244.071 433.089 237.145 438.901 231.313C444.713 225.482 451.625 220.863 459.236 217.722C466.847 214.582 475.005 212.983 483.238 213.019C491.471 213.055 499.616 214.724 507.199 217.93C514.782 221.137 521.653 225.816 527.415 231.698C533.177 237.579 537.713 244.545 540.763 252.193C543.812 259.841 545.314 268.017 545.18 276.25C545.18 277.46 545.09 278.65 545.09 279.85C545.43 279.724 545.764 279.58 546.09 279.42L554.64 275.61C558.767 273.745 562.269 270.73 564.726 266.926C567.182 263.121 568.489 258.688 568.49 254.16V161.26C568.492 156.973 567.322 152.768 565.106 149.098C562.891 145.428 559.714 142.434 555.92 140.44L491.69 106.66C491.114 106.352 490.638 105.884 490.322 105.313C490.005 104.741 489.86 104.091 489.904 103.439C489.949 102.787 490.18 102.162 490.572 101.639C490.963 101.115 491.497 100.716 492.11 100.49L499.97 97.6696C500.363 97.537 500.699 97.275 500.923 96.9265C501.148 96.5779 501.247 96.1635 501.205 95.7511C501.164 95.3386 500.983 94.9526 500.693 94.6562C500.403 94.3598 500.021 94.1706 499.61 94.1196C469.08 89.8396 350.38 74.3496 287.98 81.9496C215.98 90.7596 147.03 153.22 147.03 153.22C94.03 151.22 44.62 169.67 23.33 178.92C19.933 180.405 16.8839 182.584 14.3783 185.317C11.8726 188.05 9.9658 191.277 8.78 194.79L1.54 216.35C0.571695 219.088 0.0516767 221.965 0 224.87Z" fill="#7E57C2"/>
<path d="M421.41 284.5C421.04 281.759 420.86 278.995 420.87 276.23C420.87 274.82 420.87 273.43 421 272.04L375.81 253.55C373.164 252.477 370.31 252.012 367.46 252.19L210.28 262.51C207.712 262.66 205.202 263.341 202.91 264.51L173.05 279.87C172.839 283.429 172.334 286.964 171.54 290.44L421.41 284.5Z" fill="#263238"/>
<path d="M568.54 254.14V251.77L542.98 259.59C544.473 265.01 545.227 270.607 545.22 276.23C545.22 277.44 545.13 278.63 545.13 279.83C545.47 279.703 545.804 279.56 546.13 279.4L554.7 275.59C558.825 273.724 562.325 270.708 564.78 266.903C567.235 263.099 568.54 258.667 568.54 254.14Z" fill="#263238"/>
<path d="M7.25977 286.85C9.69771 289.109 12.6131 290.791 15.7898 291.77L19.5398 292.9C21.8294 293.617 24.221 293.955 26.6198 293.9L51.1398 293.35C50.2509 290.249 49.6089 287.082 49.2198 283.88L7.25977 286.85Z" fill="#263238"/>
<path d="M483.13 208.17C473.479 208.16 463.937 210.204 455.137 214.167C446.338 218.13 438.482 223.921 432.094 231.154C425.705 238.388 420.929 246.898 418.083 256.12C415.238 265.342 414.388 275.064 415.59 284.64L421.49 284.5C420.307 276.033 420.881 267.413 423.176 259.178C425.472 250.943 429.44 243.27 434.833 236.636C440.226 230.003 446.928 224.552 454.521 220.624C462.114 216.696 470.435 214.374 478.965 213.805C487.495 213.235 496.051 214.429 504.099 217.313C512.147 220.197 519.514 224.708 525.741 230.566C531.968 236.423 536.922 243.501 540.292 251.357C543.662 259.214 545.377 267.681 545.33 276.23C545.33 277.44 545.23 278.63 545.23 279.83C545.571 279.703 545.904 279.56 546.23 279.4L551.14 277.18V276.23C551.122 258.183 543.944 240.881 531.182 228.121C518.42 215.361 501.117 208.186 483.07 208.17H483.13Z" fill="#263238"/>
<path d="M110.96 208.17C100.554 208.166 90.2855 210.549 80.9445 215.135C71.6034 219.721 63.4383 226.388 57.0768 234.623C50.7153 242.858 46.3269 252.442 44.2488 262.638C42.1708 272.835 42.4585 283.372 45.0898 293.44L51.0898 293.3C48.5037 284.167 48.0417 274.563 49.7392 265.225C51.4367 255.886 55.2487 247.059 60.8833 239.421C66.5179 231.782 73.8257 225.534 82.2471 221.156C90.6686 216.777 99.9804 214.383 109.47 214.158C118.959 213.932 128.374 215.882 136.993 219.856C145.613 223.83 153.209 229.724 159.2 237.086C165.191 244.449 169.417 253.084 171.556 262.332C173.695 271.58 173.69 281.194 171.54 290.44L177.54 290.29C179.635 280.377 179.49 270.122 177.115 260.273C174.741 250.423 170.198 241.229 163.816 233.359C157.435 225.49 149.378 219.145 140.231 214.787C131.085 210.429 121.081 208.168 110.95 208.17H110.96Z" fill="#263238"/>
<path d="M170.19 155.83C169.595 156.361 169.145 157.035 168.882 157.788C168.62 158.542 168.555 159.35 168.692 160.135C168.829 160.921 169.164 161.659 169.666 162.279C170.168 162.9 170.82 163.381 171.56 163.68L197.56 170.96C199.85 171.609 202.248 171.789 204.61 171.49L397.21 147.63C402.028 146.949 406.421 144.505 409.54 140.77L434.83 111.35C435.688 110.335 436.215 109.082 436.34 107.76C436.69 104.41 434.58 101.39 431.65 101.01C385.54 94.8795 327.21 89.3495 290.39 93.8095C242.13 99.6995 193.54 135.98 170.19 155.83Z" fill="#7E57C2"/>
<path opacity="0.8" d="M171.06 155.83C170.465 156.361 170.015 157.035 169.753 157.788C169.49 158.542 169.425 159.35 169.562 160.136C169.699 160.921 170.035 161.659 170.536 162.28C171.038 162.9 171.69 163.382 172.43 163.68L198.43 170.96C200.72 171.609 203.118 171.789 205.48 171.49L393.78 158.59C398.47 157.99 405.71 149.38 410.83 142.38L435.69 111.35C436.555 110.339 437.086 109.085 437.21 107.76C437.55 104.41 435.45 101.39 432.52 101.01C386.39 94.8997 328.08 89.3397 291.26 93.8297C242.99 99.6997 194.41 135.98 171.06 155.83Z" fill="white"/>
<g opacity="0.3">
<path d="M296.88 174.19C296.299 173.973 295.825 173.539 295.558 172.979C295.291 172.419 295.253 171.777 295.45 171.19C295.719 170.443 296.204 169.793 296.843 169.323C297.483 168.853 298.247 168.584 299.04 168.55L321.96 167.55C322.269 167.532 322.578 167.576 322.87 167.68C323.466 167.896 323.952 168.339 324.223 168.912C324.494 169.485 324.529 170.141 324.32 170.74C324.048 171.487 323.559 172.137 322.916 172.605C322.273 173.074 321.505 173.34 320.71 173.37L297.79 174.37C297.478 174.371 297.168 174.31 296.88 174.19Z" fill="black"/>
</g>
<path d="M467.34 108.509C466.37 109.379 465.784 110.597 465.709 111.897C465.634 113.197 466.077 114.474 466.94 115.449L472.37 121.359C472.999 122.02 473.793 122.5 474.67 122.749L541.25 141.219C542.411 141.53 543.608 141.688 544.81 141.689H558.04C557.35 141.229 556.64 140.809 555.91 140.419L491.68 106.609C490.903 106.225 490.311 105.547 490.033 104.726C489.756 103.905 489.816 103.007 490.2 102.229L469.34 107.449C468.601 107.645 467.917 108.008 467.34 108.509Z" fill="#7E57C2"/>
<path d="M52.6999 187.62L29.9799 185.14L16.9799 190.48C15.6254 191.031 14.4193 191.893 13.4587 192.996C12.4982 194.099 11.8101 195.412 11.4499 196.83C11.0189 198.494 11.2595 200.261 12.1199 201.75L12.3499 202.14C13.0629 203.369 14.1254 204.358 15.4022 204.981C16.679 205.604 18.1124 205.833 19.5199 205.64L32.6199 203.84C33.8828 203.64 35.0757 203.128 36.0899 202.35L51.1999 190.88L52.6999 187.62Z" fill="white"/>
<path d="M147.08 153.19L150.7 154.19C152.085 154.584 153.545 154.632 154.953 154.329C156.36 154.025 157.671 153.38 158.77 152.45C179.83 134.64 216.44 107.31 255.94 94.5797C256.077 94.535 256.198 94.4514 256.288 94.339C256.378 94.2267 256.433 94.0905 256.447 93.9473C256.461 93.804 256.432 93.6598 256.365 93.5323C256.298 93.4049 256.196 93.2997 256.07 93.2297L251.16 90.7097C194.17 110.5 147.08 153.19 147.08 153.19Z" fill="#7E57C2"/>
<path opacity="0.8" d="M147.08 153.19L150.7 154.19C152.085 154.584 153.545 154.632 154.953 154.329C156.36 154.025 157.671 153.38 158.77 152.45C179.83 134.64 216.44 107.31 255.94 94.5797C256.077 94.535 256.198 94.4514 256.288 94.339C256.378 94.2267 256.433 94.0905 256.447 93.9473C256.461 93.804 256.432 93.6598 256.365 93.5323C256.298 93.4049 256.196 93.2997 256.07 93.2297L251.16 90.7097C194.17 110.5 147.08 153.19 147.08 153.19Z" fill="white"/>
<path opacity="0.2" d="M363 177.24L171.54 190.93L175.15 214.55C176.252 221.784 178.932 228.687 183 234.77L199 258.69L362.42 236.59L439.69 177.24H363Z" fill="white"/>
<path d="M483.07 328.06C511.7 328.06 534.91 304.85 534.91 276.22C534.91 247.589 511.7 224.38 483.07 224.38C454.44 224.38 431.23 247.589 431.23 276.22C431.23 304.85 454.44 328.06 483.07 328.06Z" fill="#263238"/>
<path opacity="0.4" d="M483.07 308C500.622 308 514.85 293.771 514.85 276.22C514.85 258.668 500.622 244.44 483.07 244.44C465.518 244.44 451.29 258.668 451.29 276.22C451.29 293.771 465.518 308 483.07 308Z" fill="white"/>
<g opacity="0.3">
<path d="M483.08 247.64H483.07C481.667 247.64 480.53 248.777 480.53 250.18V266.47C480.53 267.872 481.667 269.01 483.07 269.01H483.08C484.483 269.01 485.62 267.872 485.62 266.47V250.18C485.62 248.777 484.483 247.64 483.08 247.64Z" fill="white"/>
</g>
<g opacity="0.3">
<path d="M483.08 283.45H483.07C481.667 283.45 480.53 284.587 480.53 285.99V302.28C480.53 303.682 481.667 304.82 483.07 304.82H483.08C484.483 304.82 485.62 303.682 485.62 302.28V285.99C485.62 284.587 484.483 283.45 483.08 283.45Z" fill="white"/>
</g>
<g opacity="0.3">
<path d="M492.78 273.56C492.195 273.892 491.502 273.978 490.853 273.8C490.205 273.622 489.653 273.194 489.32 272.61C488.986 272.027 488.897 271.336 489.071 270.688C489.245 270.039 489.669 269.486 490.25 269.15L504.35 260.96C504.938 260.623 505.635 260.532 506.289 260.708C506.943 260.885 507.501 261.313 507.84 261.9C508.171 262.485 508.257 263.178 508.082 263.827C507.906 264.477 507.481 265.031 506.9 265.37L492.81 273.55L492.78 273.56Z" fill="white"/>
</g>
<g opacity="0.3">
<path d="M461.77 291.35C461.187 291.683 460.496 291.773 459.848 291.599C459.2 291.424 458.647 291 458.31 290.42C458.143 290.132 458.035 289.813 457.992 289.483C457.948 289.153 457.971 288.818 458.057 288.497C458.143 288.175 458.292 287.874 458.495 287.61C458.698 287.347 458.951 287.125 459.24 286.96L473.34 278.77C473.628 278.601 473.946 278.491 474.277 278.446C474.608 278.401 474.944 278.422 475.266 278.508C475.589 278.593 475.891 278.742 476.156 278.944C476.421 279.147 476.643 279.401 476.81 279.69C476.979 279.978 477.089 280.298 477.134 280.629C477.179 280.96 477.158 281.297 477.073 281.621C476.987 281.944 476.839 282.247 476.636 282.513C476.433 282.779 476.179 283.002 475.89 283.17L461.78 291.35H461.77Z" fill="white"/>
</g>
<g opacity="0.3">
<path d="M504.35 291.45L490.25 283.27C489.665 282.929 489.239 282.371 489.065 281.717C488.891 281.063 488.982 280.366 489.32 279.78C489.664 279.198 490.223 278.776 490.877 278.604C491.53 278.432 492.224 278.524 492.81 278.86L506.9 287.05C507.481 287.389 507.906 287.943 508.082 288.592C508.258 289.241 508.171 289.934 507.84 290.52C507.673 290.81 507.449 291.065 507.183 291.269C506.916 291.473 506.612 291.623 506.288 291.709C505.964 291.795 505.626 291.817 505.293 291.772C504.961 291.728 504.64 291.618 504.35 291.45Z" fill="white"/>
</g>
<g opacity="0.3">
<path d="M476.81 272.62C476.471 273.201 475.916 273.625 475.265 273.798C474.615 273.97 473.922 273.877 473.34 273.54L459.24 265.35C458.951 265.184 458.698 264.963 458.495 264.699C458.292 264.435 458.143 264.134 458.057 263.813C457.971 263.491 457.948 263.156 457.992 262.826C458.035 262.496 458.143 262.178 458.31 261.89C458.649 261.308 459.203 260.884 459.853 260.71C460.503 260.536 461.196 260.625 461.78 260.96L475.89 269.15C476.178 269.317 476.43 269.54 476.632 269.805C476.834 270.07 476.982 270.373 477.066 270.695C477.151 271.018 477.171 271.354 477.125 271.684C477.079 272.014 476.969 272.332 476.8 272.62H476.81Z" fill="white"/>
</g>
<path d="M478.81 276.21C478.81 275.08 479.259 273.996 480.057 273.197C480.856 272.399 481.94 271.95 483.07 271.95C483.917 271.948 484.745 272.197 485.45 272.666C486.156 273.135 486.706 273.803 487.031 274.585C487.357 275.367 487.443 276.228 487.279 277.059C487.115 277.889 486.708 278.653 486.11 279.253C485.512 279.852 484.749 280.261 483.918 280.427C483.088 280.593 482.227 280.509 481.444 280.185C480.662 279.861 479.993 279.313 479.522 278.609C479.051 277.905 478.8 277.077 478.8 276.23L478.81 276.21Z" fill="#263238"/>
<path d="M110.96 328.07C139.591 328.07 162.8 304.86 162.8 276.23C162.8 247.599 139.591 224.39 110.96 224.39C82.3297 224.39 59.1201 247.599 59.1201 276.23C59.1201 304.86 82.3297 328.07 110.96 328.07Z" fill="#263238"/>
<path opacity="0.4" d="M110.96 308.01C128.512 308.01 142.74 293.781 142.74 276.23C142.74 258.678 128.512 244.45 110.96 244.45C93.4086 244.45 79.1802 258.678 79.1802 276.23C79.1802 293.781 93.4086 308.01 110.96 308.01Z" fill="white"/>
<g opacity="0.3">
<path d="M110.96 247.64H110.95C109.547 247.64 108.41 248.777 108.41 250.18V266.47C108.41 267.872 109.547 269.01 110.95 269.01H110.96C112.363 269.01 113.5 267.872 113.5 266.47V250.18C113.5 248.777 112.363 247.64 110.96 247.64Z" fill="white"/>
</g>
<g opacity="0.3">
<path d="M110.96 283.45H110.95C109.547 283.45 108.41 284.587 108.41 285.99V302.28C108.41 303.682 109.547 304.82 110.95 304.82H110.96C112.363 304.82 113.5 303.682 113.5 302.28V285.99C113.5 284.587 112.363 283.45 110.96 283.45Z" fill="white"/>
</g>
<g opacity="0.3">
<path d="M120.65 273.56C120.363 273.723 120.046 273.829 119.718 273.87C119.389 273.91 119.056 273.886 118.738 273.798C118.419 273.709 118.121 273.559 117.86 273.355C117.6 273.151 117.382 272.898 117.22 272.61C117.051 272.322 116.941 272.004 116.895 271.674C116.849 271.344 116.869 271.008 116.954 270.686C117.038 270.363 117.186 270.06 117.388 269.795C117.59 269.53 117.842 269.307 118.13 269.14L132.25 260.95C132.54 260.783 132.859 260.676 133.19 260.633C133.521 260.59 133.858 260.613 134.18 260.7C134.502 260.787 134.804 260.937 135.069 261.142C135.333 261.346 135.554 261.6 135.72 261.89C135.887 262.179 135.994 262.499 136.037 262.83C136.08 263.161 136.057 263.497 135.97 263.82C135.882 264.142 135.732 264.444 135.528 264.708C135.324 264.972 135.07 265.194 134.78 265.36L120.69 273.54L120.65 273.56Z" fill="white"/>
</g>
<g opacity="0.3">
<path d="M86.1898 290.46C86.0232 290.171 85.9151 289.853 85.8717 289.523C85.8283 289.193 85.8504 288.858 85.9368 288.537C86.0232 288.215 86.1722 287.914 86.3752 287.65C86.5782 287.386 86.8312 287.165 87.1198 287L101.22 278.81C101.509 278.641 101.829 278.53 102.161 278.485C102.494 278.44 102.831 278.46 103.156 278.546C103.48 278.631 103.784 278.78 104.051 278.983C104.317 279.186 104.541 279.44 104.71 279.73C105.046 280.316 105.136 281.012 104.96 281.664C104.784 282.317 104.356 282.873 103.77 283.21L89.6798 291.35C89.0981 291.691 88.4053 291.789 87.7518 291.622C87.0983 291.455 86.537 291.038 86.1898 290.46Z" fill="white"/>
</g>
<g opacity="0.3">
<path d="M135.71 290.529C135.544 290.818 135.323 291.071 135.059 291.274C134.795 291.477 134.493 291.625 134.172 291.711C133.85 291.796 133.514 291.817 133.185 291.772C132.855 291.728 132.537 291.618 132.25 291.449L118.13 283.269C117.548 282.926 117.126 282.366 116.956 281.712C116.785 281.058 116.88 280.364 117.22 279.779C117.558 279.198 118.114 278.774 118.764 278.601C119.415 278.429 120.108 278.522 120.69 278.859L134.78 287.049C135.361 287.388 135.785 287.943 135.96 288.593C136.134 289.243 136.044 289.935 135.71 290.519V290.529Z" fill="white"/>
</g>
<g opacity="0.3">
<path d="M104.69 272.64C104.521 272.927 104.298 273.178 104.032 273.379C103.767 273.58 103.464 273.727 103.142 273.81C102.819 273.894 102.484 273.913 102.154 273.866C101.824 273.82 101.507 273.709 101.22 273.54L87.1198 265.35C86.8312 265.184 86.5782 264.963 86.3752 264.699C86.1722 264.435 86.0232 264.134 85.9368 263.813C85.8504 263.491 85.8283 263.156 85.8717 262.826C85.9151 262.496 86.0232 262.178 86.1898 261.89C86.5287 261.303 87.0864 260.875 87.7406 260.698C88.3947 260.522 89.0921 260.613 89.6798 260.95L103.77 269.14C104.351 269.478 104.775 270.033 104.95 270.683C105.124 271.333 105.034 272.025 104.7 272.61L104.69 272.64Z" fill="white"/>
</g>
<path d="M110.96 271.95C111.807 271.948 112.635 272.197 113.34 272.666C114.046 273.135 114.596 273.803 114.921 274.585C115.247 275.367 115.333 276.228 115.169 277.059C115.005 277.889 114.598 278.653 114 279.253C113.402 279.852 112.639 280.261 111.809 280.427C110.978 280.593 110.117 280.509 109.334 280.185C108.552 279.861 107.883 279.313 107.412 278.609C106.941 277.905 106.69 277.077 106.69 276.23C106.69 275.096 107.139 274.009 107.94 273.207C108.74 272.404 109.827 271.952 110.96 271.95Z" fill="#263238"/>
<path opacity="0.3" d="M563.06 178.44C563.471 178.312 563.852 178.105 564.183 177.829C564.513 177.554 564.786 177.216 564.986 176.836C565.185 176.455 565.308 176.038 565.347 175.61C565.385 175.182 565.339 174.75 565.21 174.34C564.61 163.42 562.29 153.71 555.6 147.03C555.382 146.316 554.927 145.699 554.311 145.279C553.695 144.859 552.954 144.662 552.21 144.72L512.71 148.45C512.02 148.519 511.371 148.81 510.86 149.28C510.54 149.567 510.281 149.915 510.096 150.303C509.911 150.691 509.805 151.112 509.784 151.542C509.762 151.971 509.826 152.401 509.971 152.805C510.117 153.21 510.341 153.582 510.63 153.9L521.94 166.1C522.333 166.52 522.83 166.831 523.38 167L561.2 178.46C561.81 178.628 562.454 178.621 563.06 178.44Z" fill="black"/>
<path d="M168.73 158.35C168.445 159.432 168.578 160.583 169.103 161.572C169.627 162.561 170.504 163.317 171.56 163.689L197.56 170.969C199.904 171.688 202.33 172.105 204.78 172.209L212.96 171.66L205.24 129.99C187.43 141.69 186.24 142.23 170.24 155.85C169.47 156.489 168.938 157.37 168.73 158.35Z" fill="#263238"/>
<path d="M337.95 92.4697L321.63 163.63L342.98 162.09L352.72 93.0897C347.733 92.8364 342.81 92.6297 337.95 92.4697Z" fill="#263238"/>
<path d="M405.68 148.78L435.68 111.33C436.565 110.309 437.108 109.035 437.23 107.69C437.54 104.35 435.44 101.35 432.54 100.95C426.4 100.12 419.86 99.3195 413.33 98.5295" fill="#263238"/>
<path d="M192.35 165.55C191.117 165.564 189.893 165.336 188.748 164.877C187.604 164.419 186.56 163.739 185.678 162.877C184.796 162.016 184.092 160.988 183.607 159.855C183.122 158.721 182.865 157.503 182.85 156.27C182.826 154.126 183.532 152.039 184.854 150.352C186.176 148.665 188.034 147.479 190.12 146.99L202.64 144.06L205.83 165.06L192.6 165.57L192.35 165.55Z" fill="#7E57C2"/>
<path opacity="0.3" d="M202.16 165.18L205.83 165.04L202.64 144.06L199.07 144.9L202.16 165.18Z" fill="black"/>
<path opacity="0.6" d="M326.23 255.15H326.18C326.148 255.144 326.118 255.131 326.091 255.113C326.064 255.095 326.041 255.072 326.023 255.045C326.005 255.018 325.993 254.988 325.988 254.956C325.982 254.924 325.983 254.891 325.99 254.86C326.12 254.21 339.81 189.97 341.56 181.22C342.23 177.86 342.48 171.44 342.28 162.11C342.28 162.043 342.306 161.98 342.353 161.933C342.4 161.886 342.464 161.86 342.53 161.86C342.595 161.86 342.657 161.885 342.703 161.929C342.75 161.974 342.777 162.035 342.78 162.1C342.98 171.46 342.73 177.93 342.05 181.32C340.3 190.07 326.61 254.32 326.47 254.96C326.458 255.014 326.428 255.063 326.384 255.098C326.34 255.133 326.286 255.151 326.23 255.15Z" fill="black"/>
<path opacity="0.6" d="M202.91 264.79C202.869 264.789 202.828 264.779 202.792 264.76C202.755 264.741 202.724 264.713 202.7 264.68C202.53 264.42 184.87 238.28 178.8 227.35C172.54 216.1 168.54 162.19 168.36 159.9C168.357 159.834 168.379 159.769 168.422 159.719C168.465 159.669 168.525 159.637 168.59 159.63C168.623 159.627 168.656 159.631 168.687 159.641C168.719 159.651 168.748 159.667 168.773 159.688C168.798 159.71 168.819 159.736 168.834 159.765C168.849 159.795 168.858 159.827 168.86 159.86C168.86 160.42 173.06 215.95 179.24 227.11C185.29 238.02 202.94 264.11 203.12 264.4C203.139 264.427 203.152 264.458 203.158 264.49C203.165 264.523 203.165 264.557 203.159 264.589C203.152 264.622 203.139 264.653 203.121 264.68C203.102 264.708 203.078 264.731 203.05 264.75C203.007 264.773 202.959 264.787 202.91 264.79Z" fill="black"/>
<path opacity="0.6" d="M29.9801 185.35C29.9231 185.348 29.8685 185.327 29.8252 185.29C29.7819 185.253 29.7526 185.202 29.7421 185.146C29.7316 185.09 29.7405 185.032 29.7674 184.982C29.7944 184.932 29.8376 184.892 29.8901 184.87C43.4301 179.33 86.8901 168.87 97.0301 167.26C109.86 165.2 153.7 154.38 154.14 154.26C154.172 154.252 154.206 154.251 154.238 154.257C154.271 154.263 154.302 154.275 154.33 154.292C154.358 154.31 154.382 154.333 154.401 154.36C154.42 154.387 154.433 154.417 154.44 154.45C154.449 154.481 154.451 154.514 154.447 154.547C154.443 154.579 154.432 154.611 154.415 154.639C154.398 154.667 154.376 154.691 154.349 154.71C154.322 154.729 154.292 154.743 154.26 154.75C153.82 154.86 109.96 165.68 97.1001 167.75C87.2101 169.34 43.2801 179.93 30.1001 185.33C30.0631 185.349 30.0212 185.356 29.9801 185.35Z" fill="black"/>
<path opacity="0.8" d="M467.34 108.509C466.37 109.379 465.784 110.597 465.709 111.897C465.634 113.197 466.077 114.474 466.94 115.449L472.37 121.359C472.999 122.02 473.793 122.5 474.67 122.749L541.25 141.219C542.411 141.53 543.608 141.688 544.81 141.689H558.04C557.35 141.229 556.64 140.809 555.91 140.419L491.68 106.609C490.903 106.225 490.311 105.547 490.033 104.726C489.756 103.905 489.816 103.007 490.2 102.229L469.34 107.449C468.601 107.645 467.917 108.008 467.34 108.509Z" fill="white"/>
<path d="M217.25 151.07C216.65 151.43 209.58 158.74 209.58 158.74L210.96 167.8L219.85 158.62L217.25 151.07Z" fill="#263238"/>
<path d="M227.9 169.96C227.15 170.33 226.282 170.388 225.489 170.12C224.696 169.851 224.042 169.28 223.67 168.53L209.54 139.95C209.357 139.579 209.249 139.175 209.221 138.762C209.194 138.349 209.248 137.935 209.381 137.543C209.514 137.151 209.722 136.79 209.995 136.478C210.268 136.167 210.599 135.913 210.97 135.73C211.342 135.545 211.746 135.435 212.16 135.407C212.574 135.379 212.989 135.433 213.382 135.566C213.775 135.698 214.138 135.908 214.45 136.181C214.762 136.455 215.017 136.787 215.2 137.16L229.3 165.74C229.673 166.485 229.734 167.348 229.472 168.139C229.209 168.93 228.644 169.584 227.9 169.96Z" fill="#263238"/>
<path d="M243.29 135.56C243.29 135.56 250.29 163.48 254.38 164.56C261.82 166.47 287.38 164.33 286.88 163.51L285.8 150.67C285.8 150.67 260.03 154.93 260.23 154.48L250.54 132.75L243.29 135.56Z" fill="#EBB373"/>
<path d="M249.72 134.44C249.72 134.44 252.02 132.3 252.08 129.7C252.14 127.1 252.89 125.05 252.8 123.12C252.71 121.19 251.1 123.24 250.46 124.5C249.82 125.76 249.08 127.2 248.21 126.56C247.34 125.92 243.54 117.46 242.21 116.72C240.88 115.98 241.09 117.54 241.09 117.54C241.09 117.54 240.09 115.54 239.2 115.68C238.96 115.68 238.48 116.21 238.79 117.2C239.46 119.44 241.12 124.07 241.12 124.07C241.03 123.8 238.57 118.24 238.12 117.45C237.49 116.45 236.68 116.26 236.12 116.64C235.29 117.18 238.12 124.18 238.02 124.56C238.02 124.56 236.53 120.48 235.27 120.28C234.01 120.08 234.8 122.71 235.94 124.89C236.94 126.89 238.51 131.08 239.77 133.01C241.32 135.38 242.89 136.63 245.52 136.23C247.051 136.004 248.497 135.387 249.72 134.44Z" fill="#EBB373"/>
<path opacity="0.3" d="M243.29 122.94C243.264 122.941 243.238 122.934 243.217 122.92C243.195 122.905 243.179 122.884 243.17 122.86C242.58 121.16 241.91 119.47 241.17 117.86C241.162 117.844 241.157 117.827 241.156 117.809C241.156 117.792 241.159 117.774 241.165 117.758C241.172 117.742 241.182 117.728 241.195 117.716C241.208 117.704 241.223 117.695 241.24 117.69C241.254 117.683 241.27 117.679 241.286 117.679C241.302 117.678 241.318 117.681 241.332 117.686C241.347 117.692 241.361 117.7 241.373 117.711C241.384 117.722 241.393 117.735 241.4 117.75C242.14 119.4 242.82 121.09 243.4 122.8C243.406 122.815 243.41 122.831 243.41 122.847C243.409 122.864 243.406 122.88 243.399 122.895C243.393 122.91 243.383 122.923 243.371 122.934C243.359 122.945 243.345 122.954 243.33 122.96L243.29 122.94Z" fill="black"/>
<path opacity="0.3" d="M238.54 126.29C238.524 126.296 238.507 126.3 238.49 126.3C238.473 126.3 238.456 126.296 238.44 126.29C238.419 126.264 238.407 126.233 238.407 126.2C238.407 126.167 238.419 126.135 238.44 126.11C240.277 124.608 242.511 123.673 244.87 123.42C244.887 123.418 244.904 123.42 244.921 123.426C244.937 123.431 244.952 123.439 244.965 123.45C244.978 123.462 244.989 123.475 244.996 123.491C245.004 123.506 245.009 123.523 245.01 123.54C245.011 123.555 245.01 123.571 245.005 123.586C245 123.601 244.992 123.615 244.982 123.627C244.972 123.64 244.959 123.65 244.945 123.657C244.931 123.664 244.916 123.668 244.9 123.67C242.587 123.915 240.397 124.833 238.6 126.31L238.54 126.29Z" fill="black"/>
<path opacity="0.3" d="M246.05 132.72C246.024 132.72 245.999 132.712 245.978 132.698C245.957 132.684 245.94 132.663 245.93 132.64C245.56 131.722 245.522 130.703 245.821 129.76C246.12 128.816 246.739 128.007 247.57 127.47C247.581 127.458 247.594 127.45 247.609 127.444C247.624 127.437 247.639 127.434 247.655 127.434C247.671 127.434 247.687 127.437 247.701 127.444C247.716 127.45 247.729 127.458 247.74 127.47C247.751 127.481 247.76 127.494 247.766 127.509C247.772 127.523 247.775 127.539 247.775 127.555C247.775 127.57 247.772 127.586 247.766 127.601C247.76 127.615 247.751 127.628 247.74 127.64C246.958 128.144 246.377 128.905 246.096 129.792C245.814 130.68 245.851 131.637 246.2 132.5C246.214 132.53 246.216 132.565 246.204 132.597C246.193 132.628 246.17 132.655 246.14 132.67L246.05 132.72Z" fill="black"/>
<path d="M316.28 148.71C311.6 142.53 304.17 143.15 299.34 144L289.78 145.57C289.474 145.617 289.173 145.691 288.88 145.79L286.7 146.46L266.23 153.02L271.17 166.12L277.86 165.3L276.74 167.11L283.3 166.69L319.11 164.82V157.56C319.153 154.381 318.159 151.274 316.28 148.71Z" fill="#263238"/>
<path d="M314.34 159.02C314.34 159.02 309.85 189.13 306.67 192.32C299.09 199.94 271.02 178.98 271.02 178.98L271.89 170.89L296.13 180.89L300.67 155.35L314.34 159.02Z" fill="#EBB373"/>
<path d="M318.03 156.97C317.81 157.71 315.88 178.72 315.88 178.72L295.32 176.8C295.32 176.8 296.39 170.97 297.94 160.8C299.57 150.17 300.51 144.8 305.78 143.94C315.75 142.27 318.03 156.97 318.03 156.97Z" fill="#263238"/>
<path d="M311.14 109.4C314.24 114.84 315.32 118.09 315.6 123.31C315.93 129.4 315.65 134.78 314.29 136.31C312.51 138.31 293.23 140.31 282.42 139.84C282.03 139.84 281.71 136.4 281.71 136.4C281.71 136.4 280.18 139.75 279.71 139.72C276.76 139.59 274.87 139.48 274.87 139.48C274.87 139.48 277.32 134.48 280.31 116.3C281.77 107.44 290.69 103.9 295.94 103.23C304.66 102.15 311.14 109.4 311.14 109.4Z" fill="#263238"/>
<path d="M285.45 126.52C282.62 121.63 279.81 108.45 291.6 104.39C306.31 99.3096 312.89 108.69 314.16 117.99C315.43 127.29 310.16 134.31 300.46 133.61C290.76 132.91 287.4 129.91 285.45 126.52Z" fill="#263238"/>
<path d="M305.87 127.18L297.18 135.18L295.54 136.96C296.025 138.178 296.36 139.451 296.54 140.75C296.665 142.12 296.276 143.489 295.45 144.59L293.5 149.03C297.85 145.62 307.76 143.79 307.76 143.79C306.108 138.418 305.467 132.786 305.87 127.18Z" fill="#EBB373"/>
<path opacity="0.2" d="M296.54 141.23C298.88 139.98 301.54 137.75 301.32 135.05C301.267 134.059 301.095 133.079 300.81 132.13L295.88 138.05C296.213 139.083 296.434 140.149 296.54 141.23Z" fill="black"/>
<path d="M308.64 118.35C307.46 126.85 307.14 130.46 302.53 134.73C295.6 141.15 285.53 138.41 284.16 129.88C282.93 122.19 285.06 109.59 293.6 106.4C295.411 105.655 297.387 105.407 299.326 105.681C301.264 105.955 303.094 106.742 304.627 107.96C306.16 109.178 307.34 110.783 308.046 112.609C308.751 114.436 308.956 116.417 308.64 118.35Z" fill="#EBB373"/>
<path d="M297.8 120.9C297.71 121.76 297.15 122.44 296.55 122.42C295.95 122.4 295.55 121.7 295.61 120.84C295.67 119.98 296.26 119.3 296.86 119.32C297.46 119.34 297.89 120.04 297.8 120.9Z" fill="#263238"/>
<path d="M288.94 120.35C288.85 121.17 288.3 121.82 287.71 121.81C287.12 121.8 286.71 121.11 286.79 120.3C286.87 119.49 287.43 118.83 288.02 118.84C288.61 118.85 289.02 119.51 288.94 120.35Z" fill="#263238"/>
<path d="M299.15 117.8C299.093 117.812 299.033 117.811 298.976 117.797C298.919 117.784 298.866 117.757 298.82 117.72C298.39 117.384 297.889 117.152 297.355 117.041C296.821 116.93 296.268 116.943 295.74 117.08C295.688 117.1 295.632 117.109 295.576 117.107C295.519 117.105 295.464 117.091 295.414 117.067C295.363 117.043 295.318 117.008 295.281 116.965C295.244 116.923 295.217 116.873 295.2 116.82C295.175 116.706 295.194 116.587 295.254 116.487C295.313 116.386 295.408 116.312 295.52 116.28C296.185 116.093 296.885 116.065 297.562 116.199C298.24 116.333 298.876 116.624 299.42 117.05C299.462 117.086 299.496 117.132 299.52 117.182C299.543 117.233 299.555 117.289 299.555 117.345C299.555 117.401 299.543 117.456 299.52 117.507C299.496 117.558 299.462 117.603 299.42 117.64C299.351 117.722 299.256 117.779 299.15 117.8Z" fill="#263238"/>
<path d="M286.11 116.05C286.019 116.001 285.951 115.918 285.92 115.82C285.893 115.712 285.909 115.598 285.965 115.503C286.021 115.407 286.113 115.338 286.22 115.31C286.863 115.1 287.546 115.041 288.216 115.139C288.885 115.236 289.523 115.486 290.08 115.87C290.121 115.905 290.153 115.949 290.175 115.998C290.197 116.047 290.209 116.101 290.209 116.155C290.209 116.209 290.197 116.262 290.175 116.311C290.153 116.36 290.121 116.404 290.08 116.44C289.996 116.514 289.888 116.555 289.775 116.555C289.663 116.555 289.554 116.514 289.47 116.44C289.024 116.145 288.517 115.955 287.987 115.884C287.457 115.813 286.918 115.862 286.41 116.03C286.316 116.071 286.21 116.078 286.11 116.05Z" fill="#263238"/>
<path d="M301.86 110.35C299.02 113.07 299.86 123.9 307.42 125.66C316.29 124.04 310.36 102.26 301.86 110.35Z" fill="#263238"/>
<path d="M290.82 128.4C291.355 129.436 291.817 130.508 292.2 131.61L292.81 131.51C295.55 131 296.66 129.85 297.05 128.74C297.23 128.192 297.278 127.609 297.19 127.04C297.146 126.716 297.059 126.4 296.93 126.1C295.64 127.24 293.11 127.91 291.75 128.21C291.18 128.35 290.82 128.4 290.82 128.4Z" fill="#263238"/>
<path d="M291.75 128.21L292.18 129.15C294.77 128.66 296.52 127.97 297.18 127.04C297.137 126.716 297.049 126.4 296.92 126.1C295.64 127.24 293.11 127.91 291.75 128.21Z" fill="white"/>
<path d="M292.81 131.51C295.55 131 296.66 129.85 297.05 128.74C296.012 128.954 295.02 129.35 294.12 129.91C293.525 130.291 293.066 130.851 292.81 131.51Z" fill="#DC5753"/>
<path d="M291.36 119.84C290.416 121.842 289.224 123.717 287.81 125.42C288.81 126.52 290.81 126.06 290.81 126.06L291.36 119.84Z" fill="#E4873E"/>
<path d="M295.18 118.83L297.12 119.39C296.18 120.35 295.18 118.83 295.18 118.83Z" fill="#263238"/>
<path d="M286.44 118.35L288.37 118.91C287.44 119.85 286.44 118.35 286.44 118.35Z" fill="#263238"/>
<path d="M293.75 104.52C290.32 105.52 286.48 111.17 285.75 113.39C290.5 114.39 303.62 110.5 303.62 110.5C303.62 110.5 312.13 113.28 307.96 108.71C303.79 104.14 293.75 104.52 293.75 104.52Z" fill="#263238"/>
<path d="M310.9 125.35C309.917 126.876 308.372 127.954 306.6 128.35C304.32 128.81 303.32 125.12 304.19 122.9C304.598 121.896 305.352 121.072 306.315 120.577C307.278 120.082 308.387 119.948 309.44 120.2C311.54 120.79 312.14 123.43 310.9 125.35Z" fill="#EBB373"/>
<path d="M271.3 138.67L271.04 138.24C274.24 136.32 277.29 128.85 278.59 125.66C279.892 122.102 280.807 118.414 281.32 114.66L281.82 114.75C281.292 118.524 280.364 122.232 279.05 125.81C277.62 129.35 274.64 136.66 271.3 138.67Z" fill="#263238"/>
<path d="M305.93 128.15C305.915 128.464 305.993 128.776 306.155 129.046C306.317 129.316 306.555 129.531 306.84 129.666C307.124 129.8 307.442 129.847 307.754 129.8C308.065 129.754 308.355 129.616 308.588 129.404C308.821 129.192 308.986 128.916 309.061 128.611C309.137 128.305 309.121 127.984 309.014 127.688C308.907 127.392 308.715 127.134 308.461 126.948C308.208 126.761 307.905 126.654 307.59 126.64C307.382 126.629 307.173 126.659 306.977 126.73C306.78 126.8 306.6 126.908 306.446 127.049C306.291 127.189 306.166 127.359 306.078 127.548C305.989 127.737 305.939 127.941 305.93 128.15Z" fill="#7E57C2"/>
<path opacity="0.1" d="M305.82 125.35C305.787 125.347 305.755 125.338 305.726 125.323C305.697 125.308 305.67 125.287 305.649 125.262C305.628 125.237 305.611 125.208 305.601 125.177C305.591 125.145 305.587 125.112 305.59 125.08C305.626 124.651 305.759 124.235 305.978 123.865C306.197 123.494 306.498 123.178 306.857 122.941C307.216 122.703 307.624 122.55 308.05 122.492C308.477 122.435 308.911 122.475 309.32 122.61C309.383 122.632 309.434 122.678 309.464 122.738C309.494 122.797 309.5 122.866 309.48 122.93C309.47 122.961 309.454 122.991 309.432 123.016C309.41 123.041 309.384 123.062 309.354 123.077C309.324 123.092 309.292 123.101 309.258 123.103C309.225 123.105 309.192 123.1 309.16 123.09C308.826 122.978 308.471 122.944 308.122 122.988C307.772 123.033 307.438 123.156 307.143 123.349C306.847 123.541 306.6 123.797 306.417 124.099C306.235 124.4 306.123 124.739 306.09 125.09C306.092 125.125 306.086 125.16 306.073 125.193C306.059 125.226 306.039 125.256 306.014 125.28C305.988 125.305 305.958 125.324 305.924 125.336C305.891 125.348 305.856 125.352 305.82 125.35Z" fill="black"/>
<path d="M281.43 176.49L271.89 170.89L269.29 167.56C269.29 167.56 266.61 164.4 264.45 164.19C263.366 164.155 262.289 164.381 261.31 164.85C261.31 164.85 258.81 166.43 260.31 168.85C260.31 168.85 257.84 170.12 259.52 172.85C259.52 172.85 257.15 172.9 259.18 175.38C259.962 176.318 260.925 177.089 262.01 177.649C263.096 178.209 264.282 178.546 265.5 178.64C266.908 178.772 268.328 178.647 269.69 178.27L280.22 185.19L281.43 176.49Z" fill="#EBB373"/>
<path d="M297.12 165.999L298.84 155.209L293.59 166.119L297.12 165.999Z" fill="black"/>
<path d="M277.86 165.3L282.15 156.59L273.91 165.79L277.86 165.3Z" fill="black"/>
</svg>
