<svg width="35" height="36" viewBox="0 0 35 36" fill="none" xmlns="http://www.w3.org/2000/svg">
<g clip-path="url(#clip0_221_213)">
<path d="M27.5917 9.26442C27.3 8.404 26.4833 7.7915 25.5208 7.7915H9.47917C8.51667 7.7915 7.71458 8.404 7.40833 9.26442L4.53542 17.5332C4.43333 17.8394 4.375 18.1603 4.375 18.4957V28.9373C4.375 30.1478 5.35208 31.1248 6.5625 31.1248C7.77292 31.1248 8.75 30.1478 8.75 28.9373V28.2082H26.25V28.9373C26.25 30.1332 27.2271 31.1248 28.4375 31.1248C29.6333 31.1248 30.625 30.1478 30.625 28.9373V18.4957C30.625 18.1748 30.5667 17.8394 30.4646 17.5332L27.5917 9.26442ZM9.47917 23.8332C8.26875 23.8332 7.29167 22.8561 7.29167 21.6457C7.29167 20.4353 8.26875 19.4582 9.47917 19.4582C10.6896 19.4582 11.6667 20.4353 11.6667 21.6457C11.6667 22.8561 10.6896 23.8332 9.47917 23.8332ZM25.5208 23.8332C24.3104 23.8332 23.3333 22.8561 23.3333 21.6457C23.3333 20.4353 24.3104 19.4582 25.5208 19.4582C26.7313 19.4582 27.7083 20.4353 27.7083 21.6457C27.7083 22.8561 26.7313 23.8332 25.5208 23.8332ZM7.29167 16.5415L9.14375 10.9707C9.34792 10.3873 9.90208 9.979 10.5292 9.979H24.4708C25.0979 9.979 25.6521 10.3873 25.8562 10.9707L27.7083 16.5415H7.29167Z" fill="#6000AC"/>
</g>
<defs>
<clipPath id="clip0_221_213">
<rect width="35" height="35" fill="white" transform="translate(0 0.5)"/>
</clipPath>
</defs>
</svg>
