<svg width="35" height="36" viewBox="0 0 35 36" fill="none" xmlns="http://www.w3.org/2000/svg">
<g clip-path="url(#clip0_217_5203)">
<path d="M27.5917 9.26466C27.3 8.40425 26.4833 7.79175 25.5208 7.79175H9.47917C8.51667 7.79175 7.71458 8.40425 7.40833 9.26466L4.375 18.0001V29.6667C4.375 30.4688 5.03125 31.1251 5.83333 31.1251H7.29167C8.09375 31.1251 8.75 30.4688 8.75 29.6667V28.2084H26.25V29.6667C26.25 30.4688 26.9063 31.1251 27.7083 31.1251H29.1667C29.9688 31.1251 30.625 30.4688 30.625 29.6667V18.0001L27.5917 9.26466ZM9.98958 10.7084H24.9958L26.5708 15.2438H8.41458L9.98958 10.7084ZM27.7083 25.2917H7.29167V18.0001H27.7083V25.2917Z" fill="#6000AC"/>
<path d="M10.9375 23.8333C12.1456 23.8333 13.125 22.8539 13.125 21.6458C13.125 20.4376 12.1456 19.4583 10.9375 19.4583C9.72938 19.4583 8.75 20.4376 8.75 21.6458C8.75 22.8539 9.72938 23.8333 10.9375 23.8333Z" fill="#6000AC"/>
<path d="M24.0625 23.8333C25.2706 23.8333 26.25 22.8539 26.25 21.6458C26.25 20.4376 25.2706 19.4583 24.0625 19.4583C22.8544 19.4583 21.875 20.4376 21.875 21.6458C21.875 22.8539 22.8544 23.8333 24.0625 23.8333Z" fill="#6000AC"/>
</g>
<defs>
<clipPath id="clip0_217_5203">
<rect width="35" height="35" fill="white" transform="translate(0 0.5)"/>
</clipPath>
</defs>
</svg>
