<svg width="750" height="500" viewBox="0 0 750 500" fill="none" xmlns="http://www.w3.org/2000/svg">
<path d="M692.318 130.85C701.945 125.333 705.275 113.056 699.758 103.43C694.24 93.8035 681.964 90.4727 672.338 95.9902C662.711 101.508 659.381 113.784 664.898 123.41C670.415 133.037 682.692 136.367 692.318 130.85Z" fill="#EDE2FF"/>
<path d="M668.88 121.75L663.74 121.17L661.63 127.35L668.03 127.02L668.88 121.75Z" fill="#EDE2FF"/>
<path d="M706.76 112.69C706.696 112.684 706.635 112.655 706.593 112.606C706.55 112.558 706.527 112.494 706.53 112.43C706.667 109.199 706.009 105.985 704.615 103.068C703.22 100.151 701.13 97.6209 698.53 95.6996C698.498 95.6832 698.47 95.66 698.447 95.6316C698.425 95.6033 698.409 95.5704 698.401 95.5353C698.392 95.5002 698.392 95.4637 698.399 95.4284C698.406 95.393 698.42 95.3595 698.442 95.3303C698.463 95.3011 698.49 95.2768 698.521 95.2591C698.553 95.2415 698.588 95.2308 698.624 95.2279C698.66 95.225 698.696 95.2299 698.73 95.2422C698.764 95.2546 698.794 95.2742 698.82 95.2996C701.492 97.267 703.639 99.8611 705.072 102.853C706.506 105.846 707.181 109.145 707.04 112.46C707.038 112.493 707.028 112.526 707.013 112.556C706.997 112.587 706.976 112.613 706.949 112.635C706.923 112.656 706.893 112.672 706.86 112.682C706.828 112.691 706.794 112.694 706.76 112.69Z" fill="#EDE2FF"/>
<path d="M705.94 118.59C705.908 118.6 705.873 118.6 705.84 118.59C705.809 118.579 705.781 118.562 705.757 118.539C705.734 118.517 705.715 118.489 705.703 118.459C705.69 118.429 705.685 118.396 705.686 118.363C705.687 118.331 705.695 118.299 705.71 118.27C706.075 117.375 706.255 116.416 706.24 115.45C706.237 115.417 706.241 115.384 706.252 115.353C706.263 115.322 706.281 115.294 706.303 115.27C706.326 115.246 706.354 115.228 706.384 115.216C706.415 115.203 706.447 115.198 706.48 115.2C706.513 115.197 706.547 115.201 706.578 115.212C706.61 115.223 706.638 115.24 706.663 115.262C706.687 115.285 706.707 115.312 706.72 115.343C706.733 115.373 706.74 115.406 706.74 115.44C706.754 116.468 706.561 117.488 706.17 118.44C706.151 118.484 706.118 118.522 706.078 118.549C706.037 118.576 705.989 118.59 705.94 118.59Z" fill="#EDE2FF"/>
<path d="M682.82 113.49C683.611 113.49 684.385 113.255 685.042 112.816C685.7 112.376 686.213 111.751 686.516 111.02C686.818 110.29 686.898 109.485 686.743 108.709C686.589 107.933 686.208 107.221 685.648 106.661C685.089 106.102 684.376 105.721 683.6 105.567C682.825 105.412 682.02 105.491 681.289 105.794C680.558 106.097 679.934 106.61 679.494 107.267C679.055 107.925 678.82 108.699 678.82 109.49C678.82 110.551 679.242 111.568 679.992 112.318C680.742 113.068 681.759 113.49 682.82 113.49Z" fill="#3E176B"/>
<path d="M682.82 113.96C681.975 113.96 681.138 114.127 680.357 114.45C679.576 114.774 678.867 115.249 678.27 115.847C677.673 116.445 677.199 117.155 676.877 117.936C676.554 118.718 676.389 119.555 676.39 120.4H689.26C689.26 118.692 688.582 117.054 687.374 115.846C686.166 114.638 684.528 113.96 682.82 113.96Z" fill="#3E176B"/>
<path d="M278.583 157.917C282.678 147.605 277.639 135.925 267.327 131.83C257.015 127.735 245.335 132.774 241.24 143.086C237.145 153.398 242.184 165.078 252.496 169.173C262.808 173.268 274.488 168.229 278.583 157.917Z" fill="#EDE2FF"/>
<path d="M267.81 164.14L266.42 169.13L272.18 172.19L272.88 165.82L267.81 164.14Z" fill="#EDE2FF"/>
<path d="M284.36 149.809C284.293 149.804 284.23 149.773 284.186 149.723C284.141 149.672 284.117 149.607 284.12 149.539C284.259 146.31 283.602 143.096 282.207 140.181C280.812 137.265 278.722 134.737 276.12 132.819C276.066 132.781 276.029 132.722 276.018 132.657C276.006 132.591 276.022 132.524 276.06 132.469C276.099 132.415 276.157 132.378 276.223 132.367C276.288 132.356 276.356 132.371 276.41 132.409C279.082 134.376 281.23 136.97 282.663 139.963C284.097 142.955 284.772 146.254 284.63 149.569C284.625 149.637 284.594 149.699 284.544 149.744C284.493 149.789 284.427 149.812 284.36 149.809Z" fill="#EDE2FF"/>
<path d="M283.54 155.71H283.44C283.381 155.681 283.334 155.632 283.31 155.57C283.286 155.509 283.286 155.441 283.31 155.38C283.678 154.49 283.859 153.533 283.84 152.57C283.84 152.504 283.866 152.44 283.913 152.393C283.96 152.346 284.024 152.32 284.09 152.32C284.156 152.32 284.22 152.346 284.267 152.393C284.314 152.44 284.34 152.504 284.34 152.57C284.356 153.598 284.162 154.619 283.77 155.57C283.749 155.613 283.716 155.649 283.676 155.673C283.635 155.698 283.588 155.711 283.54 155.71Z" fill="#EDE2FF"/>
<path d="M259.92 151.1C262.146 151.1 263.95 149.295 263.95 147.07C263.95 144.844 262.146 143.04 259.92 143.04C257.694 143.04 255.89 144.844 255.89 147.07C255.89 149.295 257.694 151.1 259.92 151.1Z" fill="#3E176B"/>
<path d="M259.92 151.57C258.215 151.57 256.579 152.247 255.373 153.453C254.168 154.659 253.49 156.294 253.49 158H266.36C266.36 157.155 266.193 156.318 265.87 155.537C265.546 154.756 265.071 154.047 264.473 153.45C263.875 152.852 263.165 152.379 262.384 152.056C261.603 151.734 260.765 151.569 259.92 151.57Z" fill="#3E176B"/>
<path d="M687.34 370.112L697.18 362.362C703.46 369.512 708.53 376.632 712.35 380.882L709.98 386.452L703.54 385.172C698.441 379.838 693.031 374.809 687.34 370.112Z" fill="#B97964"/>
<path d="M696.77 380.382L700.6 377.942C704.52 379.942 705.3 378.342 705.78 374.822C706.78 373.982 707.92 375.072 708.23 375.352L715.14 381.602C715.42 381.851 715.59 382.202 715.613 382.577C715.635 382.952 715.508 383.32 715.26 383.602C715.165 383.705 715.058 383.796 714.94 383.872L705.75 389.752L692.87 397.952C689.36 400.192 686.38 397.122 687.62 395.872C693.21 390.292 696.62 385.452 697.4 382.272C697.54 381.672 697.02 381.662 696.77 380.382Z" fill="#EDE2FF"/>
<path d="M699.54 384.032C699.504 384.041 699.466 384.041 699.43 384.032C698.941 383.807 698.408 383.691 697.87 383.691C697.332 383.691 696.799 383.807 696.31 384.032C696.28 384.045 696.247 384.052 696.214 384.053C696.181 384.054 696.149 384.048 696.118 384.036C696.087 384.024 696.059 384.005 696.036 383.983C696.012 383.96 695.993 383.932 695.98 383.902C695.965 383.873 695.956 383.84 695.954 383.808C695.952 383.775 695.957 383.742 695.968 383.711C695.979 383.68 695.997 383.652 696.02 383.628C696.042 383.604 696.07 383.585 696.1 383.572C696.657 383.317 697.262 383.186 697.875 383.186C698.488 383.186 699.093 383.317 699.65 383.572C699.709 383.6 699.755 383.651 699.778 383.712C699.8 383.774 699.797 383.842 699.77 383.902C699.745 383.941 699.711 383.973 699.671 383.996C699.631 384.018 699.586 384.031 699.54 384.032Z" fill="#263238"/>
<path d="M698.64 386.432H698.53C698.041 386.207 697.508 386.091 696.97 386.091C696.432 386.091 695.899 386.207 695.41 386.432C695.381 386.447 695.349 386.455 695.316 386.458C695.283 386.46 695.25 386.455 695.219 386.444C695.188 386.432 695.16 386.415 695.136 386.392C695.112 386.369 695.093 386.342 695.08 386.312C695.065 386.282 695.056 386.25 695.054 386.217C695.052 386.185 695.057 386.152 695.068 386.121C695.079 386.09 695.097 386.061 695.12 386.037C695.142 386.014 695.17 385.995 695.2 385.982C695.756 385.725 696.362 385.591 696.975 385.591C697.588 385.591 698.194 385.725 698.75 385.982C698.809 386.01 698.855 386.06 698.878 386.122C698.9 386.184 698.897 386.252 698.87 386.312C698.845 386.349 698.811 386.38 698.77 386.401C698.73 386.422 698.685 386.433 698.64 386.432Z" fill="#263238"/>
<path d="M697.18 388.902C697.147 388.911 697.113 388.911 697.08 388.902C696.588 388.679 696.055 388.564 695.515 388.564C694.975 388.564 694.442 388.679 693.95 388.902C693.92 388.915 693.887 388.923 693.854 388.924C693.821 388.925 693.788 388.92 693.757 388.908C693.725 388.897 693.697 388.879 693.673 388.857C693.648 388.834 693.629 388.807 693.615 388.777C693.601 388.746 693.593 388.714 693.592 388.681C693.591 388.647 693.596 388.614 693.608 388.583C693.62 388.552 693.637 388.524 693.66 388.499C693.683 388.475 693.71 388.455 693.74 388.442C694.297 388.187 694.902 388.055 695.515 388.055C696.127 388.055 696.733 388.187 697.29 388.442C697.32 388.454 697.348 388.473 697.37 388.497C697.393 388.521 697.41 388.55 697.422 388.58C697.433 388.611 697.438 388.644 697.436 388.677C697.434 388.71 697.425 388.742 697.41 388.772C697.389 388.813 697.355 388.848 697.314 388.871C697.274 388.894 697.227 388.905 697.18 388.902Z" fill="#263238"/>
<path opacity="0.7" d="M715.26 383.592C715.165 383.695 715.058 383.786 714.94 383.862L705.75 389.752L692.87 397.952C692.203 398.449 691.398 398.726 690.566 398.743C689.734 398.761 688.918 398.52 688.23 398.052C688.77 397.712 714.48 381.612 714.74 381.282L715.24 381.762C715.464 382.013 715.59 382.336 715.594 382.673C715.597 383.01 715.479 383.336 715.26 383.592Z" fill="white"/>
<path d="M629.27 369.832L644.54 379.242C643.4 390.692 640.54 401.092 641.65 406.712L636.73 410.242L630.02 403.242C630.02 403.242 630.59 382.752 629.27 369.832Z" fill="#B97964"/>
<path d="M629.41 398.192L633.95 398.102C636.27 401.822 637.76 400.882 639.95 398.102C641.27 397.922 641.65 399.422 641.77 399.832L644.43 408.752C644.54 409.11 644.503 409.497 644.329 409.828C644.155 410.16 643.857 410.409 643.5 410.522C643.367 410.561 643.229 410.582 643.09 410.582L632.19 410.812L616.93 411.142C612.77 411.222 611.82 407.052 613.53 406.632C621.2 404.762 626.6 402.382 628.94 400.082C629.41 399.752 628.95 399.422 629.41 398.192Z" fill="#EDE2FF"/>
<path d="M630.01 402.752C629.968 402.753 629.927 402.744 629.89 402.724C629.854 402.705 629.822 402.677 629.8 402.642C629.502 402.193 629.109 401.815 628.65 401.534C628.19 401.252 627.675 401.074 627.14 401.012C627.107 401.008 627.075 400.998 627.046 400.982C627.017 400.966 626.992 400.944 626.971 400.918C626.951 400.892 626.936 400.862 626.927 400.83C626.918 400.798 626.916 400.765 626.92 400.732C626.922 400.698 626.932 400.666 626.947 400.636C626.963 400.606 626.985 400.58 627.011 400.56C627.037 400.539 627.068 400.524 627.1 400.516C627.133 400.507 627.167 400.506 627.2 400.512C627.804 400.588 628.385 400.794 628.903 401.115C629.42 401.436 629.863 401.864 630.2 402.372C630.235 402.426 630.247 402.492 630.234 402.556C630.221 402.619 630.183 402.675 630.13 402.712C630.095 402.736 630.053 402.75 630.01 402.752Z" fill="#263238"/>
<path d="M627.99 404.372C627.949 404.371 627.908 404.361 627.872 404.342C627.835 404.323 627.804 404.296 627.78 404.262C627.48 403.814 627.087 403.435 626.628 403.152C626.169 402.869 625.655 402.689 625.12 402.622C625.055 402.614 624.996 402.582 624.955 402.531C624.914 402.481 624.894 402.417 624.9 402.352C624.902 402.318 624.912 402.286 624.927 402.256C624.943 402.226 624.965 402.2 624.991 402.18C625.018 402.159 625.048 402.144 625.081 402.136C625.113 402.128 625.147 402.126 625.18 402.132C625.783 402.208 626.363 402.413 626.88 402.732C627.398 403.051 627.841 403.477 628.18 403.982C628.215 404.038 628.228 404.106 628.215 404.171C628.202 404.236 628.164 404.293 628.11 404.332C628.075 404.356 628.033 404.37 627.99 404.372Z" fill="#263238"/>
<path d="M625.47 405.752C625.427 405.754 625.384 405.744 625.347 405.723C625.31 405.702 625.279 405.67 625.26 405.632C624.961 405.184 624.568 404.807 624.109 404.525C623.649 404.244 623.135 404.065 622.6 404.002C622.567 403.998 622.535 403.988 622.506 403.972C622.477 403.955 622.452 403.934 622.431 403.908C622.411 403.882 622.396 403.852 622.387 403.82C622.378 403.788 622.376 403.754 622.38 403.722C622.381 403.689 622.389 403.656 622.404 403.626C622.418 403.597 622.439 403.571 622.465 403.55C622.49 403.529 622.52 403.514 622.552 403.505C622.584 403.497 622.617 403.496 622.65 403.502C623.254 403.578 623.835 403.784 624.353 404.105C624.87 404.425 625.313 404.854 625.65 405.362C625.672 405.399 625.684 405.442 625.685 405.486C625.687 405.529 625.677 405.573 625.657 405.611C625.637 405.65 625.607 405.683 625.571 405.708C625.535 405.732 625.493 405.747 625.45 405.752H625.47Z" fill="#263238"/>
<path opacity="0.7" d="M643.54 410.542C643.407 410.581 643.269 410.601 643.13 410.602L632.23 410.832L616.97 411.162C616.143 411.235 615.313 411.049 614.597 410.63C613.88 410.211 613.311 409.579 612.97 408.822C613.6 408.822 643.97 408.412 644.33 408.262L644.51 408.932C644.572 409.272 644.508 409.624 644.329 409.92C644.151 410.217 643.87 410.438 643.54 410.542Z" fill="white"/>
<path d="M649.89 151.222C649.89 151.222 648.18 145.582 649.98 135.062L649.41 134.862C649.66 133.392 649.94 132.022 650.22 130.862C650.221 130.845 650.221 130.828 650.22 130.812L637.22 141.002C637.92 144.222 637.46 150.652 637.07 153.392C637.07 153.392 635.85 158.392 642.28 157.892C647.02 157.492 649.89 151.222 649.89 151.222Z" fill="#B97964"/>
<path opacity="0.2" d="M637.54 145.592L645.36 142.872C644.91 145.452 643.04 148.662 637.49 149.532C637.613 148.222 637.63 146.904 637.54 145.592Z" fill="black"/>
<path d="M649.54 124.012C649.6 132.952 649.81 138.012 645.61 142.832C639.3 150.102 628.28 146.832 625.54 138.092C623.08 130.192 623.39 116.902 631.89 112.842C633.773 111.944 635.854 111.538 637.936 111.663C640.019 111.787 642.036 112.438 643.799 113.553C645.562 114.669 647.013 116.214 648.017 118.043C649.021 119.872 649.545 121.925 649.54 124.012Z" fill="#B97964"/>
<path d="M649.97 113.222C648.41 108.402 636.11 109.222 632.85 111.922C632.36 112.332 639.85 115.502 639.44 115.372L642.95 116.322C643.47 116.172 644.55 116.712 645.2 118.322C645.2 118.322 645.74 132.002 649.88 135.692C652.88 133.962 652.7 128.532 653.46 125.252C654.59 120.342 655.87 113.192 649.97 113.222Z" fill="#263238"/>
<path d="M653.59 131.192C653.325 132.271 652.848 133.286 652.187 134.178C651.526 135.071 650.694 135.824 649.74 136.392C647.17 137.892 645.98 135.052 646.04 132.232C646.1 129.692 646.63 126.562 649.52 126.232C652.41 125.902 654.23 128.512 653.59 131.192Z" fill="#B97964"/>
<path d="M637 127.452C637.06 128.362 636.63 129.122 636 129.162C635.37 129.202 634.87 128.482 634.81 127.572C634.75 126.662 635.18 125.892 635.81 125.862C636.44 125.832 636.94 126.542 637 127.452Z" fill="#263238"/>
<path d="M628.07 128.232C628.13 129.142 627.7 129.912 627.07 129.952C626.44 129.992 625.94 129.272 625.88 128.362C625.82 127.452 626.25 126.682 626.88 126.652C627.51 126.622 628.01 127.322 628.07 128.232Z" fill="#263238"/>
<path d="M630.95 127.532C630.95 127.532 628.37 132.252 627.57 134.162C628.92 135.222 631.07 134.542 631.07 134.542L630.95 127.532Z" fill="#A24E3F"/>
<path d="M638.93 123.002C638.865 123.04 638.791 123.061 638.715 123.061C638.639 123.061 638.565 123.04 638.5 123.002C638.063 122.687 637.559 122.48 637.027 122.396C636.496 122.313 635.952 122.356 635.44 122.522C635.335 122.565 635.218 122.565 635.113 122.522C635.008 122.479 634.924 122.396 634.88 122.292C634.857 122.24 634.844 122.185 634.843 122.129C634.842 122.073 634.851 122.017 634.872 121.965C634.892 121.913 634.923 121.865 634.962 121.825C635.001 121.785 635.048 121.753 635.1 121.732C635.746 121.513 636.434 121.451 637.109 121.55C637.783 121.649 638.424 121.906 638.98 122.302C639.027 122.332 639.068 122.371 639.1 122.418C639.131 122.464 639.153 122.516 639.165 122.571C639.176 122.626 639.176 122.683 639.165 122.738C639.154 122.793 639.132 122.845 639.1 122.892C639.052 122.94 638.994 122.978 638.93 123.002Z" fill="#263238"/>
<path d="M634.25 137.622C634.161 137.607 634.08 137.561 634.022 137.493C633.963 137.424 633.931 137.337 633.931 137.247C633.931 137.156 633.963 137.069 634.022 137.001C634.08 136.932 634.161 136.886 634.25 136.872C634.922 136.788 635.57 136.568 636.153 136.224C636.736 135.88 637.242 135.419 637.64 134.872C637.674 134.836 637.716 134.808 637.761 134.789C637.807 134.77 637.856 134.76 637.905 134.76C637.954 134.76 638.003 134.77 638.049 134.789C638.094 134.808 638.136 134.836 638.17 134.872C638.239 134.942 638.278 135.038 638.278 135.137C638.278 135.236 638.239 135.331 638.17 135.402C637.702 136.013 637.115 136.524 636.445 136.904C635.775 137.283 635.035 137.524 634.27 137.612L634.25 137.622Z" fill="#263238"/>
<path opacity="0.2" d="M647.54 132.062C647.507 132.062 647.474 132.055 647.443 132.042C647.413 132.029 647.385 132.009 647.363 131.985C647.34 131.96 647.323 131.931 647.312 131.9C647.301 131.869 647.297 131.835 647.3 131.802C647.33 130.985 647.579 130.191 648.02 129.502C648.381 128.893 648.938 128.424 649.6 128.172C649.95 128.056 650.326 128.046 650.681 128.142C651.037 128.238 651.356 128.436 651.6 128.712C651.646 128.759 651.671 128.822 651.671 128.887C651.671 128.952 651.646 129.015 651.6 129.062C651.578 129.086 651.55 129.105 651.52 129.118C651.49 129.131 651.458 129.138 651.425 129.138C651.392 129.138 651.36 129.131 651.33 129.118C651.3 129.105 651.272 129.086 651.25 129.062C651.068 128.861 650.83 128.718 650.566 128.652C650.303 128.586 650.026 128.6 649.77 128.692C649.222 128.901 648.763 129.293 648.47 129.802C648.073 130.418 647.849 131.13 647.82 131.862C647.808 131.925 647.772 131.981 647.72 132.018C647.668 132.055 647.603 132.071 647.54 132.062Z" fill="black"/>
<path d="M623.87 124.662C623.786 124.644 623.707 124.606 623.64 124.552C623.562 124.472 623.518 124.364 623.518 124.252C623.518 124.14 623.562 124.032 623.64 123.952C624.076 123.436 624.63 123.033 625.255 122.778C625.88 122.522 626.557 122.42 627.23 122.482C627.286 122.489 627.341 122.508 627.39 122.537C627.439 122.565 627.481 122.604 627.515 122.65C627.549 122.696 627.573 122.748 627.586 122.803C627.598 122.859 627.6 122.916 627.59 122.972C627.583 123.027 627.564 123.08 627.536 123.128C627.508 123.176 627.47 123.217 627.425 123.25C627.38 123.283 627.329 123.306 627.275 123.318C627.221 123.331 627.165 123.332 627.11 123.322C626.576 123.277 626.04 123.363 625.547 123.572C625.054 123.781 624.619 124.107 624.28 124.522C624.23 124.579 624.165 124.621 624.093 124.646C624.022 124.67 623.945 124.676 623.87 124.662Z" fill="#263238"/>
<path d="M651.54 109.232C650.71 107.292 648.09 107.072 646.17 107.642C646.05 105.202 642.76 104.062 640.77 104.302C639.744 104.316 638.763 104.724 638.03 105.442C638.19 105.442 637.29 104.292 636.76 103.842C635.795 103.026 634.607 102.519 633.35 102.385C632.093 102.251 630.825 102.498 629.71 103.092C628.602 103.761 627.705 104.728 627.122 105.883C626.538 107.037 626.291 108.333 626.41 109.622C626.062 109.336 625.66 109.123 625.228 108.994C624.797 108.866 624.344 108.824 623.896 108.873C623.448 108.921 623.014 109.058 622.62 109.276C622.226 109.494 621.879 109.788 621.6 110.142C621.077 110.919 620.855 111.86 620.974 112.789C621.094 113.718 621.547 114.572 622.25 115.192C621.474 115.353 620.794 115.815 620.357 116.476C619.921 117.138 619.763 117.945 619.92 118.722C620.086 119.49 620.547 120.162 621.203 120.594C621.859 121.026 622.659 121.183 623.43 121.032C623.68 122.822 624.06 125.032 624.31 126.852L626.14 120.022C627.34 119.482 627.53 118.892 627.66 117.522C628.72 119.142 630.14 118.882 631.97 118.652C632.906 118.51 633.785 118.113 634.51 117.504C635.235 116.896 635.778 116.099 636.08 115.202C636.591 116.061 637.327 116.764 638.208 117.236C639.089 117.708 640.082 117.932 641.08 117.882C642.068 117.748 642.97 117.251 643.61 116.487C644.25 115.723 644.581 114.747 644.54 113.752C645.177 114.549 646.08 115.089 647.083 115.273C648.086 115.456 649.122 115.271 650 114.752C650.838 114.137 651.445 113.259 651.724 112.258C652.003 111.257 651.938 110.191 651.54 109.232Z" fill="#263238"/>
<path d="M665.07 150.652C665.07 150.652 673.07 150.872 676.22 159.742C679.22 167.912 686.66 185.932 686.66 185.932L668.75 191.172L661.62 169.842L665.07 150.652Z" fill="#EDE2FF"/>
<path d="M635.83 235.752L646.62 258.752C646.62 258.752 629.48 310.342 628.45 315.752C627.42 321.162 626.94 388.872 626.94 388.872H646.01L653.54 322.752C653.54 322.752 676.69 266.632 678.39 262.072C681.57 253.532 678.24 242.072 678.24 242.072L672.34 233.572L635.83 235.752Z" fill="#263238"/>
<path d="M625.35 247.282C625.35 249.372 632.79 320.832 634.01 321.092C635.23 321.352 689.13 380.292 689.13 380.292L704.43 366.852L664.89 313.232L660.54 265.052L658.97 234.752L624.54 237.322L625.35 247.282Z" fill="#263238"/>
<path opacity="0.4" d="M651.51 339.732L652.46 322.942L663.54 298.392L655.22 324.352L654.43 342.122L651.51 339.732Z" fill="black"/>
<path opacity="0.4" d="M631.53 304.792L646.62 258.762L641.36 253.962L643.03 260.562L630.87 299.332L631.53 304.792Z" fill="black"/>
<path d="M579.37 173.032L602.72 194.462L613.6 174.202C613.6 174.202 625.48 185.932 625.07 186.102C624.66 186.272 611.07 215.992 601.3 210.662C591.53 205.332 574.96 178.512 574.96 178.512L579.37 173.032Z" fill="#B97964"/>
<path opacity="0.2" d="M602.72 194.462C602.72 194.462 604.72 197.702 604.49 200.762C605.099 199.548 605.319 198.176 605.12 196.832C604.957 195.365 604.457 193.955 603.66 192.712L602.72 194.462Z" fill="black"/>
<path d="M624.21 155.972C630.59 159.242 633.15 170.862 619.45 198.882L603.09 186.252C605.71 179.252 608.37 175.632 612.57 167.142C619.22 153.972 624.21 155.972 624.21 155.972Z" fill="#EDE2FF"/>
<path d="M624.01 155.552C628.51 154.552 646.39 149.872 665.51 150.672L675.62 221.912C675.62 221.912 677.62 231.252 680.27 240.502C662.05 251.052 636.77 252.752 623.21 247.002C623.39 247.282 622.96 239.392 622.38 227.832C621.38 207.462 619.84 175.682 620.31 157.132C620.33 156.682 623.54 155.652 624.01 155.552Z" fill="#EDE2FF"/>
<path opacity="0.2" d="M620.93 195.782L620.29 172.742L617.38 197.282L619.45 198.882L620.93 195.782Z" fill="black"/>
<path opacity="0.2" d="M669.75 190.882L668.75 191.172L662.23 173.702L667.12 193.692L670.45 193.712L669.75 190.882Z" fill="black"/>
<path d="M581.62 176.752C581.62 176.752 583.41 173.922 582.77 171.232C582.13 168.542 582.34 166.232 581.77 164.232C581.2 162.232 580.04 164.812 579.77 166.292C579.5 167.772 579.08 169.442 578 169.032C576.92 168.622 570.72 160.912 569.17 160.502C567.62 160.092 568.23 161.652 568.23 161.652C568.23 161.652 566.67 159.822 565.78 160.242C565.55 160.352 565.19 160.982 565.78 161.922C567.08 164.052 570.05 168.372 570.05 168.372C569.88 168.122 565.84 163.052 565.13 162.372C564.21 161.482 563.33 161.532 562.83 162.082C562.12 162.862 566.92 169.322 566.93 169.742C566.93 169.742 564.29 165.922 562.93 166.072C561.57 166.222 563.11 168.702 564.87 170.642C566.49 172.422 569.2 176.332 571.02 177.972C573.27 179.972 575.23 180.862 577.83 179.732C579.328 179.081 580.634 178.054 581.62 176.752Z" fill="#B97964"/>
<path opacity="0.3" d="M571.83 166.632C571.809 166.632 571.789 166.627 571.771 166.616C571.754 166.605 571.739 166.59 571.73 166.572C570.66 164.972 569.51 163.412 568.31 161.932C568.297 161.92 568.287 161.906 568.28 161.891C568.273 161.875 568.269 161.859 568.269 161.842C568.269 161.825 568.273 161.808 568.28 161.792C568.287 161.777 568.297 161.763 568.31 161.752C568.321 161.74 568.334 161.732 568.349 161.725C568.364 161.719 568.379 161.716 568.395 161.716C568.411 161.716 568.426 161.719 568.441 161.725C568.456 161.732 568.469 161.74 568.48 161.752C569.69 163.242 570.84 164.812 571.92 166.412C571.941 166.437 571.953 166.469 571.953 166.502C571.953 166.535 571.941 166.566 571.92 166.592L571.83 166.632Z" fill="black"/>
<path opacity="0.3" d="M567.81 171.382C567.787 171.39 567.763 171.39 567.74 171.382C567.729 171.371 567.72 171.358 567.714 171.343C567.708 171.328 567.705 171.313 567.705 171.297C567.705 171.281 567.708 171.265 567.714 171.251C567.72 171.236 567.729 171.223 567.74 171.212C569.228 169.162 571.282 167.591 573.65 166.692C573.679 166.689 573.708 166.697 573.733 166.713C573.757 166.729 573.776 166.753 573.785 166.78C573.794 166.808 573.794 166.838 573.784 166.866C573.774 166.893 573.755 166.917 573.73 166.932C571.412 167.812 569.4 169.348 567.94 171.352C567.925 171.37 567.904 171.383 567.88 171.389C567.857 171.394 567.832 171.392 567.81 171.382Z" fill="black"/>
<path opacity="0.3" d="M577.33 175.962C577.311 175.961 577.292 175.956 577.275 175.947C577.258 175.938 577.242 175.926 577.23 175.912C576.598 175.068 576.28 174.03 576.331 172.976C576.382 171.923 576.799 170.92 577.51 170.142C577.535 170.12 577.567 170.109 577.6 170.109C577.633 170.109 577.665 170.12 577.69 170.142C577.713 170.166 577.726 170.198 577.726 170.232C577.726 170.265 577.713 170.297 577.69 170.322C577.016 171.056 576.62 172.003 576.571 172.998C576.522 173.993 576.822 174.974 577.42 175.772C577.431 175.783 577.44 175.796 577.446 175.811C577.452 175.825 577.455 175.841 577.455 175.857C577.455 175.872 577.452 175.888 577.446 175.903C577.44 175.917 577.431 175.931 577.42 175.942C577.393 175.959 577.361 175.966 577.33 175.962Z" fill="black"/>
<path d="M685.31 186.322C685.31 186.322 690.7 199.082 692.98 210.532C693.98 215.732 689.86 219.072 685.61 220.092C672.21 223.332 642.01 223.342 642.01 223.342L641.22 214.132L676 206.612L669.75 190.882L685.31 186.322Z" fill="#B97964"/>
<path d="M641.94 225.312L630.54 226.592C630.347 226.612 630.152 226.59 629.968 226.526C629.785 226.462 629.618 226.358 629.48 226.222L612.13 209.072C611.967 208.911 611.85 208.71 611.79 208.489C611.73 208.268 611.729 208.035 611.788 207.814C611.847 207.592 611.963 207.391 612.125 207.229C612.287 207.067 612.489 206.951 612.71 206.892L622.71 204.312C622.926 204.254 623.153 204.254 623.369 204.311C623.585 204.369 623.782 204.483 623.94 204.642L642.67 223.092C642.845 223.262 642.968 223.477 643.026 223.714C643.084 223.95 643.075 224.198 642.999 224.43C642.923 224.661 642.783 224.867 642.596 225.023C642.409 225.179 642.181 225.279 641.94 225.312Z" fill="#263238"/>
<path d="M643 214.182C643 214.182 642.68 212.842 637.64 211.302C633.81 210.132 630 206.552 629.38 206.672C628.76 206.792 628.09 208.752 629.68 210.472C631.27 212.192 632.92 213.172 632.5 213.832C631.5 215.422 619.02 214.122 618.8 215.482C618.58 216.842 620.97 220.742 627.64 223.342C634.31 225.942 643.47 223.342 643.47 223.342L643 214.182Z" fill="#B97964"/>
<path d="M580.08 365.41L54.23 377.73V287.79H585.14L580.08 365.41Z" fill="#263238"/>
<path opacity="0.5" d="M580.08 365.41L54.23 377.73V287.79H585.14L580.08 365.41Z" fill="black"/>
<path d="M34 310.87V356.48C34.0008 361.24 35.5253 365.874 38.3504 369.705C41.1755 373.536 45.1528 376.362 49.7 377.77L53.42 378.9C55.7065 379.616 58.0946 379.953 60.49 379.9L85.05 379.32C82.4365 370.179 81.9522 360.561 83.6345 351.205C85.3167 341.848 89.1206 333.001 94.7542 325.343C100.388 317.686 107.701 311.421 116.133 307.03C124.565 302.639 133.891 300.238 143.395 300.012C152.899 299.786 162.328 301.741 170.959 305.727C179.59 309.713 187.193 315.624 193.184 323.005C199.175 330.387 203.394 339.043 205.519 348.309C207.644 357.575 207.617 367.205 205.44 376.46L455.34 370.52C454.939 367.6 454.742 364.656 454.75 361.71C454.688 353.477 456.26 345.313 459.376 337.692C462.491 330.071 467.089 323.145 472.901 317.313C478.713 311.482 485.625 306.863 493.236 303.722C500.847 300.582 509.005 298.983 517.238 299.019C525.471 299.055 533.616 300.724 541.199 303.93C548.782 307.137 555.653 311.816 561.415 317.698C567.176 323.579 571.713 330.545 574.763 338.193C577.812 345.841 579.314 354.017 579.18 362.25C579.18 363.46 579.09 364.65 579.09 365.85C579.43 365.724 579.764 365.58 580.09 365.42L588.64 361.61C592.767 359.745 596.269 356.73 598.726 352.926C601.182 349.121 602.489 344.688 602.49 340.16V247.26C602.492 242.973 601.322 238.768 599.106 235.098C596.891 231.428 593.714 228.434 589.92 226.44L525.69 192.66C525.114 192.352 524.638 191.884 524.322 191.313C524.005 190.741 523.86 190.091 523.904 189.439C523.949 188.787 524.18 188.162 524.572 187.639C524.963 187.115 525.497 186.716 526.11 186.49L533.97 183.67C534.363 183.537 534.699 183.275 534.923 182.926C535.148 182.578 535.247 182.164 535.205 181.751C535.164 181.339 534.983 180.953 534.693 180.656C534.403 180.36 534.021 180.171 533.61 180.12C503.08 175.84 384.38 160.35 321.98 167.95C249.98 176.76 181.03 239.22 181.03 239.22C128.03 237.22 78.62 255.67 57.33 264.92C53.933 266.405 50.8839 268.584 48.3783 271.317C45.8726 274.05 43.9658 277.277 42.78 280.79L35.54 302.35C34.5717 305.088 34.0517 307.965 34 310.87Z" fill="#EDE2FF"/>
<path d="M455.41 370.5C455.04 367.759 454.86 364.995 454.87 362.23C454.87 360.82 454.87 359.43 455 358.04L409.81 339.55C407.164 338.477 404.31 338.012 401.46 338.19L244.28 348.51C241.711 348.66 239.202 349.341 236.91 350.51L207.05 365.87C206.839 369.429 206.334 372.964 205.54 376.44L455.41 370.5Z" fill="#263238"/>
<path d="M602.54 340.14V337.77L576.98 345.59C578.473 351.01 579.227 356.607 579.22 362.23C579.22 363.44 579.13 364.63 579.13 365.83C579.47 365.703 579.804 365.56 580.13 365.4L588.7 361.59C592.825 359.724 596.325 356.708 598.78 352.903C601.235 349.099 602.54 344.667 602.54 340.14Z" fill="#263238"/>
<path d="M41.26 372.849C43.698 375.109 46.6134 376.791 49.79 377.769L53.54 378.899C55.8297 379.617 58.2213 379.954 60.62 379.899L85.14 379.349C84.2511 376.248 83.6091 373.082 83.22 369.879L41.26 372.849Z" fill="#263238"/>
<path d="M517.13 294.169C507.479 294.16 497.937 296.204 489.137 300.167C480.337 304.13 472.482 309.921 466.093 317.154C459.705 324.388 454.929 332.898 452.083 342.12C449.238 351.342 448.388 361.064 449.59 370.639L455.49 370.499C454.307 362.033 454.881 353.413 457.176 345.178C459.472 336.943 463.44 329.27 468.833 322.636C474.226 316.003 480.928 310.552 488.521 306.624C496.114 302.696 504.435 300.374 512.965 299.805C521.495 299.235 530.051 300.429 538.099 303.313C546.147 306.197 553.514 310.708 559.741 316.565C565.968 322.423 570.922 329.501 574.292 337.357C577.662 345.214 579.377 353.681 579.33 362.229C579.33 363.439 579.23 364.629 579.23 365.829C579.57 365.703 579.904 365.56 580.23 365.399L585.14 363.179V362.229C585.121 344.183 577.944 326.881 565.182 314.121C552.42 301.361 535.117 294.185 517.07 294.169H517.13Z" fill="#263238"/>
<path d="M144.96 294.169C134.554 294.166 124.286 296.549 114.945 301.135C105.604 305.721 97.4386 312.387 91.0771 320.622C84.7156 328.857 80.3271 338.442 78.2491 348.638C76.171 358.834 76.4587 369.372 79.09 379.439L85.09 379.299C82.5039 370.167 82.0419 360.563 83.7395 351.224C85.437 341.886 89.2489 333.059 94.8835 325.421C100.518 317.782 107.826 311.534 116.247 307.155C124.669 302.777 133.981 300.383 143.47 300.158C152.959 299.932 162.374 301.881 170.994 305.855C179.613 309.83 187.21 315.724 193.2 323.086C199.191 330.449 203.418 339.084 205.557 348.332C207.695 357.58 207.69 367.194 205.54 376.439L211.54 376.289C213.635 366.377 213.49 356.122 211.116 346.272C208.741 336.423 204.198 327.228 197.817 319.359C191.436 311.49 183.378 305.144 174.232 300.787C165.085 296.429 155.081 294.168 144.95 294.169H144.96Z" fill="#263238"/>
<path d="M204.19 241.83C203.595 242.361 203.145 243.035 202.883 243.788C202.621 244.542 202.555 245.35 202.692 246.136C202.829 246.922 203.165 247.66 203.666 248.28C204.168 248.9 204.82 249.382 205.56 249.68L231.56 256.96C233.85 257.609 236.248 257.79 238.61 257.49L431.21 233.63C436.028 232.949 440.422 230.505 443.54 226.77L468.83 197.35C469.688 196.336 470.215 195.083 470.34 193.76C470.69 190.41 468.58 187.39 465.65 187.01C419.54 180.88 361.21 175.35 324.39 179.81C276.13 185.7 227.54 221.98 204.19 241.83Z" fill="#EDE2FF"/>
<path opacity="0.8" d="M205.06 241.83C204.465 242.361 204.015 243.035 203.753 243.788C203.491 244.542 203.425 245.35 203.562 246.136C203.699 246.921 204.035 247.659 204.536 248.28C205.038 248.9 205.69 249.382 206.43 249.68L232.43 256.96C234.72 257.609 237.118 257.789 239.48 257.49L427.78 244.59C432.47 243.99 439.71 235.38 444.83 228.38L469.69 197.35C470.555 196.339 471.086 195.085 471.21 193.76C471.55 190.41 469.45 187.39 466.52 187.01C420.39 180.9 362.08 175.34 325.26 179.83C276.99 185.7 228.41 221.98 205.06 241.83Z" fill="#3E176B"/>
<g opacity="0.3">
<path d="M330.88 260.19C330.299 259.973 329.825 259.539 329.558 258.979C329.291 258.419 329.253 257.777 329.45 257.19C329.719 256.443 330.204 255.793 330.843 255.323C331.483 254.853 332.247 254.584 333.04 254.55L355.96 253.55C356.269 253.532 356.578 253.576 356.87 253.68C357.466 253.896 357.952 254.339 358.223 254.912C358.494 255.485 358.529 256.141 358.32 256.74C358.048 257.487 357.559 258.137 356.916 258.605C356.273 259.074 355.505 259.34 354.71 259.37L331.79 260.37C331.478 260.371 331.168 260.31 330.88 260.19Z" fill="black"/>
</g>
<path d="M501.34 194.509C500.37 195.379 499.784 196.597 499.709 197.897C499.634 199.197 500.076 200.474 500.94 201.449L506.37 207.359C506.999 208.02 507.793 208.5 508.67 208.749L575.25 227.219C576.411 227.53 577.608 227.688 578.81 227.689H592.04C591.35 227.229 590.64 226.809 589.91 226.419L525.68 192.609C524.903 192.225 524.311 191.547 524.033 190.726C523.756 189.905 523.816 189.007 524.2 188.229L503.34 193.449C502.601 193.645 501.917 194.008 501.34 194.509Z" fill="#EDE2FF"/>
<path d="M86.7 273.62L63.98 271.14L50.98 276.48C49.6254 277.031 48.4193 277.893 47.4588 278.996C46.4983 280.099 45.8102 281.412 45.45 282.83C45.019 284.494 45.2596 286.261 46.12 287.75L46.35 288.14C47.063 289.369 48.1255 290.358 49.4023 290.981C50.6791 291.604 52.1125 291.833 53.52 291.64L66.62 289.84C67.8829 289.64 69.0758 289.128 70.09 288.35L85.2 276.88L86.7 273.62Z" fill="white"/>
<path d="M181.08 239.189L184.7 240.189C186.085 240.584 187.545 240.632 188.953 240.328C190.36 240.025 191.671 239.38 192.77 238.449C213.83 220.639 250.44 193.309 289.94 180.579C290.077 180.535 290.198 180.451 290.288 180.339C290.378 180.226 290.433 180.09 290.447 179.947C290.461 179.804 290.432 179.66 290.365 179.532C290.298 179.405 290.196 179.299 290.07 179.229L285.16 176.709C228.17 196.499 181.08 239.189 181.08 239.189Z" fill="#EDE2FF"/>
<path opacity="0.8" d="M181.08 239.189L184.7 240.189C186.085 240.584 187.545 240.632 188.953 240.328C190.36 240.025 191.671 239.38 192.77 238.449C213.83 220.639 250.44 193.309 289.94 180.579C290.077 180.535 290.198 180.451 290.288 180.339C290.378 180.226 290.433 180.09 290.447 179.947C290.461 179.804 290.432 179.66 290.365 179.532C290.298 179.405 290.196 179.299 290.07 179.229L285.16 176.709C228.17 196.499 181.08 239.189 181.08 239.189Z" fill="white"/>
<path opacity="0.2" d="M397 263.24L205.54 276.93L209.15 300.55C210.252 307.784 212.932 314.687 217 320.77L233 344.69L396.42 322.59L473.69 263.24H397Z" fill="#7E57C2"/>
<path d="M517.07 414.059C545.7 414.059 568.91 390.85 568.91 362.219C568.91 333.589 545.7 310.379 517.07 310.379C488.44 310.379 465.23 333.589 465.23 362.219C465.23 390.85 488.44 414.059 517.07 414.059Z" fill="#263238"/>
<path opacity="0.4" d="M517.07 393.999C534.622 393.999 548.85 379.771 548.85 362.219C548.85 344.668 534.622 330.439 517.07 330.439C499.518 330.439 485.29 344.668 485.29 362.219C485.29 379.771 499.518 393.999 517.07 393.999Z" fill="white"/>
<g opacity="0.3">
<path d="M517.08 333.64H517.07C515.667 333.64 514.53 334.777 514.53 336.18V352.47C514.53 353.872 515.667 355.01 517.07 355.01H517.08C518.483 355.01 519.62 353.872 519.62 352.47V336.18C519.62 334.777 518.483 333.64 517.08 333.64Z" fill="white"/>
</g>
<g opacity="0.3">
<path d="M517.08 369.45H517.07C515.667 369.45 514.53 370.587 514.53 371.99V388.28C514.53 389.682 515.667 390.82 517.07 390.82H517.08C518.483 390.82 519.62 389.682 519.62 388.28V371.99C519.62 370.587 518.483 369.45 517.08 369.45Z" fill="white"/>
</g>
<g opacity="0.3">
<path d="M526.78 359.56C526.195 359.892 525.502 359.978 524.854 359.8C524.205 359.622 523.653 359.194 523.32 358.61C522.986 358.027 522.897 357.336 523.071 356.688C523.245 356.04 523.669 355.487 524.25 355.15L538.35 346.96C538.938 346.623 539.635 346.533 540.289 346.709C540.943 346.885 541.501 347.313 541.84 347.9C542.171 348.486 542.258 349.178 542.082 349.828C541.906 350.477 541.481 351.031 540.9 351.37L526.81 359.55L526.78 359.56Z" fill="white"/>
</g>
<g opacity="0.3">
<path d="M495.77 377.349C495.187 377.683 494.496 377.773 493.848 377.598C493.2 377.424 492.647 377 492.31 376.419C492.143 376.131 492.035 375.813 491.992 375.483C491.949 375.153 491.971 374.818 492.057 374.496C492.143 374.175 492.292 373.874 492.495 373.61C492.698 373.346 492.951 373.125 493.24 372.959L507.34 364.769C507.628 364.601 507.946 364.491 508.277 364.446C508.608 364.401 508.944 364.422 509.266 364.507C509.589 364.593 509.891 364.741 510.156 364.944C510.421 365.147 510.643 365.4 510.81 365.689C510.979 365.978 511.089 366.297 511.134 366.629C511.179 366.96 511.158 367.297 511.073 367.621C510.987 367.944 510.839 368.247 510.636 368.513C510.433 368.779 510.179 369.002 509.89 369.169L495.78 377.349H495.77Z" fill="white"/>
</g>
<g opacity="0.3">
<path d="M538.35 377.45L524.25 369.27C523.665 368.929 523.239 368.371 523.065 367.717C522.89 367.063 522.982 366.366 523.32 365.78C523.664 365.198 524.223 364.776 524.876 364.604C525.529 364.432 526.224 364.524 526.81 364.86L540.9 373.05C541.481 373.389 541.906 373.943 542.082 374.592C542.257 375.241 542.171 375.934 541.84 376.52C541.672 376.81 541.449 377.065 541.183 377.269C540.916 377.473 540.612 377.623 540.288 377.709C539.964 377.795 539.626 377.817 539.293 377.772C538.961 377.728 538.64 377.618 538.35 377.45Z" fill="white"/>
</g>
<g opacity="0.3">
<path d="M510.81 358.62C510.472 359.202 509.916 359.625 509.265 359.798C508.615 359.97 507.922 359.878 507.34 359.54L493.24 351.35C492.951 351.184 492.698 350.963 492.495 350.699C492.292 350.435 492.143 350.134 492.057 349.813C491.971 349.491 491.949 349.156 491.992 348.826C492.035 348.496 492.143 348.178 492.31 347.89C492.649 347.308 493.203 346.884 493.853 346.71C494.503 346.536 495.196 346.626 495.78 346.96L509.89 355.15C510.178 355.317 510.431 355.54 510.632 355.805C510.834 356.071 510.982 356.373 511.066 356.696C511.151 357.018 511.171 357.354 511.125 357.684C511.08 358.014 510.969 358.332 510.8 358.62H510.81Z" fill="white"/>
</g>
<path d="M512.81 362.21C512.81 361.08 513.259 359.996 514.058 359.197C514.857 358.399 515.94 357.95 517.07 357.95C517.917 357.948 518.745 358.197 519.451 358.666C520.156 359.135 520.706 359.803 521.031 360.585C521.357 361.367 521.443 362.228 521.279 363.059C521.115 363.889 520.708 364.653 520.11 365.253C519.512 365.852 518.749 366.261 517.919 366.427C517.088 366.593 516.227 366.509 515.444 366.185C514.662 365.861 513.993 365.313 513.522 364.609C513.051 363.905 512.8 363.077 512.8 362.23L512.81 362.21Z" fill="#263238"/>
<path d="M144.96 414.07C173.59 414.07 196.8 390.86 196.8 362.23C196.8 333.599 173.59 310.39 144.96 310.39C116.33 310.39 93.12 333.599 93.12 362.23C93.12 390.86 116.33 414.07 144.96 414.07Z" fill="#263238"/>
<path opacity="0.4" d="M144.96 394.01C162.512 394.01 176.74 379.781 176.74 362.23C176.74 344.678 162.512 330.45 144.96 330.45C127.408 330.45 113.18 344.678 113.18 362.23C113.18 379.781 127.408 394.01 144.96 394.01Z" fill="white"/>
<g opacity="0.3">
<path d="M144.96 333.64H144.95C143.547 333.64 142.41 334.777 142.41 336.18V352.47C142.41 353.872 143.547 355.01 144.95 355.01H144.96C146.363 355.01 147.5 353.872 147.5 352.47V336.18C147.5 334.777 146.363 333.64 144.96 333.64Z" fill="white"/>
</g>
<g opacity="0.3">
<path d="M144.96 369.45H144.95C143.547 369.45 142.41 370.587 142.41 371.99V388.28C142.41 389.682 143.547 390.82 144.95 390.82H144.96C146.363 390.82 147.5 389.682 147.5 388.28V371.99C147.5 370.587 146.363 369.45 144.96 369.45Z" fill="white"/>
</g>
<g opacity="0.3">
<path d="M154.65 359.56C154.363 359.723 154.046 359.829 153.717 359.87C153.389 359.91 153.056 359.886 152.738 359.798C152.419 359.709 152.121 359.559 151.86 359.355C151.6 359.151 151.382 358.898 151.22 358.61C151.051 358.322 150.941 358.004 150.895 357.674C150.849 357.344 150.869 357.008 150.954 356.686C151.038 356.363 151.186 356.06 151.388 355.795C151.589 355.53 151.842 355.307 152.13 355.14L166.25 346.95C166.539 346.783 166.859 346.676 167.19 346.633C167.521 346.59 167.858 346.613 168.18 346.7C168.502 346.787 168.804 346.937 169.068 347.142C169.333 347.346 169.554 347.6 169.72 347.89C169.886 348.179 169.994 348.499 170.037 348.83C170.08 349.161 170.057 349.497 169.969 349.82C169.882 350.142 169.732 350.444 169.528 350.708C169.324 350.972 169.07 351.194 168.78 351.36L154.69 359.54L154.65 359.56Z" fill="white"/>
</g>
<g opacity="0.3">
<path d="M120.19 376.46C120.023 376.172 119.915 375.853 119.872 375.524C119.829 375.194 119.851 374.858 119.937 374.537C120.023 374.215 120.172 373.914 120.375 373.65C120.578 373.387 120.831 373.166 121.12 373L135.22 364.81C135.509 364.641 135.829 364.53 136.162 364.485C136.494 364.44 136.832 364.461 137.156 364.546C137.48 364.632 137.784 364.78 138.051 364.983C138.317 365.186 138.541 365.44 138.71 365.73C139.047 366.316 139.137 367.012 138.96 367.664C138.784 368.317 138.356 368.873 137.77 369.21L123.68 377.35C123.098 377.691 122.405 377.789 121.752 377.622C121.099 377.456 120.537 377.038 120.19 376.46Z" fill="white"/>
</g>
<g opacity="0.3">
<path d="M169.71 376.529C169.544 376.818 169.323 377.071 169.059 377.274C168.795 377.477 168.494 377.625 168.172 377.711C167.85 377.796 167.515 377.817 167.185 377.772C166.855 377.728 166.537 377.618 166.25 377.449L152.13 369.269C151.548 368.926 151.127 368.366 150.956 367.712C150.786 367.058 150.88 366.364 151.22 365.779C151.558 365.198 152.114 364.774 152.765 364.601C153.415 364.429 154.108 364.522 154.69 364.859L168.78 373.049C169.362 373.388 169.786 373.943 169.96 374.593C170.134 375.243 170.044 375.935 169.71 376.519V376.529Z" fill="white"/>
</g>
<g opacity="0.3">
<path d="M138.69 358.64C138.522 358.927 138.298 359.178 138.033 359.379C137.767 359.58 137.464 359.727 137.142 359.81C136.82 359.894 136.484 359.913 136.154 359.866C135.824 359.82 135.507 359.709 135.22 359.54L121.12 351.35C120.831 351.184 120.578 350.963 120.375 350.699C120.172 350.435 120.023 350.134 119.937 349.813C119.851 349.491 119.829 349.156 119.872 348.826C119.915 348.496 120.023 348.178 120.19 347.89C120.529 347.303 121.087 346.875 121.741 346.698C122.395 346.522 123.092 346.613 123.68 346.95L137.77 355.14C138.352 355.478 138.776 356.033 138.95 356.683C139.124 357.333 139.034 358.025 138.7 358.61L138.69 358.64Z" fill="white"/>
</g>
<path d="M144.96 357.95C145.807 357.948 146.635 358.197 147.341 358.666C148.046 359.135 148.596 359.803 148.921 360.585C149.247 361.367 149.333 362.228 149.169 363.059C149.005 363.889 148.598 364.653 148 365.253C147.402 365.852 146.639 366.261 145.809 366.427C144.978 366.593 144.117 366.509 143.334 366.185C142.552 365.861 141.883 365.313 141.412 364.609C140.941 363.905 140.69 363.077 140.69 362.23C140.69 361.096 141.14 360.009 141.94 359.207C142.741 358.404 143.827 357.952 144.96 357.95Z" fill="#263238"/>
<path opacity="0.3" d="M597.06 264.44C597.471 264.312 597.852 264.105 598.182 263.83C598.513 263.554 598.786 263.217 598.985 262.836C599.185 262.455 599.308 262.038 599.346 261.61C599.385 261.182 599.339 260.75 599.21 260.34C598.61 249.42 596.29 239.71 589.6 233.03C589.382 232.317 588.927 231.699 588.311 231.279C587.694 230.86 586.954 230.662 586.21 230.72L546.71 234.45C546.02 234.519 545.371 234.811 544.86 235.28C544.54 235.567 544.281 235.915 544.096 236.303C543.911 236.692 543.805 237.113 543.784 237.542C543.762 237.971 543.826 238.401 543.971 238.805C544.117 239.21 544.34 239.582 544.63 239.9L555.94 252.1C556.333 252.521 556.83 252.831 557.38 253L595.2 264.46C595.81 264.628 596.454 264.621 597.06 264.44Z" fill="#7E57C2"/>
<path d="M202.73 244.35C202.445 245.433 202.578 246.583 203.103 247.572C203.627 248.561 204.504 249.317 205.56 249.69L231.56 256.97C233.904 257.689 236.33 258.105 238.78 258.21L246.96 257.66L239.24 215.99C221.43 227.69 220.24 228.23 204.24 241.85C203.47 242.489 202.938 243.37 202.73 244.35Z" fill="#263238"/>
<path d="M371.95 178.47L355.63 249.63L376.98 248.09L386.72 179.09C381.733 178.836 376.81 178.63 371.95 178.47Z" fill="#263238"/>
<path d="M439.68 234.78L469.68 197.33C470.565 196.309 471.107 195.036 471.23 193.69C471.54 190.35 469.44 187.35 466.54 186.95C460.4 186.12 453.86 185.32 447.33 184.53" fill="#263238"/>
<path d="M226.35 251.55C225.117 251.564 223.893 251.336 222.748 250.877C221.603 250.419 220.56 249.739 219.678 248.877C218.796 248.016 218.092 246.988 217.607 245.855C217.121 244.721 216.864 243.503 216.85 242.27C216.825 240.126 217.532 238.039 218.854 236.352C220.176 234.665 222.033 233.479 224.12 232.99L236.64 230.06L239.83 251.06L226.6 251.57L226.35 251.55Z" fill="#EDE2FF"/>
<path opacity="0.3" d="M236.16 251.18L239.83 251.04L236.64 230.06L233.07 230.9L236.16 251.18Z" fill="black"/>
<path opacity="0.6" d="M360.23 341.149H360.18C360.148 341.143 360.118 341.131 360.091 341.113C360.064 341.095 360.041 341.072 360.023 341.045C360.005 341.018 359.993 340.987 359.988 340.956C359.982 340.924 359.983 340.891 359.99 340.859C360.12 340.209 373.81 275.969 375.56 267.219C376.23 263.859 376.48 257.439 376.28 248.109C376.28 248.043 376.306 247.979 376.353 247.933C376.4 247.886 376.464 247.859 376.53 247.859C376.595 247.859 376.657 247.884 376.703 247.929C376.75 247.974 376.777 248.035 376.78 248.099C376.98 257.459 376.73 263.929 376.05 267.319C374.3 276.069 360.61 340.319 360.47 340.959C360.458 341.014 360.428 341.063 360.384 341.098C360.34 341.132 360.286 341.151 360.23 341.149Z" fill="black"/>
<path opacity="0.6" d="M236.91 350.79C236.869 350.789 236.828 350.779 236.792 350.76C236.755 350.741 236.724 350.713 236.7 350.68C236.53 350.42 218.87 324.28 212.8 313.35C206.54 302.1 202.54 248.19 202.36 245.9C202.357 245.834 202.379 245.77 202.422 245.719C202.465 245.669 202.525 245.637 202.59 245.63C202.623 245.627 202.656 245.631 202.687 245.641C202.719 245.651 202.748 245.667 202.773 245.689C202.798 245.71 202.819 245.736 202.834 245.765C202.848 245.795 202.857 245.827 202.86 245.86C202.86 246.42 207.06 301.95 213.24 313.11C219.29 324.02 236.94 350.11 237.12 350.4C237.139 350.427 237.152 350.458 237.158 350.491C237.165 350.523 237.165 350.557 237.158 350.589C237.152 350.622 237.139 350.653 237.12 350.681C237.102 350.708 237.078 350.732 237.05 350.75C237.007 350.773 236.959 350.787 236.91 350.79Z" fill="black"/>
<path opacity="0.6" d="M63.98 271.35C63.923 271.348 63.8684 271.327 63.8251 271.29C63.7818 271.253 63.7525 271.202 63.742 271.146C63.7315 271.09 63.7404 271.032 63.7674 270.982C63.7943 270.932 63.8375 270.892 63.89 270.87C77.43 265.33 120.89 254.87 131.03 253.26C143.86 251.2 187.7 240.38 188.14 240.26C188.172 240.252 188.206 240.251 188.238 240.257C188.271 240.263 188.302 240.275 188.33 240.292C188.357 240.31 188.382 240.333 188.401 240.36C188.42 240.387 188.433 240.417 188.44 240.45C188.449 240.481 188.451 240.514 188.447 240.547C188.443 240.579 188.432 240.611 188.415 240.639C188.398 240.667 188.376 240.691 188.349 240.71C188.322 240.729 188.292 240.743 188.26 240.75C187.82 240.86 143.96 251.68 131.1 253.75C121.21 255.34 77.28 265.93 64.1 271.33C64.063 271.349 64.0211 271.356 63.98 271.35Z" fill="black"/>
<path opacity="0.8" d="M501.34 194.509C500.37 195.379 499.784 196.597 499.709 197.897C499.634 199.197 500.076 200.474 500.94 201.449L506.37 207.359C506.999 208.02 507.793 208.5 508.67 208.749L575.25 227.219C576.411 227.53 577.608 227.688 578.81 227.689H592.04C591.35 227.229 590.64 226.809 589.91 226.419L525.68 192.609C524.903 192.225 524.311 191.547 524.033 190.726C523.756 189.905 523.816 189.007 524.2 188.229L503.34 193.449C502.601 193.645 501.917 194.008 501.34 194.509Z" fill="#3E176B"/>
<path d="M251.25 237.07C250.65 237.43 243.58 244.74 243.58 244.74L244.96 253.8L253.85 244.62L251.25 237.07Z" fill="#263238"/>
<path d="M261.9 255.96C261.149 256.33 260.282 256.388 259.489 256.12C258.696 255.852 258.042 255.28 257.67 254.53L243.54 225.95C243.357 225.579 243.248 225.175 243.221 224.762C243.194 224.35 243.248 223.935 243.381 223.544C243.514 223.152 243.722 222.79 243.995 222.479C244.268 222.167 244.599 221.913 244.97 221.73C245.341 221.545 245.746 221.435 246.16 221.407C246.574 221.379 246.989 221.433 247.382 221.566C247.775 221.699 248.138 221.908 248.45 222.181C248.762 222.455 249.017 222.787 249.2 223.16L263.3 251.74C263.672 252.485 263.734 253.348 263.472 254.139C263.209 254.93 262.644 255.585 261.9 255.96Z" fill="#263238"/>
<path d="M277.29 221.56C277.29 221.56 284.29 249.48 288.38 250.56C295.82 252.47 321.38 250.33 320.88 249.51L319.8 236.67C319.8 236.67 294.03 240.93 294.23 240.48L284.54 218.75L277.29 221.56Z" fill="#EBB373"/>
<path d="M283.72 220.439C283.72 220.439 286.02 218.299 286.08 215.699C286.14 213.099 286.89 211.049 286.8 209.119C286.71 207.189 285.1 209.239 284.46 210.499C283.82 211.759 283.08 213.199 282.21 212.559C281.34 211.919 277.54 203.459 276.21 202.719C274.88 201.979 275.09 203.539 275.09 203.539C275.09 203.539 274.09 201.539 273.2 201.679C272.96 201.679 272.48 202.209 272.79 203.199C273.46 205.439 275.12 210.069 275.12 210.069C275.03 209.799 272.57 204.239 272.12 203.449C271.49 202.449 270.68 202.259 270.12 202.639C269.29 203.179 272.12 210.179 272.02 210.559C272.02 210.559 270.53 206.479 269.27 206.279C268.01 206.079 268.8 208.709 269.94 210.889C270.94 212.889 272.51 217.079 273.77 219.009C275.32 221.379 276.89 222.629 279.52 222.229C281.051 222.004 282.497 221.387 283.72 220.439Z" fill="#EBB373"/>
<path opacity="0.3" d="M277.29 208.94C277.264 208.941 277.238 208.934 277.217 208.92C277.195 208.905 277.179 208.884 277.17 208.86C276.58 207.16 275.91 205.47 275.17 203.86C275.162 203.844 275.157 203.827 275.156 203.81C275.156 203.792 275.159 203.775 275.165 203.758C275.172 203.742 275.182 203.728 275.195 203.716C275.208 203.704 275.223 203.695 275.24 203.69C275.254 203.683 275.27 203.679 275.286 203.679C275.302 203.678 275.318 203.681 275.333 203.686C275.347 203.692 275.361 203.7 275.373 203.711C275.384 203.722 275.394 203.735 275.4 203.75C276.14 205.4 276.82 207.09 277.4 208.8C277.406 208.815 277.41 208.831 277.41 208.847C277.41 208.864 277.406 208.88 277.4 208.895C277.393 208.91 277.383 208.923 277.371 208.935C277.36 208.946 277.345 208.954 277.33 208.96L277.29 208.94Z" fill="black"/>
<path opacity="0.3" d="M272.54 212.29C272.524 212.296 272.507 212.3 272.49 212.3C272.473 212.3 272.456 212.296 272.44 212.29C272.419 212.265 272.407 212.233 272.407 212.2C272.407 212.167 272.419 212.135 272.44 212.11C274.277 210.608 276.511 209.673 278.87 209.42C278.887 209.418 278.904 209.42 278.921 209.426C278.937 209.431 278.952 209.44 278.965 209.451C278.978 209.462 278.989 209.475 278.996 209.491C279.004 209.506 279.009 209.523 279.01 209.54C279.011 209.556 279.01 209.571 279.005 209.587C279 209.602 278.992 209.616 278.982 209.628C278.972 209.64 278.959 209.65 278.945 209.657C278.931 209.664 278.916 209.669 278.9 209.67C276.587 209.915 274.397 210.833 272.6 212.31L272.54 212.29Z" fill="black"/>
<path opacity="0.3" d="M280.05 218.719C280.024 218.719 279.999 218.712 279.978 218.698C279.957 218.683 279.94 218.663 279.93 218.639C279.56 217.721 279.522 216.703 279.821 215.76C280.12 214.816 280.739 214.006 281.57 213.469C281.581 213.458 281.594 213.449 281.609 213.443C281.624 213.437 281.639 213.434 281.655 213.434C281.671 213.434 281.686 213.437 281.701 213.443C281.716 213.449 281.729 213.458 281.74 213.469C281.751 213.481 281.76 213.494 281.766 213.508C281.772 213.523 281.775 213.539 281.775 213.554C281.775 213.57 281.772 213.586 281.766 213.6C281.76 213.615 281.751 213.628 281.74 213.639C280.958 214.144 280.377 214.905 280.095 215.792C279.814 216.679 279.851 217.637 280.2 218.499C280.214 218.53 280.215 218.565 280.204 218.596C280.193 218.628 280.17 218.654 280.14 218.669L280.05 218.719Z" fill="black"/>
<path d="M350.28 234.71C345.6 228.53 338.17 229.15 333.34 230L323.78 231.57C323.474 231.617 323.173 231.691 322.88 231.79L320.7 232.46L300.23 239.02L305.17 252.12L311.86 251.3L310.74 253.11L317.3 252.69L353.11 250.82V243.56C353.153 240.381 352.159 237.274 350.28 234.71Z" fill="#263238"/>
<path d="M348.34 245.02C348.34 245.02 343.85 275.13 340.67 278.32C333.09 285.94 305.02 264.98 305.02 264.98L305.89 256.89L330.13 266.89L334.67 241.35L348.34 245.02Z" fill="#EBB373"/>
<path d="M352.03 242.97C351.81 243.71 349.88 264.72 349.88 264.72L329.32 262.8C329.32 262.8 330.39 256.97 331.94 246.8C333.57 236.17 334.51 230.8 339.78 229.94C349.75 228.27 352.03 242.97 352.03 242.97Z" fill="#263238"/>
<path d="M345.14 195.4C348.24 200.84 349.32 204.09 349.6 209.31C349.93 215.4 349.65 220.78 348.29 222.31C346.51 224.31 327.23 226.31 316.42 225.84C316.03 225.84 315.71 222.4 315.71 222.4C315.71 222.4 314.18 225.75 313.71 225.72C310.76 225.59 308.87 225.48 308.87 225.48C308.87 225.48 311.32 220.48 314.31 202.3C315.77 193.44 324.69 189.9 329.94 189.23C338.66 188.15 345.14 195.4 345.14 195.4Z" fill="#263238"/>
<path d="M319.45 212.52C316.62 207.63 313.81 194.45 325.6 190.39C340.31 185.31 346.89 194.69 348.16 203.99C349.43 213.29 344.16 220.31 334.46 219.61C324.76 218.91 321.4 215.91 319.45 212.52Z" fill="#263238"/>
<path d="M339.87 213.18L331.18 221.18L329.54 222.96C330.025 224.178 330.36 225.451 330.54 226.75C330.665 228.12 330.276 229.489 329.45 230.59L327.5 235.03C331.85 231.62 341.76 229.79 341.76 229.79C340.108 224.418 339.467 218.786 339.87 213.18Z" fill="#EBB373"/>
<path opacity="0.2" d="M330.54 227.229C332.88 225.979 335.54 223.749 335.32 221.049C335.267 220.059 335.095 219.079 334.81 218.129L329.88 224.049C330.213 225.083 330.434 226.149 330.54 227.229Z" fill="black"/>
<path d="M342.64 204.35C341.46 212.85 341.14 216.46 336.53 220.73C329.6 227.15 319.53 224.41 318.16 215.88C316.93 208.19 319.06 195.59 327.6 192.4C329.411 191.655 331.387 191.407 333.326 191.681C335.264 191.956 337.095 192.742 338.627 193.96C340.16 195.178 341.34 196.783 342.046 198.61C342.751 200.436 342.956 202.418 342.64 204.35Z" fill="#EBB373"/>
<path d="M331.8 206.9C331.71 207.76 331.15 208.44 330.55 208.42C329.95 208.4 329.55 207.7 329.61 206.84C329.67 205.98 330.26 205.3 330.86 205.32C331.46 205.34 331.89 206.04 331.8 206.9Z" fill="#263238"/>
<path d="M322.94 206.349C322.85 207.169 322.3 207.819 321.71 207.809C321.12 207.799 320.71 207.109 320.79 206.299C320.87 205.489 321.43 204.829 322.02 204.839C322.61 204.849 323.02 205.509 322.94 206.349Z" fill="#263238"/>
<path d="M333.15 203.8C333.093 203.812 333.033 203.811 332.976 203.797C332.919 203.784 332.865 203.757 332.82 203.72C332.39 203.384 331.889 203.152 331.355 203.041C330.82 202.93 330.268 202.943 329.74 203.08C329.688 203.1 329.632 203.109 329.575 203.107C329.519 203.105 329.464 203.091 329.414 203.067C329.363 203.043 329.318 203.008 329.281 202.965C329.244 202.923 329.217 202.873 329.2 202.82C329.175 202.706 329.194 202.587 329.254 202.487C329.313 202.386 329.408 202.312 329.52 202.28C330.185 202.093 330.884 202.065 331.562 202.199C332.239 202.333 332.876 202.624 333.42 203.05C333.462 203.086 333.496 203.132 333.52 203.182C333.543 203.233 333.555 203.289 333.555 203.345C333.555 203.401 333.543 203.456 333.52 203.507C333.496 203.558 333.462 203.603 333.42 203.64C333.351 203.722 333.256 203.779 333.15 203.8Z" fill="#263238"/>
<path d="M320.11 202.049C320.019 202.001 319.95 201.918 319.92 201.819C319.893 201.712 319.909 201.598 319.965 201.503C320.021 201.407 320.113 201.338 320.22 201.309C320.863 201.1 321.546 201.041 322.215 201.138C322.885 201.235 323.523 201.486 324.08 201.869C324.12 201.905 324.153 201.949 324.175 201.998C324.197 202.047 324.209 202.101 324.209 202.154C324.209 202.208 324.197 202.262 324.175 202.311C324.153 202.36 324.12 202.404 324.08 202.439C323.996 202.514 323.887 202.555 323.775 202.555C323.663 202.555 323.554 202.514 323.47 202.439C323.024 202.144 322.517 201.954 321.987 201.883C321.457 201.812 320.918 201.862 320.41 202.029C320.315 202.071 320.209 202.078 320.11 202.049Z" fill="#263238"/>
<path d="M335.86 196.35C333.02 199.07 333.86 209.9 341.42 211.66C350.29 210.04 344.36 188.26 335.86 196.35Z" fill="#263238"/>
<path d="M324.82 214.4C325.356 215.436 325.817 216.508 326.2 217.61L326.81 217.51C329.55 217 330.66 215.85 331.05 214.74C331.23 214.192 331.278 213.609 331.19 213.04C331.146 212.716 331.059 212.4 330.93 212.1C329.64 213.24 327.11 213.91 325.75 214.21C325.18 214.35 324.82 214.4 324.82 214.4Z" fill="#263238"/>
<path d="M325.75 214.21L326.18 215.15C328.77 214.66 330.52 213.97 331.18 213.04C331.137 212.716 331.049 212.4 330.92 212.1C329.64 213.24 327.11 213.91 325.75 214.21Z" fill="white"/>
<path d="M326.81 217.51C329.55 217 330.66 215.85 331.05 214.74C330.012 214.954 329.02 215.35 328.12 215.91C327.525 216.291 327.066 216.851 326.81 217.51Z" fill="#DC5753"/>
<path d="M325.36 205.84C324.416 207.842 323.224 209.717 321.81 211.42C322.81 212.52 324.81 212.06 324.81 212.06L325.36 205.84Z" fill="#E4873E"/>
<path d="M329.18 204.83L331.12 205.39C330.18 206.35 329.18 204.83 329.18 204.83Z" fill="#263238"/>
<path d="M320.44 204.35L322.37 204.91C321.44 205.85 320.44 204.35 320.44 204.35Z" fill="#263238"/>
<path d="M327.75 190.519C324.32 191.519 320.48 197.169 319.75 199.389C324.5 200.389 337.62 196.499 337.62 196.499C337.62 196.499 346.13 199.279 341.96 194.709C337.79 190.139 327.75 190.519 327.75 190.519Z" fill="#263238"/>
<path d="M344.9 211.349C343.917 212.876 342.372 213.954 340.6 214.349C338.32 214.809 337.32 211.119 338.19 208.899C338.598 207.896 339.352 207.072 340.315 206.577C341.278 206.081 342.387 205.948 343.44 206.199C345.54 206.789 346.14 209.429 344.9 211.349Z" fill="#EBB373"/>
<path d="M305.3 224.67L305.04 224.24C308.24 222.32 311.29 214.85 312.59 211.66C313.892 208.102 314.807 204.414 315.32 200.66L315.82 200.75C315.292 204.524 314.364 208.232 313.05 211.81C311.62 215.35 308.64 222.66 305.3 224.67Z" fill="#263238"/>
<path d="M339.93 214.15C339.915 214.464 339.993 214.776 340.155 215.046C340.316 215.316 340.555 215.532 340.839 215.666C341.124 215.8 341.442 215.847 341.753 215.801C342.065 215.754 342.355 215.616 342.588 215.404C342.821 215.193 342.986 214.916 343.061 214.611C343.137 214.305 343.12 213.984 343.014 213.688C342.907 213.392 342.714 213.135 342.461 212.948C342.208 212.761 341.904 212.654 341.59 212.64C341.382 212.629 341.173 212.66 340.977 212.73C340.78 212.8 340.6 212.909 340.445 213.049C340.291 213.189 340.166 213.359 340.078 213.548C339.989 213.737 339.939 213.941 339.93 214.15Z" fill="#EDE2FF"/>
<path opacity="0.1" d="M339.82 211.35C339.787 211.347 339.755 211.338 339.726 211.323C339.696 211.308 339.67 211.288 339.649 211.263C339.627 211.238 339.611 211.208 339.601 211.177C339.591 211.146 339.587 211.113 339.59 211.08C339.626 210.651 339.758 210.235 339.978 209.865C340.197 209.495 340.498 209.179 340.857 208.941C341.215 208.703 341.624 208.55 342.05 208.493C342.477 208.435 342.911 208.475 343.32 208.61C343.383 208.632 343.434 208.678 343.464 208.738C343.494 208.797 343.499 208.866 343.48 208.93C343.47 208.962 343.453 208.991 343.432 209.016C343.41 209.042 343.383 209.062 343.354 209.077C343.324 209.092 343.291 209.101 343.258 209.103C343.225 209.105 343.191 209.101 343.16 209.09C342.826 208.978 342.471 208.944 342.122 208.989C341.772 209.034 341.437 209.157 341.142 209.349C340.847 209.541 340.599 209.798 340.417 210.099C340.235 210.4 340.123 210.739 340.09 211.09C340.092 211.125 340.085 211.161 340.072 211.193C340.059 211.226 340.039 211.256 340.014 211.281C339.988 211.305 339.958 211.324 339.924 211.336C339.891 211.348 339.855 211.353 339.82 211.35Z" fill="black"/>
<path d="M315.43 262.49L305.89 256.89L303.29 253.56C303.29 253.56 300.61 250.4 298.45 250.19C297.366 250.155 296.289 250.381 295.31 250.85C295.31 250.85 292.81 252.43 294.31 254.85C294.31 254.85 291.84 256.12 293.52 258.85C293.52 258.85 291.15 258.9 293.18 261.38C293.962 262.318 294.924 263.089 296.01 263.649C297.095 264.209 298.282 264.546 299.5 264.64C300.908 264.772 302.328 264.647 303.69 264.27L314.22 271.19L315.43 262.49Z" fill="#EBB373"/>
<path d="M331.12 251.999L332.84 241.209L327.59 252.119L331.12 251.999Z" fill="black"/>
<path d="M311.86 251.299L316.15 242.589L307.91 251.789L311.86 251.299Z" fill="black"/>
</svg>
