<svg width="43" height="52" viewBox="0 0 43 52" fill="none" xmlns="http://www.w3.org/2000/svg">
<path d="M0 5C0 2.23858 2.23858 0 5 0H38C40.7614 0 43 2.23858 43 5V47C43 49.7614 40.7614 52 38 52H5C2.23858 52 0 49.7614 0 47V5Z" fill="#A0DFD0"/>
<g clip-path="url(#clip0_87_10526)">
<path d="M29.1667 20.2498H28.2084V27.9165C28.2084 28.4436 27.7772 28.8748 27.2501 28.8748H15.7501V29.8332C15.7501 30.8873 16.6126 31.7498 17.6667 31.7498H27.2501L31.0834 35.5832V22.1665C31.0834 21.1123 30.2209 20.2498 29.1667 20.2498ZM26.2917 25.0415V18.3332C26.2917 17.279 25.4292 16.4165 24.3751 16.4165H13.8334C12.7792 16.4165 11.9167 17.279 11.9167 18.3332V30.7915L15.7501 26.9582H24.3751C25.4292 26.9582 26.2917 26.0957 26.2917 25.0415Z" fill="#009C85"/>
</g>
<defs>
<clipPath id="clip0_87_10526">
<rect width="23" height="23" fill="white" transform="translate(10 14.5)"/>
</clipPath>
</defs>
</svg>
