<svg width="42" height="42" viewBox="0 0 42 42" fill="none" xmlns="http://www.w3.org/2000/svg">
<path d="M33 21C33 14.3726 27.6274 9 21 9C14.3726 9 9 14.3726 9 21C9 26.9895 13.3882 31.954 19.125 32.8542V24.4688H16.0781V21H19.125V18.3563C19.125 15.3488 20.9166 13.6875 23.6576 13.6875C24.9705 13.6875 26.3438 13.9219 26.3438 13.9219V16.875H24.8306C23.3399 16.875 22.875 17.8 22.875 18.7491V21H26.2031L25.6711 24.4688H22.875V32.8542C28.6117 31.954 33 26.9896 33 21Z" fill="#1877F2"/>
<path d="M25.6711 24.4688L26.2031 21H22.875V18.7491C22.875 17.8 23.3399 16.875 24.8306 16.875H26.3438V13.9219C26.3438 13.9219 24.9705 13.6875 23.6576 13.6875C20.9166 13.6875 19.125 15.3488 19.125 18.3563V21H16.0781V24.4688H19.125V32.8542C19.7453 32.9514 20.3722 33.0002 21 33C21.6278 33.0002 22.2547 32.9514 22.875 32.8542V24.4688H25.6711Z" fill="#F7F0E3"/>
</svg>
