<svg width="42" height="42" viewBox="0 0 42 42" fill="none" xmlns="http://www.w3.org/2000/svg">
<path d="M32.7666 18.6498H31.8V18.6H21V23.4H27.7818C26.7924 26.1942 24.1338 28.2 21 28.2C17.0238 28.2 13.8 24.9762 13.8 21C13.8 17.0238 17.0238 13.8 21 13.8C22.8354 13.8 24.5052 14.4924 25.7766 15.6234L29.1708 12.2292C27.0276 10.2318 24.1608 9 21 9C14.373 9 9 14.373 9 21C9 27.627 14.373 33 21 33C27.627 33 33 27.627 33 21C33 20.1954 32.9172 19.41 32.7666 18.6498Z" fill="#FFC107"/>
<path d="M10.3836 15.4146L14.3262 18.306C15.393 15.6648 17.9766 13.8 21 13.8C22.8354 13.8 24.5052 14.4924 25.7766 15.6234L29.1708 12.2292C27.0276 10.2318 24.1608 9 21 9C16.3908 9 12.3936 11.6022 10.3836 15.4146Z" fill="#FF3D00"/>
<path d="M21 33C24.0996 33 26.916 31.8138 29.0454 29.8848L25.3314 26.742C24.0861 27.689 22.5645 28.2012 21 28.2C17.8788 28.2 15.2286 26.2098 14.2302 23.4324L10.317 26.4474C12.303 30.3336 16.3362 33 21 33Z" fill="#4CAF50"/>
<path d="M32.7666 18.6498H31.8V18.6H21V23.4H27.7818C27.3085 24.7298 26.456 25.8919 25.3296 26.7426L25.3314 26.742L29.0454 29.8848C28.7826 30.1236 33 27 33 21C33 20.1954 32.9172 19.41 32.7666 18.6498Z" fill="#1976D2"/>
</svg>
