<svg width="30" height="30" viewBox="0 0 30 30" fill="none" xmlns="http://www.w3.org/2000/svg">
<g clip-path="url(#clip0_87_5111)">
<path d="M15 18.7397C12.9289 18.7397 11.25 20.4187 11.25 22.4897V29.9897H18.75V22.4897C18.75 20.4187 17.0711 18.7397 15 18.7397Z" fill="#6000AC"/>
<path d="M21.25 22.4901V29.9901H26.25C28.3211 29.9901 30 28.3112 30 26.2401V14.8389C30.0003 14.1895 29.7479 13.5655 29.2962 13.0989L18.6738 1.61509C16.7995 -0.41284 13.6361 -0.537352 11.6082 1.33695C11.5119 1.42601 11.419 1.51876 11.33 1.61509L0.72627 13.0951C0.260918 13.5636 -0.000175693 14.1973 8.87009e-08 14.8576V26.2401C8.87009e-08 28.3112 1.67895 29.9901 3.75 29.9901H8.74998V22.4901C8.77336 19.0816 11.5253 16.2982 14.848 16.218C18.2818 16.1351 21.2238 18.966 21.25 22.4901Z" fill="#6000AC"/>
<path d="M15 18.7397C12.9289 18.7397 11.25 20.4187 11.25 22.4897V29.9897H18.75V22.4897C18.75 20.4187 17.0711 18.7397 15 18.7397Z" fill="#6000AC"/>
</g>
<defs>
<clipPath id="clip0_87_5111">
<rect width="30" height="30" fill="white"/>
</clipPath>
</defs>
</svg>
