<svg width="30" height="30" viewBox="0 0 30 30" fill="none" xmlns="http://www.w3.org/2000/svg">
<g clip-path="url(#clip0_87_5205)">
<path d="M28.9018 11.3364L19.4205 1.85389C18.2471 0.683875 16.6576 0.0268555 15.0005 0.0268555C13.3434 0.0268555 11.754 0.683875 10.5805 1.85389L1.09925 11.3364C0.749785 11.6836 0.472716 12.0968 0.284106 12.5519C0.0954973 13.007 -0.000899719 13.495 0.000503381 13.9876V26.2589C0.000503381 27.2535 0.395592 28.2073 1.09885 28.9105C1.80211 29.6138 2.75594 30.0089 3.7505 30.0089H26.2505C27.2451 30.0089 28.1989 29.6138 28.9022 28.9105C29.6054 28.2073 30.0005 27.2535 30.0005 26.2589V13.9876C30.0019 13.495 29.9055 13.007 29.7169 12.5519C29.5283 12.0968 29.2512 11.6836 28.9018 11.3364ZM18.7505 27.5089H11.2505V22.5914C11.2505 21.5968 11.6456 20.643 12.3489 19.9397C13.0521 19.2365 14.0059 18.8414 15.0005 18.8414C15.9951 18.8414 16.9489 19.2365 17.6522 19.9397C18.3554 20.643 18.7505 21.5968 18.7505 22.5914V27.5089ZM27.5005 26.2589C27.5005 26.5904 27.3688 26.9084 27.1344 27.1428C26.9 27.3772 26.582 27.5089 26.2505 27.5089H21.2505V22.5914C21.2505 20.9338 20.592 19.3441 19.4199 18.172C18.2478 16.9999 16.6581 16.3414 15.0005 16.3414C13.3429 16.3414 11.7532 16.9999 10.5811 18.172C9.40899 19.3441 8.7505 20.9338 8.7505 22.5914V27.5089H3.7505C3.41898 27.5089 3.10104 27.3772 2.86662 27.1428C2.6322 26.9084 2.5005 26.5904 2.5005 26.2589V13.9876C2.50166 13.6564 2.63324 13.3389 2.86675 13.1039L12.348 3.62514C13.0526 2.9238 14.0063 2.53007 15.0005 2.53007C15.9947 2.53007 16.9484 2.9238 17.653 3.62514L27.1343 13.1076C27.3669 13.3417 27.4984 13.6577 27.5005 13.9876V26.2589Z" fill="#6000AC"/>
</g>
<defs>
<clipPath id="clip0_87_5205">
<rect width="30" height="30" fill="white"/>
</clipPath>
</defs>
</svg>
