<svg width="154" height="101" viewBox="0 0 154 101" fill="none" xmlns="http://www.w3.org/2000/svg">
<path d="M24.072 7.536L16.104 30H9.256L1.288 7.536H7.112L12.68 24.496L18.28 7.536H24.072ZM25.271 21.04C25.271 19.2053 25.6123 17.5947 26.295 16.208C26.999 14.8213 27.9483 13.7547 29.143 13.008C30.3377 12.2613 31.671 11.888 33.143 11.888C34.4017 11.888 35.5003 12.144 36.439 12.656C37.399 13.168 38.135 13.84 38.647 14.672V12.144H44.119V30H38.647V27.472C38.1137 28.304 37.367 28.976 36.407 29.488C35.4683 30 34.3697 30.256 33.111 30.256C31.6603 30.256 30.3377 29.8827 29.143 29.136C27.9483 28.368 26.999 27.2907 26.295 25.904C25.6123 24.496 25.271 22.8747 25.271 21.04ZM38.647 21.072C38.647 19.7067 38.263 18.6293 37.495 17.84C36.7483 17.0507 35.831 16.656 34.743 16.656C33.655 16.656 32.727 17.0507 31.959 17.84C31.2123 18.608 30.839 19.6747 30.839 21.04C30.839 22.4053 31.2123 23.4933 31.959 24.304C32.727 25.0933 33.655 25.488 34.743 25.488C35.831 25.488 36.7483 25.0933 37.495 24.304C38.263 23.5147 38.647 22.4373 38.647 21.072ZM70.8618 11.952C73.0804 11.952 74.8404 12.624 76.1418 13.968C77.4644 15.312 78.1258 17.1787 78.1258 19.568V30H72.6858V20.304C72.6858 19.152 72.3764 18.2667 71.7578 17.648C71.1604 17.008 70.3284 16.688 69.2618 16.688C68.1951 16.688 67.3524 17.008 66.7338 17.648C66.1364 18.2667 65.8378 19.152 65.8378 20.304V30H60.3978V20.304C60.3978 19.152 60.0884 18.2667 59.4698 17.648C58.8724 17.008 58.0404 16.688 56.9738 16.688C55.9071 16.688 55.0644 17.008 54.4458 17.648C53.8484 18.2667 53.5498 19.152 53.5498 20.304V30H48.0778V12.144H53.5498V14.384C54.1044 13.6373 54.8298 13.0507 55.7258 12.624C56.6218 12.176 57.6351 11.952 58.7658 11.952C60.1098 11.952 61.3044 12.24 62.3498 12.816C63.4164 13.392 64.2484 14.2133 64.8458 15.28C65.4644 14.2987 66.3071 13.4987 67.3738 12.88C68.4404 12.2613 69.6031 11.952 70.8618 11.952ZM90.0808 30.256C88.3314 30.256 86.7528 29.8827 85.3448 29.136C83.9581 28.3893 82.8594 27.3227 82.0488 25.936C81.2594 24.5493 80.8648 22.928 80.8648 21.072C80.8648 19.2373 81.2701 17.6267 82.0807 16.24C82.8914 14.832 84.0008 13.7547 85.4088 13.008C86.8168 12.2613 88.3954 11.888 90.1448 11.888C91.8941 11.888 93.4728 12.2613 94.8808 13.008C96.2888 13.7547 97.3981 14.832 98.2088 16.24C99.0194 17.6267 99.4248 19.2373 99.4248 21.072C99.4248 22.9067 99.0088 24.528 98.1768 25.936C97.3661 27.3227 96.2461 28.3893 94.8168 29.136C93.4088 29.8827 91.8301 30.256 90.0808 30.256ZM90.0808 25.52C91.1261 25.52 92.0114 25.136 92.7368 24.368C93.4834 23.6 93.8568 22.5013 93.8568 21.072C93.8568 19.6427 93.4941 18.544 92.7688 17.776C92.0648 17.008 91.1901 16.624 90.1448 16.624C89.0781 16.624 88.1928 17.008 87.4888 17.776C86.7848 18.5227 86.4328 19.6213 86.4328 21.072C86.4328 22.5013 86.7741 23.6 87.4568 24.368C88.1608 25.136 89.0354 25.52 90.0808 25.52ZM109.592 30.256C108.034 30.256 106.648 29.9893 105.432 29.456C104.216 28.9227 103.256 28.1973 102.552 27.28C101.848 26.3413 101.453 25.296 101.368 24.144H106.776C106.84 24.7627 107.128 25.264 107.64 25.648C108.152 26.032 108.781 26.224 109.528 26.224C110.21 26.224 110.733 26.096 111.096 25.84C111.48 25.5627 111.672 25.2107 111.672 24.784C111.672 24.272 111.405 23.8987 110.872 23.664C110.338 23.408 109.474 23.1307 108.28 22.832C107 22.5333 105.933 22.224 105.08 21.904C104.226 21.5627 103.49 21.04 102.872 20.336C102.253 19.6107 101.944 18.64 101.944 17.424C101.944 16.4 102.221 15.472 102.776 14.64C103.352 13.7867 104.184 13.1147 105.272 12.624C106.381 12.1333 107.693 11.888 109.208 11.888C111.448 11.888 113.208 12.4427 114.488 13.552C115.789 14.6613 116.536 16.1333 116.728 17.968H111.672C111.586 17.3493 111.309 16.8587 110.84 16.496C110.392 16.1333 109.794 15.952 109.048 15.952C108.408 15.952 107.917 16.08 107.576 16.336C107.234 16.5707 107.064 16.9013 107.064 17.328C107.064 17.84 107.33 18.224 107.864 18.48C108.418 18.736 109.272 18.992 110.424 19.248C111.746 19.5893 112.824 19.9307 113.656 20.272C114.488 20.592 115.213 21.1253 115.832 21.872C116.472 22.5973 116.802 23.5787 116.824 24.816C116.824 25.8613 116.525 26.8 115.928 27.632C115.352 28.4427 114.509 29.0827 113.4 29.552C112.312 30.0213 111.042 30.256 109.592 30.256ZM5.704 48.288C4.744 48.288 3.95467 48.0107 3.336 47.456C2.73867 46.88 2.44 46.176 2.44 45.344C2.44 44.4907 2.73867 43.7867 3.336 43.232C3.95467 42.656 4.744 42.368 5.704 42.368C6.64267 42.368 7.41067 42.656 8.008 43.232C8.62667 43.7867 8.936 44.4907 8.936 45.344C8.936 46.176 8.62667 46.88 8.008 47.456C7.41067 48.0107 6.64267 48.288 5.704 48.288ZM8.456 70.304C8.456 72.5013 7.90133 74.08 6.792 75.04C5.68267 76.0213 4.136 76.512 2.152 76.512H0.00799996V71.872H1.32C1.91733 71.872 2.344 71.7547 2.6 71.52C2.856 71.2853 2.984 70.9013 2.984 70.368V50.144H8.456V70.304ZM30.0223 50.144V68H24.5503V65.568C23.9956 66.3573 23.2383 66.9973 22.2783 67.488C21.3396 67.9573 20.2943 68.192 19.1423 68.192C17.7769 68.192 16.5716 67.8933 15.5263 67.296C14.4809 66.6773 13.6703 65.792 13.0943 64.64C12.5183 63.488 12.2303 62.1333 12.2303 60.576V50.144H17.6703V59.84C17.6703 61.0347 17.9796 61.9627 18.5983 62.624C19.2169 63.2853 20.0489 63.616 21.0943 63.616C22.1609 63.616 23.0036 63.2853 23.6223 62.624C24.2409 61.9627 24.5503 61.0347 24.5503 59.84V50.144H30.0223ZM44.8328 49.952C46.9234 49.952 48.5874 50.6347 49.8248 52C51.0834 53.344 51.7128 55.2 51.7128 57.568V68H46.2728V58.304C46.2728 57.1093 45.9634 56.1813 45.3448 55.52C44.7261 54.8587 43.8941 54.528 42.8488 54.528C41.8034 54.528 40.9714 54.8587 40.3528 55.52C39.7341 56.1813 39.4248 57.1093 39.4248 58.304V68H33.9528V50.144H39.4248V52.512C39.9794 51.7227 40.7261 51.104 41.6648 50.656C42.6034 50.1867 43.6594 49.952 44.8328 49.952ZM65.4673 63.36V68H62.6833C60.6993 68 59.1526 67.52 58.0433 66.56C56.9339 65.5787 56.3793 63.9893 56.3793 61.792V54.688H54.2033V50.144H56.3793V45.792H61.8513V50.144H65.4353V54.688H61.8513V61.856C61.8513 62.3893 61.9793 62.7733 62.2353 63.008C62.4913 63.2427 62.9179 63.36 63.5153 63.36H65.4673ZM76.6433 68.256C74.8939 68.256 73.3153 67.8827 71.9073 67.136C70.5206 66.3893 69.4219 65.3227 68.6113 63.936C67.8219 62.5493 67.4273 60.928 67.4273 59.072C67.4273 57.2373 67.8326 55.6267 68.6432 54.24C69.4539 52.832 70.5633 51.7547 71.9713 51.008C73.3793 50.2613 74.9579 49.888 76.7073 49.888C78.4566 49.888 80.0353 50.2613 81.4433 51.008C82.8513 51.7547 83.9606 52.832 84.7713 54.24C85.5819 55.6267 85.9873 57.2373 85.9873 59.072C85.9873 60.9067 85.5713 62.528 84.7393 63.936C83.9286 65.3227 82.8086 66.3893 81.3793 67.136C79.9713 67.8827 78.3926 68.256 76.6433 68.256ZM76.6433 63.52C77.6886 63.52 78.5739 63.136 79.2993 62.368C80.0459 61.6 80.4193 60.5013 80.4193 59.072C80.4193 57.6427 80.0566 56.544 79.3313 55.776C78.6273 55.008 77.7526 54.624 76.7073 54.624C75.6406 54.624 74.7553 55.008 74.0513 55.776C73.3473 56.5227 72.9953 57.6213 72.9953 59.072C72.9953 60.5013 73.3366 61.6 74.0193 62.368C74.7233 63.136 75.5979 63.52 76.6433 63.52ZM96.1543 68.256C94.5969 68.256 93.2103 67.9893 91.9943 67.456C90.7783 66.9227 89.8183 66.1973 89.1143 65.28C88.4103 64.3413 88.0156 63.296 87.9303 62.144H93.3383C93.4023 62.7627 93.6903 63.264 94.2023 63.648C94.7143 64.032 95.3436 64.224 96.0903 64.224C96.7729 64.224 97.2956 64.096 97.6583 63.84C98.0423 63.5627 98.2343 63.2107 98.2343 62.784C98.2343 62.272 97.9676 61.8987 97.4343 61.664C96.9009 61.408 96.0369 61.1307 94.8423 60.832C93.5623 60.5333 92.4956 60.224 91.6423 59.904C90.7889 59.5627 90.0529 59.04 89.4343 58.336C88.8156 57.6107 88.5063 56.64 88.5063 55.424C88.5063 54.4 88.7836 53.472 89.3383 52.64C89.9143 51.7867 90.7463 51.1147 91.8343 50.624C92.9436 50.1333 94.2556 49.888 95.7703 49.888C98.0103 49.888 99.7703 50.4427 101.05 51.552C102.352 52.6613 103.098 54.1333 103.29 55.968H98.2343C98.1489 55.3493 97.8716 54.8587 97.4023 54.496C96.9543 54.1333 96.3569 53.952 95.6103 53.952C94.9703 53.952 94.4796 54.08 94.1383 54.336C93.7969 54.5707 93.6263 54.9013 93.6263 55.328C93.6263 55.84 93.8929 56.224 94.4263 56.48C94.9809 56.736 95.8343 56.992 96.9863 57.248C98.3089 57.5893 99.3863 57.9307 100.218 58.272C101.05 58.592 101.776 59.1253 102.394 59.872C103.034 60.5973 103.365 61.5787 103.386 62.816C103.386 63.8613 103.088 64.8 102.49 65.632C101.914 66.4427 101.072 67.0827 99.9623 67.552C98.8743 68.0213 97.6049 68.256 96.1543 68.256ZM113.294 44.288C115.577 44.288 117.401 44.8853 118.766 46.08C120.153 47.2747 120.846 48.96 120.846 51.136C120.846 53.1413 120.185 54.7093 118.862 55.84C117.561 56.9493 115.833 57.5147 113.678 57.536L113.518 59.936H108.718L108.558 53.984H110.478C112.121 53.984 113.369 53.7813 114.222 53.376C115.097 52.9707 115.534 52.2347 115.534 51.168C115.534 50.4213 115.331 49.8347 114.926 49.408C114.521 48.9813 113.955 48.768 113.23 48.768C112.462 48.768 111.865 48.992 111.438 49.44C111.011 49.8667 110.798 50.4533 110.798 51.2H105.646C105.603 49.8987 105.87 48.7253 106.446 47.68C107.043 46.6347 107.918 45.8133 109.07 45.216C110.243 44.5973 111.651 44.288 113.294 44.288ZM111.182 68.256C110.222 68.256 109.433 67.9787 108.814 67.424C108.217 66.848 107.918 66.144 107.918 65.312C107.918 64.4587 108.217 63.744 108.814 63.168C109.433 62.592 110.222 62.304 111.182 62.304C112.121 62.304 112.889 62.592 113.486 63.168C114.105 63.744 114.414 64.4587 114.414 65.312C114.414 66.144 114.105 66.848 113.486 67.424C112.889 67.9787 112.121 68.256 111.182 68.256Z" fill="#FDFCFF"/>
<rect x="11" y="76" width="134" height="3" rx="1.5" fill="#F3FBF9"/>
<g clip-path="url(#clip0_128_240)">
<path d="M136.5 60.5001C138.656 60.5001 140.417 58.7399 140.417 56.5834C140.417 54.427 138.656 52.6667 136.5 52.6667C134.343 52.6667 132.583 54.427 132.583 56.5834C132.583 58.7399 134.343 60.5001 136.5 60.5001ZM136.5 45.9167C142.104 45.9167 147.167 50.1955 147.167 56.8751C147.167 58.9352 146.372 61.2684 144.652 63.8983C142.934 66.5253 140.329 69.3921 136.805 72.4989C136.627 72.6511 136.358 72.6512 136.181 72.4991C132.664 69.3924 130.063 66.5257 128.346 63.8987C126.628 61.2686 125.833 58.9353 125.833 56.8751C125.833 50.1955 130.896 45.9167 136.5 45.9167Z" stroke="#F3FBF9" stroke-width="2"/>
</g>
<defs>
<clipPath id="clip0_128_240">
<rect width="35" height="35" fill="white" transform="translate(119 42)"/>
</clipPath>
</defs>
</svg>
