<svg width="30" height="30" viewBox="0 0 30 30" fill="none" xmlns="http://www.w3.org/2000/svg">
<g clip-path="url(#clip0_87_5254)">
<path d="M25.85 1.45905L25.8237 1.45029L22.43 0.325296C21.2578 -0.0638835 19.9967 -0.0982367 18.805 0.226546L11.835 2.25029C10.9816 2.47646 10.0759 2.39686 9.275 2.02529L8.65 1.73529C7.70074 1.34051 6.66875 1.18599 5.64549 1.28543C4.62223 1.38486 3.6393 1.73519 2.78381 2.30535C1.92833 2.87551 1.22669 3.6479 0.741104 4.55407C0.255514 5.46024 0.000959107 6.47221 0 7.50029L0 22.594C0.00262699 23.9457 0.44224 25.2603 1.25324 26.3416C2.06424 27.4229 3.20314 28.213 4.5 28.594L8.08625 29.719C8.69127 29.9071 9.32142 30.0019 9.955 30.0003C10.5198 30.0074 11.0825 29.9312 11.625 29.774L18.875 27.774C19.5375 27.5943 20.2367 27.5999 20.8962 27.7903L23.825 28.6353C24.5603 28.813 25.3263 28.8216 26.0654 28.6605C26.8045 28.4993 27.4974 28.1725 28.0918 27.7047C28.6863 27.237 29.1669 26.6404 29.4975 25.96C29.828 25.2795 29.9998 24.533 30 23.7765V7.34529C29.9981 6.05634 29.5985 4.79937 28.8558 3.74591C28.1131 2.69246 27.0634 1.89384 25.85 1.45905ZM5.22 26.199C4.43788 25.9728 3.75011 25.4993 3.25974 24.8494C2.76938 24.1995 2.50281 23.4082 2.5 22.594V7.50029C2.49393 6.88114 2.6437 6.27041 2.93553 5.72431C3.22736 5.17822 3.65188 4.71431 4.17 4.37529C4.7865 3.96635 5.51019 3.74889 6.25 3.75029C6.72708 3.75042 7.19944 3.84473 7.64 4.02779C7.64 4.02779 8.57125 4.42654 8.74875 4.49029V27.3028L5.22 26.199ZM11.25 27.284V4.84904C11.6746 4.82651 12.0958 4.76161 12.5075 4.65529L18.75 2.84154V25.2503L11.25 27.284ZM27.5 23.7765C27.5003 24.1509 27.4164 24.5206 27.2547 24.8583C27.0929 25.196 26.8574 25.493 26.5654 25.7275C26.2735 25.962 25.9326 26.1279 25.568 26.2129C25.2034 26.298 24.8243 26.3001 24.4587 26.219L21.25 25.3153V2.59404L25.0225 3.81779C25.7475 4.08048 26.3742 4.55989 26.8174 5.19094C27.2606 5.822 27.4989 6.57414 27.5 7.34529V23.7765Z" fill="#6000AC"/>
</g>
<defs>
<clipPath id="clip0_87_5254">
<rect width="30" height="30" fill="white"/>
</clipPath>
</defs>
</svg>
