<svg width="30" height="30" viewBox="0 0 30 30" fill="none" xmlns="http://www.w3.org/2000/svg">
<g clip-path="url(#clip0_87_5112)">
<path d="M8.74988 29.8672C8.52748 29.8294 8.30751 29.7785 8.09113 29.7147L4.50488 28.5897C3.20802 28.2087 2.06912 27.4186 1.25812 26.3372C0.447123 25.2559 0.00750981 23.9413 0.00488281 22.5897V7.49967C0.0061826 6.47222 0.26076 5.46094 0.746081 4.55535C1.2314 3.64975 1.9325 2.87776 2.78731 2.30772C3.64212 1.73768 4.62428 1.38718 5.64685 1.28722C6.66942 1.18727 7.70087 1.34095 8.64988 1.73467L8.74988 1.78092V29.8672ZM25.8499 1.45842L25.8236 1.44967L22.4299 0.324668C22.0459 0.200143 21.6507 0.113481 21.2499 0.065918V27.8934L23.8174 28.6334C24.5531 28.8125 25.3198 28.8221 26.0598 28.6616C26.7997 28.5011 27.4935 28.1747 28.0889 27.7069C28.6843 27.2391 29.1657 26.6422 29.4967 25.9613C29.8277 25.2803 29.9998 24.5331 29.9999 23.7759V7.34467C29.998 6.05572 29.5984 4.79874 28.8557 3.74529C28.113 2.69183 27.0633 1.89321 25.8499 1.45842V1.45842ZM18.7499 0.237168C18.7499 0.237168 11.4461 2.32842 11.2499 2.34967V29.8497C11.3749 29.8234 18.7499 27.8047 18.7499 27.8047V0.237168Z" fill="#6000AC"/>
</g>
<defs>
<clipPath id="clip0_87_5112">
<rect width="30" height="30" fill="white"/>
</clipPath>
</defs>
</svg>
