<svg width="30" height="30" viewBox="0 0 30 30" fill="none" xmlns="http://www.w3.org/2000/svg">
<g clip-path="url(#clip0_87_5253)">
<path d="M15 15C16.4834 15 17.9334 14.5601 19.1668 13.736C20.4001 12.9119 21.3614 11.7406 21.9291 10.3701C22.4968 8.99968 22.6453 7.49168 22.3559 6.03683C22.0665 4.58197 21.3522 3.2456 20.3033 2.1967C19.2544 1.14781 17.918 0.433503 16.4632 0.144114C15.0083 -0.145275 13.5003 0.00324965 12.1299 0.570907C10.7594 1.13856 9.58809 2.09986 8.76398 3.33323C7.93987 4.5666 7.5 6.01664 7.5 7.5C7.50199 9.48852 8.2928 11.395 9.69889 12.8011C11.105 14.2072 13.0115 14.998 15 15ZM15 2.5C15.9889 2.5 16.9556 2.79325 17.7779 3.34266C18.6001 3.89206 19.241 4.67296 19.6194 5.58659C19.9978 6.50022 20.0969 7.50555 19.9039 8.47546C19.711 9.44536 19.2348 10.3363 18.5355 11.0355C17.8363 11.7348 16.9454 12.211 15.9755 12.4039C15.0055 12.5969 14.0002 12.4978 13.0866 12.1194C12.173 11.741 11.3921 11.1001 10.8427 10.2779C10.2932 9.45561 10 8.48891 10 7.5C10 6.17392 10.5268 4.90215 11.4645 3.96447C12.4021 3.02679 13.6739 2.5 15 2.5Z" fill="#6000AC"/>
<path d="M15 17.501C12.0173 17.5043 9.15777 18.6906 7.0487 20.7997C4.93964 22.9087 3.75331 25.7683 3.75 28.751C3.75 29.0825 3.8817 29.4004 4.11612 29.6349C4.35054 29.8693 4.66848 30.001 5 30.001C5.33152 30.001 5.64946 29.8693 5.88388 29.6349C6.1183 29.4004 6.25 29.0825 6.25 28.751C6.25 26.4303 7.17187 24.2047 8.81282 22.5638C10.4538 20.9228 12.6794 20.001 15 20.001C17.3206 20.001 19.5462 20.9228 21.1872 22.5638C22.8281 24.2047 23.75 26.4303 23.75 28.751C23.75 29.0825 23.8817 29.4004 24.1161 29.6349C24.3505 29.8693 24.6685 30.001 25 30.001C25.3315 30.001 25.6495 29.8693 25.8839 29.6349C26.1183 29.4004 26.25 29.0825 26.25 28.751C26.2467 25.7683 25.0604 22.9087 22.9513 20.7997C20.8422 18.6906 17.9827 17.5043 15 17.501Z" fill="#6000AC"/>
</g>
<defs>
<clipPath id="clip0_87_5253">
<rect width="30" height="30" fill="white"/>
</clipPath>
</defs>
</svg>
