<svg width="14" height="14" viewBox="0 0 14 14" fill="none" xmlns="http://www.w3.org/2000/svg">
<g clip-path="url(#clip0_87_5259)">
<path d="M7.00016 6.99984C7.64183 6.99984 8.16683 6.47484 8.16683 5.83317C8.16683 5.1915 7.64183 4.6665 7.00016 4.6665C6.3585 4.6665 5.8335 5.1915 5.8335 5.83317C5.8335 6.47484 6.3585 6.99984 7.00016 6.99984ZM7.00016 1.1665C9.45016 1.1665 11.6668 3.04484 11.6668 5.94984C11.6668 7.80484 10.2377 9.9865 7.38516 12.5007C7.1635 12.6932 6.831 12.6932 6.60933 12.5007C3.76266 9.9865 2.3335 7.80484 2.3335 5.94984C2.3335 3.04484 4.55016 1.1665 7.00016 1.1665Z" fill="#323232"/>
</g>
<defs>
<clipPath id="clip0_87_5259">
<rect width="14" height="14" fill="white"/>
</clipPath>
</defs>
</svg>
