<svg width="226" height="68" viewBox="0 0 226 68" fill="none" xmlns="http://www.w3.org/2000/svg">
<path d="M26.24 48L20.92 37.84H20.88V48H12V19.68H25.2C27.4933 19.68 29.4533 20.0933 31.08 20.92C32.7067 21.72 33.92 22.8267 34.72 24.24C35.5467 25.6267 35.96 27.2 35.96 28.96C35.96 30.8533 35.4267 32.5333 34.36 34C33.32 35.4667 31.8133 36.52 29.84 37.16L36 48H26.24ZM20.88 31.92H24.4C25.2533 31.92 25.8933 31.7333 26.32 31.36C26.7467 30.96 26.96 30.3467 26.96 29.52C26.96 28.7733 26.7333 28.1867 26.28 27.76C25.8533 27.3333 25.2267 27.12 24.4 27.12H20.88V31.92ZM43.2769 23.64C41.7302 23.64 40.4902 23.2267 39.5569 22.4C38.6235 21.5733 38.1569 20.5333 38.1569 19.28C38.1569 18 38.6235 16.9467 39.5569 16.12C40.4902 15.2667 41.7302 14.84 43.2769 14.84C44.7969 14.84 46.0235 15.2667 46.9569 16.12C47.8902 16.9467 48.3569 18 48.3569 19.28C48.3569 20.5333 47.8902 21.5733 46.9569 22.4C46.0235 23.2267 44.7969 23.64 43.2769 23.64ZM47.6769 25.44V48H38.7969V25.44H47.6769ZM50.4875 36.72C50.4875 34.3467 50.8875 32.2933 51.6875 30.56C52.5142 28.8 53.6342 27.4667 55.0475 26.56C56.4608 25.6267 58.0475 25.16 59.8075 25.16C61.2742 25.16 62.5275 25.4667 63.5675 26.08C64.6342 26.6667 65.4475 27.48 66.0075 28.52V18.4H74.8875V48H66.0075V44.92C65.4475 45.96 64.6342 46.7867 63.5675 47.4C62.5275 47.9867 61.2742 48.28 59.8075 48.28C58.0475 48.28 56.4608 47.8267 55.0475 46.92C53.6342 45.9867 52.5142 44.6533 51.6875 42.92C50.8875 41.16 50.4875 39.0933 50.4875 36.72ZM66.0475 36.72C66.0475 35.52 65.7408 34.5867 65.1275 33.92C64.5142 33.2533 63.7275 32.92 62.7675 32.92C61.8075 32.92 61.0208 33.2533 60.4075 33.92C59.7942 34.5867 59.4875 35.52 59.4875 36.72C59.4875 37.92 59.7942 38.8533 60.4075 39.52C61.0208 40.1867 61.8075 40.52 62.7675 40.52C63.7275 40.52 64.5142 40.1867 65.1275 39.52C65.7408 38.8533 66.0475 37.92 66.0475 36.72ZM100.715 36.52C100.715 37.1333 100.675 37.72 100.595 38.28H86.315C86.4483 40.2267 87.2617 41.2 88.755 41.2C89.715 41.2 90.4083 40.76 90.835 39.88H100.235C99.915 41.48 99.235 42.92 98.195 44.2C97.1817 45.4533 95.8883 46.4533 94.315 47.2C92.7683 47.92 91.0617 48.28 89.195 48.28C86.955 48.28 84.955 47.8133 83.195 46.88C81.4617 45.9467 80.1017 44.6133 79.115 42.88C78.155 41.12 77.675 39.0667 77.675 36.72C77.675 34.3733 78.155 32.3333 79.115 30.6C80.1017 28.84 81.4617 27.4933 83.195 26.56C84.955 25.6267 86.955 25.16 89.195 25.16C91.435 25.16 93.4217 25.6267 95.155 26.56C96.915 27.4667 98.275 28.7733 99.235 30.48C100.222 32.1867 100.715 34.2 100.715 36.52ZM91.715 34.4C91.715 33.6533 91.475 33.0933 90.995 32.72C90.515 32.32 89.915 32.12 89.195 32.12C87.6217 32.12 86.7017 32.88 86.435 34.4H91.715Z" fill="#B7EBDE"/>
<path d="M111.92 48.28C110.08 48.28 108.427 47.96 106.96 47.32C105.52 46.6533 104.387 45.7467 103.56 44.6C102.733 43.4267 102.307 42.08 102.28 40.56H106.16C106.293 41.8667 106.827 42.9733 107.76 43.88C108.72 44.76 110.107 45.2 111.92 45.2C113.653 45.2 115.013 44.7733 116 43.92C117.013 43.04 117.52 41.92 117.52 40.56C117.52 39.4933 117.227 38.6267 116.64 37.96C116.053 37.2933 115.32 36.7867 114.44 36.44C113.56 36.0933 112.373 35.72 110.88 35.32C109.04 34.84 107.56 34.36 106.44 33.88C105.347 33.4 104.4 32.6533 103.6 31.64C102.827 30.6 102.44 29.2133 102.44 27.48C102.44 25.96 102.827 24.6133 103.6 23.44C104.373 22.2667 105.453 21.36 106.84 20.72C108.253 20.08 109.867 19.76 111.68 19.76C114.293 19.76 116.427 20.4133 118.08 21.72C119.76 23.0267 120.707 24.76 120.92 26.92H116.92C116.787 25.8533 116.227 24.92 115.24 24.12C114.253 23.2933 112.947 22.88 111.32 22.88C109.8 22.88 108.56 23.28 107.6 24.08C106.64 24.8533 106.16 25.9467 106.16 27.36C106.16 28.3733 106.44 29.2 107 29.84C107.587 30.48 108.293 30.9733 109.12 31.32C109.973 31.64 111.16 32.0133 112.68 32.44C114.52 32.9467 116 33.4533 117.12 33.96C118.24 34.44 119.2 35.2 120 36.24C120.8 37.2533 121.2 38.64 121.2 40.4C121.2 41.76 120.84 43.04 120.12 44.24C119.4 45.44 118.333 46.4133 116.92 47.16C115.507 47.9067 113.84 48.28 111.92 48.28ZM137.437 25.68C139.09 25.68 140.583 26.04 141.917 26.76C143.25 27.4533 144.29 28.5067 145.037 29.92C145.81 31.3333 146.197 33.0533 146.197 35.08V48H142.597V35.6C142.597 33.4133 142.05 31.7467 140.957 30.6C139.863 29.4267 138.37 28.84 136.477 28.84C134.557 28.84 133.023 29.44 131.877 30.64C130.757 31.84 130.197 33.5867 130.197 35.88V48H126.557V18.4H130.197V29.2C130.917 28.08 131.903 27.2133 133.157 26.6C134.437 25.9867 135.863 25.68 137.437 25.68ZM150.783 36.96C150.783 34.72 151.236 32.76 152.143 31.08C153.049 29.3733 154.289 28.0533 155.863 27.12C157.463 26.1867 159.236 25.72 161.183 25.72C163.103 25.72 164.769 26.1333 166.183 26.96C167.596 27.7867 168.649 28.8267 169.343 30.08V26.08H173.023V48H169.343V43.92C168.623 45.2 167.543 46.2667 166.103 47.12C164.689 47.9467 163.036 48.36 161.143 48.36C159.196 48.36 157.436 47.88 155.863 46.92C154.289 45.96 153.049 44.6133 152.143 42.88C151.236 41.1467 150.783 39.1733 150.783 36.96ZM169.343 37C169.343 35.3467 169.009 33.9067 168.343 32.68C167.676 31.4533 166.769 30.52 165.623 29.88C164.503 29.2133 163.263 28.88 161.903 28.88C160.543 28.88 159.303 29.2 158.183 29.84C157.063 30.48 156.169 31.4133 155.503 32.64C154.836 33.8667 154.503 35.3067 154.503 36.96C154.503 38.64 154.836 40.1067 155.503 41.36C156.169 42.5867 157.063 43.5333 158.183 44.2C159.303 44.84 160.543 45.16 161.903 45.16C163.263 45.16 164.503 44.84 165.623 44.2C166.769 43.5333 167.676 42.5867 168.343 41.36C169.009 40.1067 169.343 38.6533 169.343 37ZM182.814 29.64C183.454 28.3867 184.36 27.4133 185.534 26.72C186.734 26.0267 188.187 25.68 189.894 25.68V29.44H188.934C184.854 29.44 182.814 31.6533 182.814 36.08V48H179.174V26.08H182.814V29.64ZM214.096 36.2C214.096 36.8933 214.056 37.6267 213.976 38.4H196.456C196.589 40.56 197.322 42.2533 198.656 43.48C200.016 44.68 201.656 45.28 203.576 45.28C205.149 45.28 206.456 44.92 207.496 44.2C208.562 43.4533 209.309 42.4667 209.736 41.24H213.656C213.069 43.3467 211.896 45.0667 210.136 46.4C208.376 47.7067 206.189 48.36 203.576 48.36C201.496 48.36 199.629 47.8933 197.976 46.96C196.349 46.0267 195.069 44.7067 194.136 43C193.202 41.2667 192.736 39.2667 192.736 37C192.736 34.7333 193.189 32.7467 194.096 31.04C195.002 29.3333 196.269 28.0267 197.896 27.12C199.549 26.1867 201.442 25.72 203.576 25.72C205.656 25.72 207.496 26.1733 209.096 27.08C210.696 27.9867 211.922 29.24 212.776 30.84C213.656 32.4133 214.096 34.2 214.096 36.2ZM210.336 35.44C210.336 34.0533 210.029 32.8667 209.416 31.88C208.802 30.8667 207.962 30.1067 206.896 29.6C205.856 29.0667 204.696 28.8 203.416 28.8C201.576 28.8 200.002 29.3867 198.696 30.56C197.416 31.7333 196.682 33.36 196.496 35.44H210.336Z" fill="#EDE2FF"/>
</svg>
