<svg width="45" height="55" viewBox="0 0 45 55" fill="none" xmlns="http://www.w3.org/2000/svg">
<g clip-path="url(#clip0_143_292)">
<path d="M11.2834 30.5479L16.9271 36.25C17.0627 36.3867 17.224 36.4952 17.4017 36.5692C17.5794 36.6432 17.77 36.6814 17.9626 36.6814C18.1551 36.6814 18.3457 36.6432 18.5234 36.5692C18.7011 36.4952 18.8624 36.3867 18.998 36.25C19.1347 36.1144 19.2432 35.9531 19.3172 35.7754C19.3912 35.5977 19.4293 35.4071 19.4293 35.2146C19.4293 35.022 19.3912 34.8314 19.3172 34.6537C19.2432 34.476 19.1347 34.3147 18.998 34.1791L13.8063 28.9583H43.5417C43.9285 28.9583 44.2994 28.8047 44.5729 28.5312C44.8464 28.2577 45.0001 27.8868 45.0001 27.5C45.0001 27.1132 44.8464 26.7423 44.5729 26.4688C44.2994 26.1953 43.9285 26.0416 43.5417 26.0416H13.7188L18.998 20.7625C19.2565 20.4913 19.4008 20.1309 19.4008 19.7562C19.4008 19.3815 19.2565 19.0212 18.998 18.75C18.8624 18.6133 18.7011 18.5048 18.5234 18.4308C18.3457 18.3567 18.1551 18.3186 17.9626 18.3186C17.77 18.3186 17.5794 18.3567 17.4017 18.4308C17.224 18.5048 17.0627 18.6133 16.9271 18.75L11.2834 24.3646C10.4641 25.1849 10.0039 26.2968 10.0039 27.4562C10.0039 28.6156 10.4641 29.7276 11.2834 30.5479Z" fill="#FDFCFF"/>
</g>
<defs>
<clipPath id="clip0_143_292">
<rect width="35" height="35" fill="white" transform="translate(10 10)"/>
</clipPath>
</defs>
</svg>
