<svg width="45" height="55" viewBox="0 0 45 55" fill="none" xmlns="http://www.w3.org/2000/svg">
<g clip-path="url(#clip0_87_5377)">
<path d="M11.2836 30.5479L16.9274 36.25C17.063 36.3867 17.2242 36.4952 17.402 36.5692C17.5797 36.6432 17.7703 36.6814 17.9628 36.6814C18.1553 36.6814 18.3459 36.6432 18.5236 36.5692C18.7014 36.4952 18.8626 36.3867 18.9982 36.25C19.1349 36.1144 19.2434 35.9531 19.3174 35.7754C19.3915 35.5977 19.4296 35.4071 19.4296 35.2146C19.4296 35.022 19.3915 34.8314 19.3174 34.6537C19.2434 34.476 19.1349 34.3147 18.9982 34.1791L13.8066 28.9583H43.542C43.9287 28.9583 44.2997 28.8047 44.5732 28.5312C44.8467 28.2577 45.0003 27.8868 45.0003 27.5C45.0003 27.1132 44.8467 26.7423 44.5732 26.4688C44.2997 26.1953 43.9287 26.0416 43.542 26.0416H13.7191L18.9982 20.7625C19.2568 20.4913 19.401 20.1309 19.401 19.7562C19.401 19.3815 19.2568 19.0212 18.9982 18.75C18.8626 18.6133 18.7014 18.5048 18.5236 18.4308C18.3459 18.3567 18.1553 18.3186 17.9628 18.3186C17.7703 18.3186 17.5797 18.3567 17.402 18.4308C17.2242 18.5048 17.063 18.6133 16.9274 18.75L11.2836 24.3646C10.4643 25.1849 10.0042 26.2968 10.0042 27.4562C10.0042 28.6156 10.4643 29.7276 11.2836 30.5479Z" fill="#6000AC"/>
</g>
<defs>
<clipPath id="clip0_87_5377">
<rect width="35" height="35" fill="white" transform="translate(10 10)"/>
</clipPath>
</defs>
</svg>
