<svg width="140" height="101" viewBox="0 0 140 101" fill="none" xmlns="http://www.w3.org/2000/svg">
<path d="M23.072 7.536L15.104 30H8.256L0.288 7.536H6.112L11.68 24.496L17.28 7.536H23.072ZM24.271 21.04C24.271 19.2053 24.6123 17.5947 25.295 16.208C25.999 14.8213 26.9483 13.7547 28.143 13.008C29.3377 12.2613 30.671 11.888 32.143 11.888C33.4017 11.888 34.5003 12.144 35.439 12.656C36.399 13.168 37.135 13.84 37.647 14.672V12.144H43.119V30H37.647V27.472C37.1137 28.304 36.367 28.976 35.407 29.488C34.4683 30 33.3697 30.256 32.111 30.256C30.6603 30.256 29.3377 29.8827 28.143 29.136C26.9483 28.368 25.999 27.2907 25.295 25.904C24.6123 24.496 24.271 22.8747 24.271 21.04ZM37.647 21.072C37.647 19.7067 37.263 18.6293 36.495 17.84C35.7483 17.0507 34.831 16.656 33.743 16.656C32.655 16.656 31.727 17.0507 30.959 17.84C30.2123 18.608 29.839 19.6747 29.839 21.04C29.839 22.4053 30.2123 23.4933 30.959 24.304C31.727 25.0933 32.655 25.488 33.743 25.488C34.831 25.488 35.7483 25.0933 36.495 24.304C37.263 23.5147 37.647 22.4373 37.647 21.072ZM49.8298 10.288C48.8698 10.288 48.0804 10.0107 47.4618 9.456C46.8644 8.88 46.5658 8.176 46.5658 7.344C46.5658 6.49067 46.8644 5.78667 47.4618 5.232C48.0804 4.656 48.8698 4.368 49.8298 4.368C50.7684 4.368 51.5364 4.656 52.1338 5.232C52.7524 5.78667 53.0618 6.49067 53.0618 7.344C53.0618 8.176 52.7524 8.88 52.1338 9.456C51.5364 10.0107 50.7684 10.288 49.8298 10.288ZM52.5498 12.144V30H47.0778V12.144H52.5498ZM68.7685 14.672C69.3018 13.84 70.0378 13.168 70.9765 12.656C71.9152 12.144 73.0138 11.888 74.2725 11.888C75.7445 11.888 77.0778 12.2613 78.2725 13.008C79.4672 13.7547 80.4058 14.8213 81.0885 16.208C81.7925 17.5947 82.1445 19.2053 82.1445 21.04C82.1445 22.8747 81.7925 24.496 81.0885 25.904C80.4058 27.2907 79.4672 28.368 78.2725 29.136C77.0778 29.8827 75.7445 30.256 74.2725 30.256C73.0352 30.256 71.9365 30 70.9765 29.488C70.0378 28.976 69.3018 28.3147 68.7685 27.504V38.512H63.2965V12.144H68.7685V14.672ZM76.5765 21.04C76.5765 19.6747 76.1925 18.608 75.4245 17.84C74.6778 17.0507 73.7498 16.656 72.6405 16.656C71.5525 16.656 70.6245 17.0507 69.8565 17.84C69.1098 18.6293 68.7365 19.7067 68.7365 21.072C68.7365 22.4373 69.1098 23.5147 69.8565 24.304C70.6245 25.0933 71.5525 25.488 72.6405 25.488C73.7285 25.488 74.6565 25.0933 75.4245 24.304C76.1925 23.4933 76.5765 22.4053 76.5765 21.04ZM90.4873 15.12C91.1273 14.1387 91.9273 13.3707 92.8873 12.816C93.8473 12.24 94.9139 11.952 96.0873 11.952V17.744H94.5833C93.2179 17.744 92.1939 18.0427 91.5113 18.64C90.8286 19.216 90.4873 20.24 90.4873 21.712V30H85.0153V12.144H90.4873V15.12ZM97.6148 21.04C97.6148 19.2053 97.9561 17.5947 98.6388 16.208C99.3428 14.8213 100.292 13.7547 101.487 13.008C102.681 12.2613 104.015 11.888 105.487 11.888C106.745 11.888 107.844 12.144 108.783 12.656C109.743 13.168 110.479 13.84 110.991 14.672V12.144H116.463V30H110.991V27.472C110.457 28.304 109.711 28.976 108.751 29.488C107.812 30 106.713 30.256 105.455 30.256C104.004 30.256 102.681 29.8827 101.487 29.136C100.292 28.368 99.3428 27.2907 98.6388 25.904C97.9561 24.496 97.6148 22.8747 97.6148 21.04ZM110.991 21.072C110.991 19.7067 110.607 18.6293 109.839 17.84C109.092 17.0507 108.175 16.656 107.087 16.656C105.999 16.656 105.071 17.0507 104.303 17.84C103.556 18.608 103.183 19.6747 103.183 21.04C103.183 22.4053 103.556 23.4933 104.303 24.304C105.071 25.0933 105.999 25.488 107.087 25.488C108.175 25.488 109.092 25.0933 109.839 24.304C110.607 23.5147 110.991 22.4373 110.991 21.072ZM12.608 68.224C10.496 68.224 8.55467 67.7333 6.784 66.752C5.03467 65.7707 3.63733 64.4053 2.592 62.656C1.568 60.8853 1.056 58.9013 1.056 56.704C1.056 54.5067 1.568 52.5333 2.592 50.784C3.63733 49.0347 5.03467 47.6693 6.784 46.688C8.55467 45.7067 10.496 45.216 12.608 45.216C14.72 45.216 16.6507 45.7067 18.4 46.688C20.1707 47.6693 21.5573 49.0347 22.56 50.784C23.584 52.5333 24.096 54.5067 24.096 56.704C24.096 58.9013 23.584 60.8853 22.56 62.656C21.536 64.4053 20.1493 65.7707 18.4 66.752C16.6507 67.7333 14.72 68.224 12.608 68.224ZM12.608 63.232C14.4 63.232 15.8293 62.6347 16.896 61.44C17.984 60.2453 18.528 58.6667 18.528 56.704C18.528 54.72 17.984 53.1413 16.896 51.968C15.8293 50.7733 14.4 50.176 12.608 50.176C10.7947 50.176 9.344 50.7627 8.256 51.936C7.18933 53.1093 6.656 54.6987 6.656 56.704C6.656 58.688 7.18933 60.2773 8.256 61.472C9.344 62.6453 10.7947 63.232 12.608 63.232ZM38.0203 49.952C40.1109 49.952 41.7749 50.6347 43.0123 52C44.2709 53.344 44.9003 55.2 44.9003 57.568V68H39.4603V58.304C39.4603 57.1093 39.1509 56.1813 38.5323 55.52C37.9136 54.8587 37.0816 54.528 36.0363 54.528C34.9909 54.528 34.1589 54.8587 33.5403 55.52C32.9216 56.1813 32.6123 57.1093 32.6123 58.304V68H27.1403V50.144H32.6123V52.512C33.1669 51.7227 33.9136 51.104 34.8523 50.656C35.7909 50.1867 36.8469 49.952 38.0203 49.952ZM47.6148 59.04C47.6148 57.2053 47.9561 55.5947 48.6388 54.208C49.3428 52.8213 50.2921 51.7547 51.4868 51.008C52.6814 50.2613 54.0148 49.888 55.4868 49.888C56.6601 49.888 57.7268 50.1333 58.6868 50.624C59.6681 51.1147 60.4361 51.776 60.9908 52.608V44.32H66.4628V68H60.9908V65.44C60.4788 66.2933 59.7428 66.976 58.7828 67.488C57.8441 68 56.7454 68.256 55.4868 68.256C54.0148 68.256 52.6814 67.8827 51.4868 67.136C50.2921 66.368 49.3428 65.2907 48.6388 63.904C47.9561 62.496 47.6148 60.8747 47.6148 59.04ZM60.9908 59.072C60.9908 57.7067 60.6068 56.6293 59.8388 55.84C59.0921 55.0507 58.1748 54.656 57.0868 54.656C55.9988 54.656 55.0708 55.0507 54.3028 55.84C53.5561 56.608 53.1828 57.6747 53.1828 59.04C53.1828 60.4053 53.5561 61.4933 54.3028 62.304C55.0708 63.0933 55.9988 63.488 57.0868 63.488C58.1748 63.488 59.0921 63.0933 59.8388 62.304C60.6068 61.5147 60.9908 60.4373 60.9908 59.072ZM87.2535 58.784C87.2535 59.296 87.2215 59.8293 87.1575 60.384H74.7735C74.8588 61.4933 75.2108 62.3467 75.8295 62.944C76.4695 63.52 77.2482 63.808 78.1655 63.808C79.5308 63.808 80.4802 63.232 81.0135 62.08H86.8375C86.5388 63.2533 85.9948 64.3093 85.2055 65.248C84.4375 66.1867 83.4668 66.9227 82.2935 67.456C81.1202 67.9893 79.8082 68.256 78.3575 68.256C76.6082 68.256 75.0508 67.8827 73.6855 67.136C72.3202 66.3893 71.2535 65.3227 70.4855 63.936C69.7175 62.5493 69.3335 60.928 69.3335 59.072C69.3335 57.216 69.7068 55.5947 70.4535 54.208C71.2215 52.8213 72.2882 51.7547 73.6535 51.008C75.0188 50.2613 76.5868 49.888 78.3575 49.888C80.0855 49.888 81.6215 50.2507 82.9655 50.976C84.3095 51.7013 85.3548 52.736 86.1015 54.08C86.8695 55.424 87.2535 56.992 87.2535 58.784ZM81.6535 57.344C81.6535 56.4053 81.3335 55.6587 80.6935 55.104C80.0535 54.5493 79.2535 54.272 78.2935 54.272C77.3762 54.272 76.5975 54.5387 75.9575 55.072C75.3388 55.6053 74.9548 56.3627 74.8055 57.344H81.6535ZM96.7003 44.288C98.9829 44.288 100.807 44.8853 102.172 46.08C103.559 47.2747 104.252 48.96 104.252 51.136C104.252 53.1413 103.591 54.7093 102.268 55.84C100.967 56.9493 99.2389 57.5147 97.0843 57.536L96.9243 59.936H92.1243L91.9643 53.984H93.8843C95.5269 53.984 96.7749 53.7813 97.6283 53.376C98.5029 52.9707 98.9403 52.2347 98.9403 51.168C98.9403 50.4213 98.7376 49.8347 98.3323 49.408C97.9269 48.9813 97.3616 48.768 96.6363 48.768C95.8683 48.768 95.2709 48.992 94.8443 49.44C94.4176 49.8667 94.2043 50.4533 94.2043 51.2H89.0523C89.0096 49.8987 89.2763 48.7253 89.8523 47.68C90.4496 46.6347 91.3243 45.8133 92.4763 45.216C93.6496 44.5973 95.0576 44.288 96.7003 44.288ZM94.5883 68.256C93.6283 68.256 92.8389 67.9787 92.2203 67.424C91.6229 66.848 91.3243 66.144 91.3243 65.312C91.3243 64.4587 91.6229 63.744 92.2203 63.168C92.8389 62.592 93.6283 62.304 94.5883 62.304C95.5269 62.304 96.2949 62.592 96.8923 63.168C97.5109 63.744 97.8203 64.4587 97.8203 65.312C97.8203 66.144 97.5109 66.848 96.8923 67.424C96.2949 67.9787 95.5269 68.256 94.5883 68.256Z" fill="black"/>
<rect y="77" width="134" height="3" rx="1.5" fill="#009C85"/>
<g clip-path="url(#clip0_87_10275)">
<path d="M122.5 62.4998C124.657 62.4998 126.417 60.7396 126.417 58.5832C126.417 56.4267 124.657 54.6665 122.5 54.6665C120.344 54.6665 118.583 56.4267 118.583 58.5832C118.583 60.7396 120.344 62.4998 122.5 62.4998ZM122.5 47.9165C128.104 47.9165 133.167 52.1952 133.167 58.8748C133.167 60.9349 132.372 63.2682 130.652 65.8981C128.934 68.525 126.329 71.3919 122.805 74.4987C122.628 74.6509 122.358 74.6509 122.181 74.4989C118.664 71.3922 116.063 68.5254 114.347 65.8985C112.628 63.2684 111.833 60.935 111.833 58.8748C111.833 52.1952 116.896 47.9165 122.5 47.9165Z" stroke="#6000AC" stroke-width="2"/>
</g>
<defs>
<clipPath id="clip0_87_10275">
<rect width="35" height="35" fill="white" transform="translate(105 44)"/>
</clipPath>
</defs>
</svg>
